SplineFontDB: 3.2
FontName: APL2741Unicode
FullName: APL2741 Unicode
FamilyName: APL2741 Unicode
Weight: Book
Copyright: Placed into the public domain by Adrian Smith, APL-385, Gilling East, YORK, UK
Version: November 2022
ItalicAngle: 0
UnderlinePosition: -61
UnderlineWidth: 24
Ascent: 800
Descent: 200
InvalidEm: 0
sfntRevision: 0x00020000
LayerCount: 2
Layer: 0 1 "Back" 1
Layer: 1 1 "Fore" 0
XUID: [1021 508 -911239715 9468]
StyleMap: 0x0040
FSType: 0
OS2Version: 1
OS2_WeightWidthSlopeOnly: 0
OS2_UseTypoMetrics: 0
CreationTime: 1066650910
ModificationTime: 1668047081
PfmFamily: 17
TTFWeight: 400
TTFWidth: 5
LineGap: 195
VLineGap: 0
Panose: 2 9 3 9 0 2 2 0 2 3
OS2TypoAscent: 786
OS2TypoAOffset: 0
OS2TypoDescent: -221
OS2TypoDOffset: 0
OS2TypoLinegap: 195
OS2WinAscent: 785
OS2WinAOffset: 0
OS2WinDescent: 224
OS2WinDOffset: 0
HheadAscent: 785
HheadAOffset: 0
HheadDescent: -224
HheadDOffset: 0
OS2SubXSize: 700
OS2SubYSize: 650
OS2SubXOff: 0
OS2SubYOff: 143
OS2SupXSize: 700
OS2SupYSize: 650
OS2SupXOff: 0
OS2SupYOff: 453
OS2StrikeYSize: 50
OS2StrikeYPos: 259
OS2FamilyClass: 2057
OS2Vendor: 'acds'
OS2CodePages: 80000000.00000000
OS2UnicodeRanges: 80000000.00000000.00000000.00000000
MarkAttachClasses: 1
DEI: 91125
TtTable: prep
PUSHW_4
 0
 4
 2
 0
CALL
CALL
PUSHW_6
 2
 72
 56
 40
 24
 8
CALL
PUSHW_6
 3
 38
 30
 21
 13
 8
CALL
PUSHW_6
 0
 72
 56
 40
 24
 8
CALL
PUSHW_6
 1
 38
 30
 21
 13
 8
CALL
PUSHW_3
 4
 3
 7
CALL
EndTTInstrs
TtTable: fpgm
PUSHW_1
 0
FDEF
MPPEM
PUSHW_1
 9
LT
IF
PUSHB_2
 1
 1
INSTCTRL
EIF
PUSHW_1
 511
SCANCTRL
PUSHW_1
 132
SCVTCI
PUSHW_2
 9
 3
SDS
SDB
ENDF
PUSHW_1
 1
FDEF
DUP
DUP
RCVT
ROUND[Black]
WCVTP
PUSHB_1
 1
ADD
ENDF
PUSHW_1
 2
FDEF
PUSHW_1
 1
LOOPCALL
POP
ENDF
PUSHW_1
 3
FDEF
DUP
GC[cur]
PUSHB_1
 3
CINDEX
GC[cur]
GT
IF
SWAP
EIF
DUP
ROLL
DUP
ROLL
MD[grid]
ABS
ROLL
DUP
GC[cur]
DUP
ROUND[Grey]
SUB
ABS
PUSHB_1
 4
CINDEX
GC[cur]
DUP
ROUND[Grey]
SUB
ABS
GT
IF
SWAP
NEG
ROLL
EIF
MDAP[rnd]
DUP
PUSHB_1
 0
GTEQ
IF
ROUND[Black]
DUP
PUSHB_1
 0
EQ
IF
POP

StartChar: uni007F
Encoding: 127 127 0
AltUni2: 000001.ffffffff.0 000002.ffffffff.0 000003.ffffffff.0 000004.ffffffff.0 000005.ffffffff.0 000006.ffffffff.0 000007.ffffffff.0 00000a.ffffffff.0 00000b.ffffffff.0 00000c.ffffffff.0 00000e.ffffffff.0 00000f.ffffffff.0 000010.ffffffff.0 000011.ffffffff.0 000012.ffffffff.0 000013.ffffffff.0 000014.ffffffff.0 000015.ffffffff.0 000016.ffffffff.0 000017.ffffffff.0 000018.ffffffff.0 000019.ffffffff.0 00001a.ffffffff.0 00001b.ffffffff.0 00001c.ffffffff.0 00001e.ffffffff.0 00001f.ffffffff.0
Width: 600
Flags: W
LayerCount: 2
Fore
SplineSet
112 0 m 1,0,-1
 112 787 l 1,1,-1
 487 787 l 1,2,-1
 487 0 l 1,3,-1
 112 0 l 1,0,-1
174 63 m 1,4,-1
 424 63 l 1,5,-1
 424 725 l 1,6,-1
 174 725 l 1,7,-1
 174 63 l 1,4,-1
EndSplineSet
EndChar

StartChar: uni001D
Encoding: 29 29 1
AltUni2: 000000.ffffffff.0 000008.ffffffff.0
Width: 600
Flags: W
LayerCount: 2
Fore
SplineSet
112 0 m 1,0,-1
 112 787 l 1,1,-1
 487 787 l 1,2,-1
 487 0 l 1,3,-1
 112 0 l 1,0,-1
174 63 m 1,4,-1
 424 63 l 1,5,-1
 424 725 l 1,6,-1
 174 725 l 1,7,-1
 174 63 l 1,4,-1
EndSplineSet
EndChar

StartChar: Ecircumflex
Encoding: 202 202 3
AltUni2: 000009.ffffffff.0 00000d.ffffffff.0 ffffffff.ffffffff.0
Width: 600
UnlinkRmOvrlpSave: 1
Flags: W
LayerCount: 2
Fore
SplineSet
508 375 m 2,0,1
 503 354 503 354 482 354 c 0,2,3
 460 354 460 354 460 372 c 0,4,5
 460 379 460 379 470 423 c 2,6,-1
 483 481 l 1,7,-1
 270 481 l 1,8,-1
 226 303 l 1,9,-1
 320 302 l 1,10,11
 321 310 321 310 323.5 322 c 128,-1,12
 326 334 326 334 331 351 c 0,13,14
 342 377 342 377 362 377 c 0,15,16
 369 377 369 377 377 372 c 1,17,-1
 380 363 l 1,18,19
 373 334 373 334 363 291.5 c 128,-1,20
 353 249 353 249 339 191 c 0,21,22
 334 174 334 174 315 174 c 128,-1,23
 296 174 296 174 296 189 c 0,24,25
 296 193 296 193 297.5 200 c 128,-1,26
 299 207 299 207 301 218 c 0,27,28
 303 224 303 224 305 232.5 c 128,-1,29
 307 241 307 241 309 251 c 1,30,-1
 216 251 l 1,31,-1
 165 52 l 1,32,-1
 394 52 l 1,33,-1
 417 153 l 2,34,35
 421 172 421 172 446 172 c 0,36,37
 460 172 460 172 469 156 c 0,38,39
 468 152 468 152 459 113.5 c 128,-1,40
 450 75 450 75 437 0 c 1,41,-1
 74 0 l 2,42,43
 55 1 55 1 55 25 c 128,-1,44
 55 49 55 49 80 53 c 0,45,46
 84 54 84 54 94.5 53.5 c 128,-1,47
 105 53 105 53 122 52 c 1,48,-1
 218 481 l 1,49,50
 214 481 214 481 206 481 c 128,-1,51
 198 481 198 481 186 480 c 0,52,53
 175 479 175 479 167 478.5 c 128,-1,54
 159 478 159 478 153 479 c 0,55,56
 119 480 119 480 115 502 c 1,57,58
 123 534 123 534 145 534 c 2,59,-1
 545 534 l 1,60,-1
 508 375 l 2,0,1
508 538 m 5,61,62
 490 540 490 540 450 577 c 6,63,-1
 396 631 l 5,64,65
 278 537 278 537 261 537 c 4,66,67
 239 537 239 537 239 561 c 4,68,69
 239 575 239 575 297 621 c 4,70,71
 314 633 314 633 332.5 647 c 132,-1,72
 351 661 351 661 373 678 c 4,73,74
 384 686 384 686 401 686 c 4,75,76
 419 686 419 686 476 632 c 4,77,78
 534 578 534 578 534 562 c 4,79,80
 534 549 534 549 508 538 c 5,61,62
EndSplineSet
EndChar

StartChar: exclam
Encoding: 33 33 4
Width: 600
Flags: W
LayerCount: 2
Fore
SplineSet
340 480 m 1,0,1
 336 446 336 446 334 408 c 128,-1,2
 332 370 332 370 332 325 c 0,3,4
 332 260 332 260 304 260 c 0,5,6
 280 260 280 260 276 330 c 0,7,8
 275 341 275 341 274.5 355 c 128,-1,9
 274 369 274 369 275 385 c 0,10,11
 276 406 276 406 276.5 415 c 128,-1,12
 277 424 277 424 277 422 c 1,13,14
 277 427 277 427 274 441 c 128,-1,15
 271 455 271 455 266 480 c 1,16,17
 246 505 246 505 246 531 c 0,18,19
 246 553 246 553 262 567.5 c 128,-1,20
 278 582 278 582 300 582 c 0,21,22
 326 582 326 582 342.5 567 c 128,-1,23
 359 552 359 552 359 528 c 0,24,25
 359 500 359 500 340 480 c 1,0,1
300 -10 m 0,26,27
 268 -10 268 -10 248 11.5 c 128,-1,28
 228 33 228 33 228 64 c 0,29,30
 228 94 228 94 249 116 c 128,-1,31
 270 138 270 138 300 138 c 0,32,33
 332 138 332 138 352 116.5 c 128,-1,34
 372 95 372 95 372 64 c 0,35,36
 372 31 372 31 352.5 10.5 c 128,-1,37
 333 -10 333 -10 300 -10 c 0,26,27
EndSplineSet
EndChar

StartChar: quotedbl
Encoding: 34 34 5
Width: 600
Flags: W
LayerCount: 2
Fore
SplineSet
391 393 m 0,0,1
 382 389 382 389 373 389 c 0,2,3
 347 389 347 389 347 410 c 2,4,-1
 347 555 l 2,5,6
 347 580 347 580 369 580 c 0,7,8
 398 580 398 580 398 555 c 2,9,-1
 398 410 l 2,10,11
 398 400 398 400 391 393 c 0,0,1
229 390 m 0,12,13
 202 390 202 390 202 410 c 2,14,-1
 202 555 l 2,15,16
 202 578 202 578 232 578 c 0,17,18
 253 578 253 578 253 560 c 2,19,-1
 253 410 l 2,20,21
 253 390 253 390 229 390 c 0,12,13
EndSplineSet
EndChar

StartChar: numbersign
Encoding: 35 35 6
Width: 600
Flags: W
LayerCount: 2
Fore
SplineSet
498 353 m 0,0,1
 496 353 496 353 481 353 c 256,2,3
 466 353 466 353 439 354 c 1,4,-1
 398 229 l 1,5,6
 411 230 411 230 419.5 230.5 c 128,-1,7
 428 231 428 231 432 231 c 0,8,9
 468 231 468 231 476 217 c 1,10,-1
 476 210 l 2,11,12
 476 180 476 180 440 174 c 0,13,14
 430 173 430 173 376 174 c 1,15,-1
 323 19 l 2,16,17
 317 1 317 1 302 1 c 0,18,19
 269 1 269 1 269 30 c 0,20,21
 269 40 269 40 317 177 c 1,22,-1
 208 178 l 1,23,-1
 156 21 l 2,24,25
 150 3 150 3 135 3 c 0,26,27
 105 3 105 3 105 33 c 0,28,29
 105 41 105 41 151 179 c 1,30,-1
 85 179 l 2,31,32
 73 179 73 179 68 196 c 1,33,34
 74 232 74 232 116 232 c 0,35,36
 121 232 121 232 127 232 c 256,37,38
 133 232 133 232 141 231 c 0,39,40
 150 230 150 230 156.5 229.5 c 128,-1,41
 163 229 163 229 168 229 c 1,42,-1
 209 354 l 1,43,44
 167 351 167 351 165 351 c 0,45,46
 125 351 125 351 125 374 c 0,47,48
 125 403 125 403 163 409 c 0,49,50
 178 411 178 411 228 409 c 1,51,-1
 279 549 l 2,52,53
 283 561 283 561 301 561 c 0,54,55
 314 561 314 561 327 553 c 1,56,-1
 331 546 l 1,57,-1
 332 544 l 1,58,-1
 332 542 l 1,59,-1
 284 409 l 1,60,-1
 393 409 l 1,61,-1
 440 541 l 2,62,63
 446 556 446 556 468 556 c 0,64,65
 486 556 486 556 497 538 c 1,66,67
 494 512 494 512 482 475 c 0,68,69
 478 464 478 464 472.5 448 c 128,-1,70
 467 432 467 432 459 409 c 1,71,72
 475 410 475 410 483.5 410.5 c 128,-1,73
 492 411 492 411 493 411 c 0,74,75
 532 411 532 411 532 388 c 0,76,77
 532 359 532 359 498 353 c 0,0,1
267 354 m 1,78,-1
 225 229 l 1,79,-1
 335 229 l 1,80,-1
 376 354 l 1,81,-1
 267 354 l 1,78,-1
EndSplineSet
EndChar

StartChar: dollar
Encoding: 36 36 7
Width: 600
Flags: W
LayerCount: 2
Fore
SplineSet
333 46 m 1,0,1
 334 35 334 35 334 27 c 0,2,3
 334 20 334 20 334 18 c 0,4,5
 334 -27 334 -27 306 -27 c 0,6,7
 284 -27 284 -27 279 -1 c 0,8,9
 276 8 276 8 278 46 c 1,10,11
 221 48 221 48 167 65 c 0,12,13
 92 87 92 87 92 126 c 0,14,15
 92 143 92 143 113 146 c 0,16,17
 122 145 122 145 170 117 c 0,18,19
 207 95 207 95 278 95 c 1,20,-1
 278 273 l 1,21,22
 109 292 109 292 109 393 c 0,23,24
 109 513 109 513 278 535 c 1,25,26
 277 546 277 546 277 552 c 0,27,28
 277 559 277 559 277 563 c 0,29,30
 277 609 277 609 306 609 c 0,31,32
 328 609 328 609 333 583 c 0,33,34
 334 571 334 571 333 534 c 1,35,36
 354 532 354 532 375 529 c 128,-1,37
 396 526 396 526 418 524 c 0,38,39
 474 514 474 514 485 485 c 1,40,41
 471 462 471 462 460 462 c 0,42,43
 438 462 438 462 398 471 c 0,44,45
 379 475 379 475 333 483 c 1,46,-1
 333 324 l 1,47,48
 507 292 507 292 507 179 c 0,49,50
 507 118 507 118 451 80 c 0,51,52
 400 47 400 47 333 46 c 1,0,1
240 474 m 0,53,54
 155 452 155 452 155 403 c 0,55,56
 155 390 155 390 161 377 c 1,57,58
 205 340 205 340 240 333 c 0,59,60
 244 332 244 332 253 330 c 128,-1,61
 262 328 262 328 278 325 c 1,62,-1
 278 482 l 1,63,64
 271 480 271 480 262 478 c 128,-1,65
 253 476 253 476 240 474 c 0,53,54
333 272 m 1,66,67
 333 93 l 1,68,69
 373 94 373 94 413 116 c 0,70,71
 460 143 460 143 460 179 c 0,72,73
 460 250 460 250 333 272 c 1,66,67
EndSplineSet
EndChar

StartChar: percent
Encoding: 37 37 8
Width: 600
Flags: W
LayerCount: 2
Fore
SplineSet
152 357 m 0,0,1
 132 357 132 357 115 364.5 c 128,-1,2
 98 372 98 372 85.5 385.5 c 128,-1,3
 73 399 73 399 65.5 416 c 128,-1,4
 58 433 58 433 58 453 c 0,5,6
 58 472 58 472 65.5 489.5 c 128,-1,7
 73 507 73 507 86 520 c 128,-1,8
 99 533 99 533 116 540.5 c 128,-1,9
 133 548 133 548 152 548 c 0,10,11
 195 548 195 548 222.5 521.5 c 128,-1,12
 250 495 250 495 250 452 c 256,13,14
 250 409 250 409 222.5 383 c 128,-1,15
 195 357 195 357 152 357 c 0,0,1
172 -39 m 0,16,17
 163 -57 163 -57 148 -57 c 0,18,19
 123 -57 123 -57 123 -29 c 0,20,21
 123 -22 123 -22 267 289 c 0,22,23
 340 448 340 448 381 532.5 c 128,-1,24
 422 617 422 617 430 628 c 128,-1,25
 438 639 438 639 453 639 c 0,26,27
 465 639 465 639 476 625 c 2,28,-1
 477 623 l 1,29,-1
 477 620 l 2,30,31
 477 613 477 613 337 310 c 0,32,33
 267 158 267 158 226 71 c 128,-1,34
 185 -16 185 -16 172 -39 c 0,16,17
446 32 m 256,35,36
 404 32 404 32 377 58.5 c 128,-1,37
 350 85 350 85 350 127 c 0,38,39
 350 146 350 146 357.5 163.5 c 128,-1,40
 365 181 365 181 378.5 194.5 c 128,-1,41
 392 208 392 208 409 215.5 c 128,-1,42
 426 223 426 223 446 223 c 0,43,44
 465 223 465 223 482.5 215.5 c 128,-1,45
 500 208 500 208 513 195 c 128,-1,46
 526 182 526 182 533.5 164.5 c 128,-1,47
 541 147 541 147 541 127 c 0,48,49
 541 85 541 85 514.5 58.5 c 128,-1,50
 488 32 488 32 446 32 c 256,35,36
154 492 m 0,51,52
 139 492 139 492 126.5 479 c 128,-1,53
 114 466 114 466 114 451 c 0,54,55
 114 435 114 435 126 422.5 c 128,-1,56
 138 410 138 410 154 410 c 0,57,58
 196 410 196 410 196 451 c 0,59,60
 196 468 196 468 183.5 480 c 128,-1,61
 171 492 171 492 154 492 c 0,51,52
448 167 m 0,62,63
 432 167 432 167 419.5 154 c 128,-1,64
 407 141 407 141 407 125 c 0,65,66
 407 108 407 108 419 96 c 128,-1,67
 431 84 431 84 448 84 c 0,68,69
 488 84 488 84 488 125 c 0,70,71
 488 167 488 167 448 167 c 0,62,63
EndSplineSet
EndChar

StartChar: ampersand
Encoding: 38 38 9
Width: 600
Flags: W
LayerCount: 2
Fore
SplineSet
448 68 m 1,0,1
 452 63 452 63 457 56.5 c 128,-1,2
 462 50 462 50 469 40 c 0,3,4
 478 25 478 25 480 10 c 1,5,6
 472 -7 472 -7 454 -7 c 0,7,8
 434 -7 434 -7 415 18 c 0,9,10
 413 20 413 20 411 24.5 c 128,-1,11
 409 29 409 29 405 34 c 1,12,13
 349 -4 349 -4 273 -4 c 0,14,15
 205 -4 205 -4 156 23 c 0,16,17
 97 58 97 58 97 119 c 0,18,19
 97 200 97 200 231 310 c 1,20,21
 220 323 220 323 201 349 c 0,22,23
 159 407 159 407 159 470 c 0,24,25
 159 521 159 521 203 554 c 0,26,27
 244 583 244 583 298 583 c 0,28,29
 356 583 356 583 394 558 c 0,30,31
 439 528 439 528 439 476 c 0,32,33
 439 392 439 392 304 298 c 1,34,-1
 418 114 l 1,35,36
 421 116 421 116 424.5 119.5 c 128,-1,37
 428 123 428 123 432 127 c 0,38,39
 466 163 466 163 476 163 c 0,40,41
 485 163 485 163 494 154.5 c 128,-1,42
 503 146 503 146 503 136 c 0,43,44
 503 117 503 117 448 68 c 1,0,1
286 533 m 1,45,46
 245 516 245 516 238 512 c 0,47,48
 214 497 214 497 214 469 c 0,49,50
 214 427 214 427 275 345 c 1,51,52
 287 353 287 353 304.5 367 c 128,-1,53
 322 381 322 381 345 401 c 0,54,55
 387 440 387 440 387 474 c 0,56,57
 387 530 387 530 286 533 c 1,45,46
260 262 m 1,58,59
 223 236 223 236 192 199 c 0,60,61
 153 152 153 152 153 122 c 0,62,63
 153 84 153 84 197 63 c 0,64,65
 233 45 233 45 274 45 c 0,66,67
 339 45 339 45 372 83 c 1,68,-1
 260 262 l 1,58,59
EndSplineSet
EndChar

StartChar: quotesingle
Encoding: 39 39 10
Width: 600
Flags: W
LayerCount: 2
Fore
SplineSet
333 482 m 1,0,1
 331 464 331 464 329.5 420.5 c 128,-1,2
 328 377 328 377 328 307 c 0,3,4
 328 262 328 262 301 262 c 0,5,6
 271 262 271 262 271 340 c 0,7,8
 271 348 271 348 271 358 c 0,9,10
 271 369 271 369 272 380 c 128,-1,11
 273 391 273 391 273.5 397.5 c 128,-1,12
 274 404 274 404 274 406 c 0,13,14
 274 420 274 420 265 482 c 1,15,16
 246 502 246 502 246 532 c 0,17,18
 246 554 246 554 261.5 569.5 c 128,-1,19
 277 585 277 585 300 585 c 0,20,21
 324 585 324 585 338.5 570 c 128,-1,22
 353 555 353 555 353 532 c 0,23,24
 353 505 353 505 333 482 c 1,0,1
EndSplineSet
EndChar

StartChar: parenleft
Encoding: 40 40 11
Width: 600
Flags: W
LayerCount: 2
Fore
SplineSet
372 -105 m 0,0,1
 363 -105 363 -105 350 -97 c 0,2,3
 278 -49 278 -49 238 60 c 0,4,5
 204 153 204 153 204 254 c 0,6,7
 204 426 204 426 291 545 c 0,8,9
 338 611 338 611 369 615 c 1,10,11
 391 611 391 611 391 589 c 0,12,13
 391 581 391 581 382 571 c 0,14,15
 358 545 358 545 344.5 529.5 c 128,-1,16
 331 514 331 514 327 509 c 0,17,18
 302 479 302 479 287 434 c 0,19,20
 256 350 256 350 256 254 c 0,21,22
 256 60 256 60 380 -57 c 0,23,24
 396 -72 396 -72 396 -83 c 0,25,26
 396 -105 396 -105 372 -105 c 0,0,1
EndSplineSet
EndChar

StartChar: parenright
Encoding: 41 41 12
Width: 600
Flags: W
LayerCount: 2
Fore
SplineSet
248 -99 m 0,0,1
 235 -107 235 -107 226 -107 c 0,2,3
 205 -107 205 -107 205 -87 c 0,4,5
 205 -71 205 -71 218 -57 c 0,6,7
 244 -28 244 -28 257 -13 c 128,-1,8
 270 2 270 2 271 3 c 0,9,10
 284 20 284 20 294 37.5 c 128,-1,11
 304 55 304 55 311 74 c 0,12,13
 342 158 342 158 342 255 c 0,14,15
 342 472 342 472 210 573 c 0,16,17
 204 582 204 582 204 592 c 0,18,19
 204 613 204 613 226 614 c 1,20,-1
 229 615 l 2,21,22
 234 614 234 614 242 609 c 0,23,24
 322 555 322 555 361 451 c 0,25,26
 395 364 395 364 395 253 c 0,27,28
 395 148 395 148 363 58 c 0,29,30
 324 -47 324 -47 248 -99 c 0,0,1
EndSplineSet
EndChar

StartChar: asterisk
Encoding: 42 42 13
Width: 600
Flags: W
LayerCount: 2
Fore
SplineSet
419 271 m 0,0,1
 387 257 387 257 344 238 c 1,2,3
 356 222 356 222 368 206 c 128,-1,4
 380 190 380 190 392 173 c 0,5,6
 429 124 429 124 429 109 c 0,7,8
 429 89 429 89 409 89 c 0,9,10
 399 89 399 89 357 140 c 0,11,12
 346 154 346 154 332.5 171 c 128,-1,13
 319 188 319 188 302 208 c 1,14,15
 294 197 294 197 281.5 181 c 128,-1,16
 269 165 269 165 252 142 c 0,17,18
 221 102 221 102 199 91 c 1,19,20
 178 98 178 98 178 116 c 2,21,-1
 178 120 l 1,22,-1
 179 124 l 1,23,24
 187 133 187 133 197.5 146.5 c 128,-1,25
 208 160 208 160 222 177 c 0,26,27
 246 208 246 208 261 237 c 1,28,29
 241 244 241 244 222 250 c 128,-1,30
 203 256 203 256 184 263 c 0,31,32
 129 285 129 285 122 304 c 1,33,34
 128 325 128 325 142 333 c 1,35,36
 170 330 170 330 207 315 c 0,37,38
 218 310 218 310 235 303.5 c 128,-1,39
 252 297 252 297 275 288 c 1,40,41
 277 311 277 311 275 346 c 2,42,-1
 275 402 l 2,43,44
 275 440 275 440 303 440 c 0,45,46
 328 440 328 440 330 390 c 0,47,48
 329 375 329 375 329 357 c 256,49,50
 329 339 329 339 328 317 c 2,51,-1
 329 290 l 1,52,53
 353 296 353 296 394 314 c 0,54,55
 433 330 433 330 456 335 c 1,56,57
 473 327 473 327 477 306 c 1,58,59
 472 295 472 295 419 271 c 0,0,1
EndSplineSet
EndChar

StartChar: plus
Encoding: 43 43 14
Width: 600
Flags: W
LayerCount: 2
Fore
SplineSet
484 225 m 2,0,1
 321 225 l 1,2,-1
 321 48 l 2,3,4
 321 10 321 10 295 10 c 0,5,6
 266 10 266 10 266 48 c 2,7,-1
 266 225 l 1,8,-1
 115 226 l 2,9,10
 91 226 91 226 91 250 c 0,11,12
 91 276 91 276 119 276 c 2,13,14
 266 276 l 1,15,-1
 266 445 l 2,16,17
 266 457 266 457 275 466 c 128,-1,18
 284 475 284 475 296 475 c 0,19,20
 321 475 321 475 321 446 c 2,21,-1
 321 276 l 1,22,-1
 484 276 l 2,23,24
 508 276 508 276 508 249 c 0,25,26
 508 225 508 225 484 225 c 2,0,1
EndSplineSet
EndChar

StartChar: comma
Encoding: 44 44 15
Width: 600
Flags: W
LayerCount: 2
Fore
SplineSet
368 -18 m 0,0,1
 351 -76 351 -76 324 -95 c 0,2,3
 298 -112 298 -112 237 -116 c 1,4,5
 223 -105 223 -105 223 -89 c 0,6,7
 223 -76 223 -76 234 -62 c 1,8,9
 305 -62 305 -62 315 -13 c 1,10,11
 304 -10 304 -10 290 -4.5 c 128,-1,12
 276 1 276 1 257 9 c 0,13,14
 233 25 233 25 233 59 c 0,15,16
 233 111 233 111 309 111 c 0,17,18
 340 111 340 111 359 83 c 0,19,20
 376 58 376 58 376 26 c 0,21,22
 376 12 376 12 368 -18 c 0,0,1
EndSplineSet
EndChar

StartChar: hyphen
Encoding: 45 45 16
Width: 600
Flags: W
LayerCount: 2
Fore
SplineSet
471 233 m 0,0,1
 464 228 464 228 454 228 c 2,2,-1
 146 228 l 2,3,4
 122 228 122 228 122 250 c 0,5,6
 122 275 122 275 149 275 c 2,7,-1
 451 275 l 2,8,9
 477 275 477 275 477 250 c 0,10,11
 477 243 477 243 471 233 c 0,0,1
EndSplineSet
EndChar

StartChar: period
Encoding: 46 46 17
Width: 600
Flags: W
LayerCount: 2
Fore
SplineSet
300 -29 m 0,0,1
 270 -29 270 -29 249 -8.5 c 128,-1,2
 228 12 228 12 228 42 c 0,3,4
 228 71 228 71 249.5 93.5 c 128,-1,5
 271 116 271 116 300 116 c 0,6,7
 330 116 330 116 351 94 c 128,-1,8
 372 72 372 72 372 42 c 0,9,10
 372 11 372 11 351.5 -9 c 128,-1,11
 331 -29 331 -29 300 -29 c 0,0,1
EndSplineSet
EndChar

StartChar: slash
Encoding: 47 47 18
Width: 600
Flags: W
LayerCount: 2
Fore
SplineSet
470 608 m 2,0,1
 174 -42 l 2,2,3
 167 -61 167 -61 152 -61 c 0,4,5
 142 -61 142 -61 134 -52 c 128,-1,6
 126 -43 126 -43 126 -32 c 0,7,8
 126 -23 126 -23 267 291 c 0,9,10
 409 607 409 607 425 629 c 0,11,12
 433 640 433 640 447 640 c 256,13,14
 461 640 461 640 472 625 c 1,15,-1
 473 619 l 2,16,17
 471 613 471 613 470 608 c 2,0,1
EndSplineSet
EndChar

StartChar: zero
Encoding: 48 48 19
Width: 600
Flags: W
LayerCount: 2
Fore
SplineSet
296 -3 m 0,0,1
 212 -3 212 -3 163 99 c 0,2,3
 123 182 123 182 123 278 c 0,4,5
 123 368 123 368 165 448 c 0,6,7
 214 544 214 544 296 544 c 0,8,9
 382 544 382 544 433 451 c 0,10,11
 476 374 476 374 476 279 c 0,12,13
 476 182 476 182 435 98 c 0,14,15
 384 -3 384 -3 296 -3 c 0,0,1
295 493 m 0,16,17
 233 493 233 493 199 412 c 0,18,19
 174 352 174 352 174 279 c 0,20,21
 174 203 174 203 199 137 c 0,22,23
 233 46 233 46 296 46 c 0,24,25
 363 46 363 46 398 135 c 0,26,27
 424 201 424 201 424 278 c 0,28,29
 424 353 424 353 396 413 c 0,30,31
 361 493 361 493 295 493 c 0,16,17
EndSplineSet
EndChar

StartChar: one
Encoding: 49 49 20
Width: 600
Flags: W
LayerCount: 2
Fore
SplineSet
448 0 m 2,0,1
 144 0 l 2,2,3
 121 0 121 0 121 25 c 0,4,5
 121 52 121 52 143 52 c 2,6,-1
 277 52 l 1,7,-1
 277 427 l 1,8,9
 220 373 220 373 161 373 c 0,10,11
 138 373 138 373 138 397 c 0,12,13
 138 406 138 406 144 417 c 1,14,15
 203 434 203 434 236 462 c 0,16,17
 261 484 261 484 297 544 c 1,18,19
 329 542 329 542 329 506 c 2,20,-1
 329 52 l 1,21,-1
 446 52 l 2,22,23
 478 52 478 52 478 25 c 0,24,25
 478 0 478 0 448 0 c 2,0,1
EndSplineSet
EndChar

StartChar: two
Encoding: 50 50 21
Width: 600
Flags: W
LayerCount: 2
Fore
SplineSet
451 0 m 2,0,1
 141 0 l 2,2,3
 126 0 126 0 126 16 c 0,4,5
 126 49 126 49 269 200 c 0,6,7
 412 352 412 352 412 394 c 0,8,9
 412 435 412 435 369 463 c 0,10,11
 331 487 331 487 288 487 c 0,12,13
 234 487 234 487 210 454 c 0,14,15
 201 435 201 435 192 416.5 c 128,-1,16
 183 398 183 398 173 379 c 0,17,18
 164 360 164 360 150 360 c 0,19,20
 141 360 141 360 133.5 368 c 128,-1,21
 126 376 126 376 126 385 c 0,22,23
 126 447 126 447 173 494 c 0,24,25
 221 542 221 542 283 542 c 0,26,27
 355 542 355 542 410 502 c 0,28,29
 472 458 472 458 472 392 c 0,30,31
 472 353 472 353 434 307 c 2,32,-1
 214 50 l 1,33,-1
 448 50 l 2,34,35
 466 50 466 50 473 19 c 1,36,37
 470 0 470 0 451 0 c 2,0,1
EndSplineSet
EndChar

StartChar: three
Encoding: 51 51 22
Width: 600
Flags: W
LayerCount: 2
Fore
SplineSet
286 -3 m 0,0,1
 217 -3 217 -3 177 31 c 0,2,3
 133 69 133 69 133 134 c 0,4,5
 133 146 133 146 137 155 c 0,6,7
 146 164 146 164 161 164 c 0,8,9
 169 164 169 164 179 133 c 0,10,11
 183 122 183 122 186 112 c 128,-1,12
 189 102 189 102 193 92 c 0,13,14
 201 74 201 74 206 69 c 0,15,16
 231 44 231 44 296 44 c 0,17,18
 346 44 346 44 380 75 c 0,19,20
 416 106 416 106 416 156 c 0,21,22
 416 212 416 212 386 236 c 0,23,24
 365 254 365 254 306 262 c 0,25,26
 296 263 296 263 281.5 264.5 c 128,-1,27
 267 266 267 266 248 269 c 1,28,-1
 240 274 l 2,29,30
 239 279 239 279 238.5 282.5 c 128,-1,31
 238 286 238 286 238 289 c 0,32,33
 238 307 238 307 267 312 c 1,34,35
 266 311 266 311 313 311 c 0,36,37
 355 311 355 311 379 336 c 128,-1,38
 403 361 403 361 403 403 c 0,39,40
 403 440 403 440 373 466 c 0,41,42
 344 489 344 489 305 489 c 0,43,44
 267 489 267 489 245.5 476.5 c 128,-1,45
 224 464 224 464 205 434 c 0,46,47
 190 410 190 410 175 410 c 0,48,49
 156 410 156 410 155 434 c 2,50,-1
 156 442 l 2,51,52
 157 458 157 458 180 484 c 0,53,54
 190 497 190 497 199.5 505.5 c 128,-1,55
 209 514 209 514 217 519 c 0,56,57
 252 539 252 539 307 539 c 0,58,59
 368 539 368 539 410 497 c 0,60,61
 453 457 453 457 453 395 c 0,62,63
 453 330 453 330 398 291 c 1,64,65
 466 240 466 240 466 166 c 0,66,67
 466 85 466 85 416 40 c 0,68,69
 369 -3 369 -3 286 -3 c 0,0,1
EndSplineSet
EndChar

StartChar: four
Encoding: 52 52 23
Width: 600
Flags: W
LayerCount: 2
Fore
SplineSet
477 156 m 2,0,1
 378 156 l 1,2,-1
 378 19 l 2,3,4
 378 -4 378 -4 354 -4 c 0,5,6
 327 -4 327 -4 327 19 c 2,7,-1
 327 156 l 1,8,-1
 129 156 l 2,9,10
 105 156 105 156 105 179 c 2,11,12
 105 179 105 179 108 203 c 128,-1,13
 111 227 111 227 116 275 c 0,14,15
 121 321 121 321 123.5 383 c 128,-1,16
 126 445 126 445 126 526 c 0,17,18
 126 536 126 536 135.5 544 c 128,-1,19
 145 552 145 552 155 552 c 0,20,21
 181 552 181 552 181 488 c 0,22,23
 181 409 181 409 176 339.5 c 128,-1,24
 171 270 171 270 161 207 c 1,25,-1
 327 207 l 1,26,-1
 327 445 l 2,27,28
 327 466 327 466 354 466 c 0,29,30
 378 466 378 466 378 445 c 2,31,-1
 378 207 l 1,32,-1
 477 207 l 2,33,34
 494 207 494 207 494 180 c 0,35,36
 494 156 494 156 477 156 c 2,0,1
EndSplineSet
EndChar

StartChar: five
Encoding: 53 53 24
Width: 600
Flags: W
LayerCount: 2
Fore
SplineSet
293 -3 m 0,0,1
 214 -3 214 -3 177 25 c 0,2,3
 158 38 158 38 144 63 c 0,4,5
 128 88 128 88 128 109 c 0,6,7
 128 116 128 116 136 121 c 128,-1,8
 144 126 144 126 151 126 c 0,9,10
 165 126 165 126 176 112 c 0,11,12
 180 106 180 106 184 99.5 c 128,-1,13
 188 93 188 93 193 86 c 0,14,15
 221 44 221 44 296 44 c 0,16,17
 418 44 418 44 418 184 c 0,18,19
 418 232 418 232 377 264 c 0,20,21
 340 292 340 292 290 292 c 0,22,23
 261 292 261 292 236.5 281.5 c 128,-1,24
 212 271 212 271 189 259 c 0,25,26
 175 253 175 253 164 253 c 0,27,28
 152 253 152 253 152 275 c 2,29,-1
 151 502 l 1,30,31
 159 534 159 534 189 534 c 2,32,-1
 430 534 l 2,33,34
 453 534 453 534 453 507 c 0,35,36
 453 482 453 482 430 482 c 2,37,-1
 203 482 l 1,38,-1
 203 333 l 1,39,40
 243 348 243 348 293 348 c 0,41,42
 364 348 364 348 417 301 c 0,43,44
 472 252 472 252 472 183 c 0,45,46
 472 -3 472 -3 293 -3 c 0,0,1
EndSplineSet
EndChar

StartChar: six
Encoding: 54 54 25
Width: 600
Flags: W
LayerCount: 2
Fore
SplineSet
306 -6 m 0,0,1
 197 -6 197 -6 158 66 c 0,2,3
 130 118 130 118 130 238 c 0,4,5
 130 536 130 536 310 536 c 0,6,7
 341 536 341 536 392 521 c 0,8,9
 452 501 452 501 452 481 c 0,10,11
 452 464 452 464 434 452 c 1,12,-1
 427 451 l 1,13,14
 416 454 416 454 371 472 c 0,15,16
 341 484 341 484 305 484 c 0,17,18
 194 484 194 484 189 290 c 1,19,20
 219 314 219 314 246 322 c 0,21,22
 265 328 265 328 308 328 c 0,23,24
 378 328 378 328 423 280 c 0,25,26
 469 234 469 234 469 163 c 0,27,28
 469 86 469 86 426 40 c 128,-1,29
 383 -6 383 -6 306 -6 c 0,0,1
300 277 m 0,30,31
 250 277 250 277 220 244 c 0,32,33
 193 212 193 212 193 162 c 0,34,35
 193 115 193 115 224 80 c 0,36,37
 256 45 256 45 302 45 c 0,38,39
 353 45 353 45 382.5 77 c 128,-1,40
 412 109 412 109 412 160 c 256,41,42
 412 211 412 211 381.5 244 c 128,-1,43
 351 277 351 277 300 277 c 0,30,31
EndSplineSet
EndChar

StartChar: seven
Encoding: 55 55 26
Width: 600
Flags: W
LayerCount: 2
Fore
SplineSet
375 277 m 2,0,1
 261 12 l 1,2,3
 243 -9 243 -9 218 -9 c 0,4,5
 201 -9 201 -9 187 12 c 1,6,7
 201 23 201 23 280 226 c 2,8,-1
 384 482 l 1,9,-1
 183 482 l 1,10,11
 184 467 184 467 184.5 458 c 128,-1,12
 185 449 185 449 185 446 c 0,13,14
 185 402 185 402 157 402 c 0,15,16
 132 402 132 402 132 433 c 2,17,-1
 132 519 l 2,18,19
 132 524 132 524 141 529 c 128,-1,20
 150 534 150 534 157 534 c 2,21,-1
 444 534 l 2,22,23
 463 534 463 534 467 509 c 1,24,25
 461 480 461 480 375 277 c 2,0,1
EndSplineSet
EndChar

StartChar: eight
Encoding: 56 56 27
Width: 600
Flags: W
LayerCount: 2
Fore
SplineSet
297 -1 m 0,0,1
 224 -1 224 -1 178 31 c 0,2,3
 128 69 128 69 128 138 c 0,4,5
 128 182 128 182 146 221 c 0,6,7
 165 265 165 265 202 285 c 1,8,9
 143 326 143 326 143 402 c 0,10,11
 143 465 143 465 190 503 c 0,12,13
 234 538 234 538 298 538 c 256,14,15
 362 538 362 538 406 506 c 0,16,17
 453 471 453 471 453 409 c 0,18,19
 453 330 453 330 393 287 c 1,20,21
 431 267 431 267 451 228 c 0,22,23
 471 190 471 190 471 149 c 0,24,25
 471 -1 471 -1 297 -1 c 0,0,1
298 488 m 0,26,27
 258 488 258 488 231 463 c 128,-1,28
 204 438 204 438 204 399 c 0,29,30
 204 358 204 358 231 336 c 0,31,32
 257 316 257 316 297 316 c 256,33,34
 337 316 337 316 365 338.5 c 128,-1,35
 393 361 393 361 393 401 c 0,36,37
 393 442 393 442 366 466 c 0,38,39
 341 488 341 488 298 488 c 0,26,27
298 261 m 0,40,41
 250 261 250 261 218 230 c 128,-1,42
 186 199 186 199 186 151 c 0,43,44
 186 102 186 102 219 74 c 0,45,46
 251 48 251 48 301 48 c 0,47,48
 350 48 350 48 381 76.5 c 128,-1,49
 412 105 412 105 412 154 c 0,50,51
 412 178 412 178 403 197.5 c 128,-1,52
 394 217 394 217 379 231 c 128,-1,53
 364 245 364 245 343 253 c 128,-1,54
 322 261 322 261 298 261 c 0,40,41
EndSplineSet
EndChar

StartChar: nine
Encoding: 57 57 28
Width: 600
Flags: W
LayerCount: 2
Fore
SplineSet
370 10 m 0,0,1
 337 -4 337 -4 287 -4 c 0,2,3
 255 -4 255 -4 207 8 c 0,4,5
 148 25 148 25 148 47 c 0,6,7
 148 71 148 71 174 79 c 1,8,-1
 180 77 l 1,9,10
 233 45 233 45 293 45 c 0,11,12
 334 45 334 45 351 59 c 0,13,14
 378 82 378 82 395 136 c 0,15,16
 410 185 410 185 409 225 c 2,17,18
 408 240 l 1,19,20
 371 203 371 203 317 203 c 0,21,22
 131 203 131 203 131 369 c 0,23,24
 131 439 131 439 176 489 c 0,25,26
 223 539 223 539 292 539 c 0,27,28
 403 539 403 539 442 458 c 0,29,30
 468 401 468 401 468 278 c 0,31,32
 468 200 468 200 448 128 c 0,33,34
 423 34 423 34 370 10 c 0,0,1
295 486 m 0,35,36
 250 486 250 486 218 451 c 0,37,38
 187 417 187 417 187 370 c 0,39,40
 187 316 187 316 217 284.5 c 128,-1,41
 247 253 247 253 301 253 c 0,42,43
 351 253 351 253 380 286 c 0,44,45
 406 317 406 317 406 367 c 0,46,47
 406 413 406 413 374 450 c 0,48,49
 342 486 342 486 295 486 c 0,35,36
EndSplineSet
EndChar

StartChar: colon
Encoding: 58 58 29
Width: 600
Flags: W
LayerCount: 2
Fore
SplineSet
294 220 m 0,0,1
 266 220 266 220 250 242 c 0,2,3
 233 264 233 264 233 291 c 256,4,5
 233 318 233 318 249 340 c 0,6,7
 267 363 267 363 294 363 c 0,8,9
 325 363 325 363 345.5 341.5 c 128,-1,10
 366 320 366 320 366 291 c 256,11,12
 366 262 366 262 344.5 241 c 128,-1,13
 323 220 323 220 294 220 c 0,0,1
294 -12 m 0,14,15
 269 -12 269 -12 251 7 c 128,-1,16
 233 26 233 26 233 50 c 0,17,18
 233 64 233 64 237.5 77 c 128,-1,19
 242 90 242 90 250.5 100.5 c 128,-1,20
 259 111 259 111 270 117.5 c 128,-1,21
 281 124 281 124 294 124 c 0,22,23
 325 124 325 124 345.5 102 c 128,-1,24
 366 80 366 80 366 50 c 0,25,26
 366 24 366 24 344 6 c 128,-1,27
 322 -12 322 -12 294 -12 c 0,14,15
EndSplineSet
EndChar

StartChar: semicolon
Encoding: 59 59 30
Width: 600
Flags: W
LayerCount: 2
Fore
SplineSet
297 219 m 0,0,1
 269 219 269 219 251 240 c 128,-1,2
 233 261 233 261 233 290 c 0,3,4
 233 303 233 303 238 316 c 128,-1,5
 243 329 243 329 252 339 c 128,-1,6
 261 349 261 349 272.5 355.5 c 128,-1,7
 284 362 284 362 297 362 c 0,8,9
 327 362 327 362 347.5 340.5 c 128,-1,10
 368 319 368 319 368 290 c 0,11,12
 368 259 368 259 347.5 239 c 128,-1,13
 327 219 327 219 297 219 c 0,0,1
369 -8 m 0,14,15
 353 -66 353 -66 325 -86 c 0,16,17
 300 -105 300 -105 238 -109 c 1,18,19
 224 -98 224 -98 224 -82 c 0,20,21
 224 -68 224 -68 234 -55 c 1,22,23
 239 -56 239 -56 241 -56 c 0,24,25
 244 -56 244 -56 245 -56 c 0,26,27
 305 -56 305 -56 315 -4 c 1,28,29
 233 15 233 15 233 66 c 0,30,31
 233 121 233 121 309 121 c 0,32,33
 341 121 341 121 361 91 c 0,34,35
 376 65 376 65 376 31 c 0,36,37
 376 16 376 16 369 -8 c 0,14,15
EndSplineSet
EndChar

StartChar: less
Encoding: 60 60 31
Width: 600
Flags: W
LayerCount: 2
Fore
SplineSet
439 361 m 2,0,1
 231 250 l 1,2,-1
 442 131 l 2,3,4
 458 122 458 122 458 107 c 0,5,6
 458 95 458 95 450 84.5 c 128,-1,7
 442 74 442 74 431 74 c 256,8,9
 420 74 420 74 299 143 c 0,10,11
 247 173 247 173 211 194 c 128,-1,12
 175 215 175 215 155 228 c 0,13,14
 140 238 140 238 140 250 c 0,15,16
 140 263 140 263 155 274 c 0,17,18
 177 288 177 288 212 308.5 c 128,-1,19
 247 329 247 329 296 356 c 0,20,21
 412 421 412 421 429 421 c 0,22,23
 441 421 441 421 450.5 412 c 128,-1,24
 460 403 460 403 460 391 c 0,25,26
 460 373 460 373 439 361 c 2,0,1
EndSplineSet
EndChar

StartChar: equal
Encoding: 61 61 32
Width: 600
Flags: W
LayerCount: 2
Fore
SplineSet
451 307 m 2,0,1
 149 307 l 2,2,3
 122 307 122 307 122 333 c 0,4,5
 122 357 122 357 149 357 c 2,6,-1
 451 357 l 2,7,8
 478 357 478 357 478 331 c 0,9,10
 478 307 478 307 451 307 c 2,0,1
454 142 m 2,11,-1
 146 142 l 2,12,13
 125 142 125 142 125 169 c 0,14,15
 125 177 125 177 131.5 184.5 c 128,-1,16
 138 192 138 192 146 192 c 2,17,-1
 451 192 l 2,18,19
 477 192 477 192 477 166 c 0,20,21
 477 142 477 142 454 142 c 2,11,-1
EndSplineSet
EndChar

StartChar: greater
Encoding: 62 62 33
Width: 600
Flags: W
LayerCount: 2
Fore
SplineSet
454 236 m 0,0,1
 445 226 445 226 314 152 c 128,-1,2
 183 78 183 78 169 74 c 1,3,4
 142 81 142 81 142 104 c 0,5,6
 142 122 142 122 157 131 c 2,7,-1
 367 250 l 1,8,-1
 159 361 l 2,9,10
 139 372 139 372 139 392 c 0,11,12
 139 403 139 403 148 412 c 128,-1,13
 157 421 157 421 169 421 c 0,14,15
 198 421 198 421 443 274 c 0,16,17
 460 263 460 263 460 249 c 0,18,19
 460 240 460 240 454 236 c 0,0,1
EndSplineSet
EndChar

StartChar: question
Encoding: 63 63 34
Width: 600
Flags: W
LayerCount: 2
Fore
SplineSet
319 255 m 0,0,1
 266 208 266 208 256 179 c 0,2,3
 239 137 239 137 219 137 c 0,4,5
 209 137 209 137 201 148 c 0,6,7
 195 158 195 158 195 170 c 0,8,9
 195 209 195 209 260 272 c 0,10,11
 285 294 285 294 310 315.5 c 128,-1,12
 335 337 335 337 361 359 c 0,13,14
 395 390 395 390 401 407 c 0,15,16
 408 422 408 422 408 447 c 0,17,18
 408 464 408 464 377 479 c 0,19,20
 351 492 351 492 331 492 c 0,21,22
 308 492 308 492 281 479 c 0,23,24
 238 459 238 459 232 457 c 0,25,26
 203 459 203 459 203 486 c 0,27,28
 203 494 203 494 208 502 c 1,29,30
 275 542 275 542 326 542 c 0,31,32
 385 542 385 542 420 518 c 0,33,34
 462 489 462 489 462 436 c 0,35,36
 462 388 462 388 410 335 c 0,37,38
 387 315 387 315 364.5 295 c 128,-1,39
 342 275 342 275 319 255 c 0,0,1
195 -39 m 0,40,41
 173 -39 173 -39 155.5 -23.5 c 128,-1,42
 138 -8 138 -8 138 12 c 0,43,44
 138 30 138 30 150.5 46 c 128,-1,45
 163 62 163 62 181 62 c 0,46,47
 207 62 207 62 223 49 c 0,48,49
 242 34 242 34 242 10 c 0,50,51
 242 -9 242 -9 228 -24 c 128,-1,52
 214 -39 214 -39 195 -39 c 0,40,41
EndSplineSet
EndChar

StartChar: at
Encoding: 64 64 35
Width: 600
Flags: W
LayerCount: 2
Fore
SplineSet
489 161 m 0,0,1
 449 123 449 123 421 123 c 0,2,3
 397 123 397 123 375 147 c 1,4,5
 339 129 339 129 302 129 c 0,6,7
 239 129 239 129 199 180 c 0,8,9
 160 229 160 229 160 292 c 0,10,11
 160 325 160 325 170.5 352.5 c 128,-1,12
 181 380 181 380 199.5 400 c 128,-1,13
 218 420 218 420 244.5 431.5 c 128,-1,14
 271 443 271 443 304 443 c 0,15,16
 310 443 310 443 361 430 c 0,17,18
 371 427 371 427 382 427 c 1,19,20
 395 440 395 440 413 440 c 1,21,22
 427 431 427 431 427 416 c 0,23,24
 427 391 427 391 414 349 c 128,-1,25
 401 307 401 307 401 282 c 0,26,27
 401 225 401 225 411 182 c 1,28,-1
 422 174 l 1,29,-1
 423 174 l 2,30,31
 464 174 464 174 485 258 c 0,32,33
 500 316 500 316 500 373 c 0,34,35
 500 440 500 440 450 487 c 0,36,37
 401 533 401 533 332 533 c 0,38,39
 217 533 217 533 157 457 c 0,40,41
 103 388 103 388 103 271 c 0,42,43
 103 188 103 188 159 120 c 0,44,45
 217 50 217 50 302 50 c 0,46,47
 332 50 332 50 377 64 c 0,48,49
 396 71 396 71 414 77 c 128,-1,50
 432 83 432 83 451 90 c 0,51,52
 471 97 471 97 480 97 c 0,53,54
 503 97 503 97 507 75 c 1,55,56
 499 45 499 45 427 21 c 0,57,58
 365 0 365 0 324 0 c 0,59,60
 199 0 199 0 126 79 c 0,61,62
 54 155 54 155 54 280 c 0,63,64
 54 419 54 419 128 499 c 0,65,66
 203 581 203 581 340 581 c 0,67,68
 437 581 437 581 492 520 c 0,69,70
 545 461 545 461 545 362 c 0,71,72
 545 215 545 215 489 161 c 0,0,1
310 387 m 0,73,74
 265 387 265 387 239 357.5 c 128,-1,75
 213 328 213 328 213 283 c 0,76,77
 213 249 213 249 238 214 c 0,78,79
 266 175 266 175 298 175 c 0,80,81
 319 175 319 175 354 190 c 1,82,83
 348 218 348 218 348 254 c 2,84,-1
 348 287 l 2,85,86
 348 334 348 334 363 372 c 1,87,88
 340 387 340 387 310 387 c 0,73,74
EndSplineSet
EndChar

StartChar: A
Encoding: 65 65 36
Width: 600
Flags: W
LayerCount: 2
Fore
SplineSet
517 1 m 2,0,1
 347 1 l 2,2,3
 332 1 332 1 332 26 c 0,4,5
 332 49 332 49 356 54 c 0,6,7
 358 54 358 54 360.5 54.5 c 128,-1,8
 363 55 363 55 368 55 c 0,9,10
 374 55 374 55 383.5 54.5 c 128,-1,11
 393 54 393 54 404 53 c 1,12,-1
 404 165 l 1,13,-1
 235 165 l 1,14,-1
 175 53 l 1,15,16
 197 56 197 56 204 56 c 0,17,18
 233 56 233 56 233 33 c 0,19,20
 233 3 233 3 209 0 c 2,21,-1
 84 0 l 2,22,23
 62 1 62 1 62 26 c 0,24,25
 62 49 62 49 84 53 c 0,26,27
 86 53 86 53 89 53.5 c 128,-1,28
 92 54 92 54 97 54 c 256,29,30
 102 54 102 54 108.5 53.5 c 128,-1,31
 115 53 115 53 123 53 c 1,32,-1
 376 563 l 2,33,34
 388 587 388 587 424 587 c 0,35,36
 457 587 457 587 457 563 c 2,37,-1
 457 53 l 1,38,39
 460 53 460 53 464 53 c 0,40,41
 469 53 469 53 476 54 c 0,42,43
 482 55 482 55 486 55 c 0,44,45
 491 55 491 55 495 55 c 0,46,47
 537 55 537 55 537 26 c 0,48,49
 537 1 537 1 517 1 c 2,0,1
405 501 m 1,50,-1
 406 501 l 1,51,52
 377 441 377 441 360 404.5 c 128,-1,53
 343 368 343 368 329 341 c 128,-1,54
 315 314 315 314 301 288.5 c 128,-1,55
 287 263 287 263 266 226 c 1,56,-1
 405 226 l 1,57,-1
 405 501 l 1,50,-1
EndSplineSet
EndChar

StartChar: B
Encoding: 66 66 37
Width: 600
Flags: W
LayerCount: 2
Fore
SplineSet
447 293 m 1,0,1
 511 247 511 247 511 167 c 0,2,3
 511 107 511 107 477 61 c 0,4,5
 442 13 442 13 385 5 c 0,6,7
 365 3 365 3 344.5 1.5 c 128,-1,8
 324 0 324 0 304 0 c 2,9,-1
 78 0 l 2,10,11
 58 0 58 0 58 23 c 0,12,13
 58 45 58 45 82 50 c 0,14,15
 90 52 90 52 123 50 c 1,16,17
 231 530 l 1,18,19
 210 528 210 528 199.5 527 c 128,-1,20
 189 526 189 526 189 526 c 2,21,22
 151 526 151 526 151 554 c 0,23,24
 151 563 151 563 161 572 c 128,-1,25
 171 581 171 581 179 581 c 2,26,-1
 312 581 l 2,27,28
 412 581 412 581 465 557 c 0,29,30
 541 523 541 523 541 437 c 0,31,32
 541 348 541 348 447 293 c 1,0,1
341 528 m 0,33,34
 330 529 330 529 315 529 c 0,35,36
 301 529 301 529 282 530 c 1,37,-1
 236 326 l 1,38,39
 245 326 245 326 256 326 c 0,40,41
 268 326 268 326 282 325 c 0,42,43
 299 324 299 324 310 324 c 256,44,45
 321 324 321 324 326 324 c 0,46,47
 390 324 390 324 436 352 c 0,48,49
 490 385 490 385 490 445 c 0,50,51
 490 523 490 523 341 528 c 0,33,34
310 271 m 2,52,-1
 224 271 l 1,53,-1
 175 51 l 1,54,55
 250 48 250 48 255 48 c 0,56,57
 345 48 345 48 388 65 c 0,58,59
 456 94 456 94 456 171 c 0,60,61
 456 271 456 271 310 271 c 2,52,-1
EndSplineSet
EndChar

StartChar: C
Encoding: 67 67 38
Width: 600
Flags: W
LayerCount: 2
Fore
SplineSet
519 525 m 0,0,1
 504 508 504 508 504 483 c 0,2,3
 504 477 504 477 504.5 467 c 128,-1,4
 505 457 505 457 506 446.5 c 128,-1,5
 507 436 507 436 507.5 426.5 c 128,-1,6
 508 417 508 417 508 411 c 0,7,8
 508 368 508 368 486 368 c 256,9,10
 464 368 464 368 460 402 c 1,11,-1
 460 455 l 2,12,13
 460 530 460 530 365 530 c 0,14,15
 258 530 258 530 186 425 c 0,16,17
 122 333 122 333 122 221 c 0,18,19
 122 146 122 146 156 100 c 0,20,21
 195 47 195 47 267 47 c 0,22,23
 310 47 310 47 351 85 c 0,24,25
 358 92 358 92 373.5 110 c 128,-1,26
 389 128 389 128 413 157 c 0,27,28
 428 176 428 176 434 176 c 0,29,30
 457 176 457 176 457 154 c 0,31,32
 457 123 457 123 414 76 c 0,33,34
 396 56 396 56 378.5 40.5 c 128,-1,35
 361 25 361 25 344 15 c 0,36,37
 310 -4 310 -4 262 -4 c 0,38,39
 167 -4 167 -4 114 61 c 0,40,41
 66 121 66 121 66 220 c 0,42,43
 66 355 66 355 145 464 c 0,44,45
 230 584 230 584 362 584 c 0,46,47
 408 584 408 584 470 549 c 1,48,49
 474 552 474 552 490 566 c 0,50,51
 500 576 500 576 510 576 c 0,52,53
 533 576 533 576 533 553 c 0,54,55
 533 542 533 542 519 525 c 0,0,1
EndSplineSet
EndChar

StartChar: D
Encoding: 68 68 39
Width: 600
Flags: W
LayerCount: 2
Fore
SplineSet
208 0 m 2,0,1
 60 0 l 2,2,3
 33 0 33 0 33 24 c 0,4,5
 33 45 33 45 62 50 c 0,6,7
 75 53 75 53 112 50 c 1,8,-1
 220 529 l 1,9,10
 190 526 190 526 183 526 c 0,11,12
 145 526 145 526 145 553 c 0,13,14
 145 577 145 577 190 582 c 1,15,16
 185 581 185 581 202 581 c 0,17,18
 220 581 220 581 260 581 c 0,19,20
 413 581 413 581 479 542 c 0,21,22
 567 490 567 490 567 346 c 0,23,24
 567 193 567 193 464 96 c 0,25,26
 364 2 364 2 208 0 c 2,0,1
271 529 m 1,27,-1
 162 49 l 1,28,29
 325 50 325 50 413 125 c 0,30,31
 511 205 511 205 511 363 c 0,32,33
 511 466 511 466 435 503 c 0,34,35
 384 528 384 528 271 529 c 1,27,-1
EndSplineSet
EndChar

StartChar: E
Encoding: 69 69 40
Width: 600
Flags: W
LayerCount: 2
Fore
SplineSet
514 422 m 2,0,1
 509 401 509 401 487 401 c 0,2,3
 480 401 480 401 473 407 c 128,-1,4
 466 413 466 413 466 420 c 0,5,6
 466 424 466 424 475 471 c 2,7,-1
 488 530 l 1,8,-1
 276 530 l 1,9,-1
 226 324 l 1,10,-1
 319 323 l 1,11,12
 321 331 321 331 323.5 343 c 128,-1,13
 326 355 326 355 330 372 c 0,14,15
 341 398 341 398 362 398 c 0,16,17
 369 398 369 398 376 393 c 1,18,-1
 378 388 l 1,19,-1
 378 385 l 2,20,21
 378 355 378 355 338 213 c 0,22,23
 333 195 333 195 314 195 c 256,24,25
 295 195 295 195 295 219 c 0,26,27
 295 240 295 240 308 273 c 1,28,-1
 216 272 l 1,29,-1
 160 51 l 1,30,-1
 389 51 l 1,31,-1
 411 150 l 2,32,33
 415 169 415 169 443 169 c 0,34,35
 452 169 452 169 460 164 c 1,36,-1
 464 155 l 1,37,38
 459 140 459 140 454 120.5 c 128,-1,39
 449 101 449 101 444 78 c 2,40,-1
 429 0 l 1,41,-1
 73 0 l 2,42,43
 50 0 50 0 50 25 c 0,44,45
 50 48 50 48 72 52 c 0,46,47
 76 53 76 53 86.5 52.5 c 128,-1,48
 97 52 97 52 116 51 c 1,49,-1
 224 530 l 1,50,51
 222 530 222 530 216 529.5 c 128,-1,52
 210 529 210 529 199 528 c 128,-1,53
 188 527 188 527 179 526.5 c 128,-1,54
 170 526 170 526 163 527 c 0,55,56
 121 528 121 528 121 549 c 0,57,58
 121 561 121 561 129.5 571 c 128,-1,59
 138 581 138 581 149 581 c 2,60,-1
 550 581 l 1,61,-1
 514 422 l 2,0,1
EndSplineSet
EndChar

StartChar: F
Encoding: 70 70 41
Width: 600
Flags: W
LayerCount: 2
Fore
SplineSet
528 432 m 2,0,1
 520 405 520 405 501 405 c 0,2,3
 478 405 478 405 478 426 c 0,4,5
 478 443 478 443 487 476 c 0,6,7
 491 494 491 494 502 530 c 1,8,-1
 266 530 l 1,9,-1
 217 315 l 1,10,-1
 303 315 l 1,11,12
 304 332 304 332 312 367 c 0,13,14
 321 393 321 393 347 393 c 0,15,16
 354 393 354 393 362 386 c 1,17,-1
 366 378 l 1,18,-1
 366 374 l 1,19,-1
 324 198 l 2,20,21
 319 180 319 180 298 180 c 0,22,23
 291 180 291 180 283.5 186.5 c 128,-1,24
 276 193 276 193 276 200 c 0,25,26
 276 204 276 204 283 229 c 2,27,-1
 293 265 l 1,28,-1
 206 265 l 1,29,-1
 157 51 l 1,30,-1
 271 51 l 2,31,32
 300 51 300 51 300 25 c 0,33,34
 300 0 300 0 272 0 c 2,35,-1
 57 0 l 2,36,37
 38 0 38 0 38 25 c 0,38,39
 38 47 38 47 61 52 c 0,40,41
 65 53 65 53 76 52.5 c 128,-1,42
 87 52 87 52 106 51 c 1,43,-1
 213 530 l 1,44,-1
 131 530 l 2,45,46
 117 530 117 530 117 551 c 0,47,48
 117 582 117 582 140 582 c 2,49,-1
 562 582 l 1,50,-1
 528 432 l 2,0,1
EndSplineSet
EndChar

StartChar: G
Encoding: 71 71 42
Width: 600
Flags: W
LayerCount: 2
Fore
SplineSet
534 549 m 2,0,1
 527 528 527 528 519 495 c 128,-1,2
 511 462 511 462 500 417 c 0,3,4
 496 395 496 395 473 395 c 0,5,6
 464 395 464 395 456.5 406.5 c 128,-1,7
 449 418 449 418 449 429 c 0,8,9
 449 442 449 442 453 462 c 0,10,11
 455 473 455 473 456 482 c 128,-1,12
 457 491 457 491 457 496 c 0,13,14
 457 512 457 512 412 523 c 0,15,16
 396 527 396 527 381.5 528.5 c 128,-1,17
 367 530 367 530 353 530 c 0,18,19
 248 530 248 530 179 420 c 0,20,21
 118 325 118 325 118 214 c 0,22,23
 118 43 118 43 240 43 c 0,24,25
 331 43 331 43 386 203 c 1,26,27
 370 201 370 201 360.5 200 c 128,-1,28
 351 199 351 199 348 199 c 0,29,30
 310 199 310 199 310 228 c 0,31,32
 310 255 310 255 327 255 c 2,33,-1
 514 255 l 2,34,35
 534 255 534 255 534 228 c 0,36,37
 534 203 534 203 499 200 c 0,38,39
 491 198 491 198 440 203 c 1,40,41
 420 162 420 162 392 80 c 0,42,43
 390 67 390 67 386.5 47 c 128,-1,44
 383 27 383 27 378 1 c 1,45,46
 370 -5 370 -5 361 -5 c 0,47,48
 337 -5 337 -5 335 36 c 1,49,50
 315 24 315 24 278 6 c 0,51,52
 251 -5 251 -5 217 -5 c 0,53,54
 134 -5 134 -5 95 65 c 0,55,56
 64 121 64 121 64 212 c 0,57,58
 64 350 64 350 140 460 c 0,59,60
 225 584 225 584 355 584 c 0,61,62
 377 584 377 584 419 569 c 0,63,64
 462 554 462 554 484 554 c 0,65,66
 489 554 489 554 498 560.5 c 128,-1,67
 507 567 507 567 513 567 c 0,68,69
 526 567 526 567 535 553 c 1,70,-1
 534 549 l 2,0,1
EndSplineSet
EndChar

StartChar: H
Encoding: 72 72 43
Width: 600
Flags: W
LayerCount: 2
Fore
SplineSet
518 530 m 1,0,1
 410 51 l 1,2,3
 423 52 423 52 430 52.5 c 128,-1,4
 437 53 437 53 439 53 c 0,5,6
 465 53 465 53 475 43 c 0,7,8
 478 35 478 35 478 28 c 0,9,10
 478 1 478 1 454 1 c 2,11,-1
 319 0 l 2,12,13
 298 0 298 0 298 25 c 0,14,15
 298 47 298 47 320 51 c 0,16,17
 328 53 328 53 358 51 c 1,18,-1
 404 264 l 1,19,-1
 188 264 l 1,20,-1
 137 51 l 1,21,22
 152 52 152 52 159.5 52.5 c 128,-1,23
 167 53 167 53 167 53 c 2,24,25
 202 53 202 53 202 24 c 0,26,27
 202 0 202 0 178 0 c 2,28,-1
 42 0 l 2,29,30
 21 0 21 0 21 21 c 0,31,32
 21 54 21 54 62 52 c 0,33,34
 66 51 66 51 72 51 c 256,35,36
 78 51 78 51 86 50 c 1,37,-1
 195 530 l 1,38,39
 189 529 189 529 177.5 528 c 128,-1,40
 166 527 166 527 160 527 c 0,41,42
 137 527 137 527 137 554 c 0,43,44
 137 562 137 562 144 571.5 c 128,-1,45
 151 581 151 581 158 581 c 2,46,-1
 275 581 l 2,47,48
 299 581 299 581 299 554 c 0,49,50
 299 530 299 530 265 529 c 0,51,52
 263 529 263 529 258 529 c 256,53,54
 253 529 253 529 246 530 c 1,55,-1
 198 315 l 1,56,-1
 413 315 l 1,57,-1
 467 530 l 1,58,59
 434 527 434 527 435 527 c 1,60,61
 403 527 403 527 403 554 c 0,62,63
 403 564 403 564 411.5 572.5 c 128,-1,64
 420 581 420 581 430 581 c 2,65,-1
 555 581 l 2,66,67
 578 581 578 581 578 554 c 0,68,69
 578 533 578 533 556 529 c 0,70,71
 553 528 553 528 543.5 528.5 c 128,-1,72
 534 529 534 529 518 530 c 1,0,1
EndSplineSet
EndChar

StartChar: I
Encoding: 73 73 44
Width: 600
Flags: W
LayerCount: 2
Fore
SplineSet
521 530 m 2,0,1
 383 530 l 1,2,-1
 275 51 l 1,3,-1
 405 51 l 2,4,5
 431 51 431 51 431 24 c 0,6,7
 431 0 431 0 406 0 c 2,8,-1
 78 0 l 2,9,10
 57 0 57 0 57 24 c 0,11,12
 57 34 57 34 63.5 42.5 c 128,-1,13
 70 51 70 51 79 51 c 2,14,-1
 224 51 l 1,15,-1
 332 530 l 1,16,-1
 210 530 l 2,17,18
 190 530 190 530 190 557 c 0,19,20
 190 581 190 581 210 581 c 2,21,-1
 521 581 l 2,22,23
 543 581 543 581 543 554 c 0,24,25
 543 530 543 530 521 530 c 2,0,1
EndSplineSet
EndChar

StartChar: J
Encoding: 74 74 45
Width: 600
Flags: W
LayerCount: 2
Fore
SplineSet
505 527 m 0,0,1
 498 527 498 527 488.5 527.5 c 128,-1,2
 479 528 479 528 467 529 c 0,3,4
 453 530 453 530 444.5 530.5 c 128,-1,5
 436 531 436 531 431 531 c 1,6,-1
 376 274 l 2,7,8
 370 243 370 243 364 212 c 128,-1,9
 358 181 358 181 351 149 c 0,10,11
 331 76 331 76 299 41 c 0,12,13
 257 -5 257 -5 183 -5 c 0,14,15
 116 -5 116 -5 88 16 c 0,16,17
 55 40 55 40 55 104 c 0,18,19
 55 148 55 148 87 186 c 0,20,21
 120 224 120 224 163 224 c 0,22,23
 177 224 177 224 191.5 213 c 128,-1,24
 206 202 206 202 206 190 c 0,25,26
 206 149 206 149 158 140 c 0,27,28
 152 139 152 139 143 136.5 c 128,-1,29
 134 134 134 134 123 130 c 0,30,31
 106 119 106 119 106 96 c 0,32,33
 106 44 106 44 178 44 c 0,34,35
 273 44 273 44 297 150 c 2,36,-1
 380 531 l 1,37,-1
 282 531 l 2,38,39
 259 531 259 531 259 555 c 0,40,41
 259 564 259 564 266.5 573 c 128,-1,42
 274 582 274 582 283 582 c 2,43,-1
 523 582 l 2,44,45
 545 582 545 582 545 555 c 0,46,47
 545 530 545 530 505 527 c 0,0,1
EndSplineSet
EndChar

StartChar: K
Encoding: 75 75 46
Width: 600
Flags: W
LayerCount: 2
Fore
SplineSet
554 524 m 1,0,1
 543 519 543 519 535 515 c 128,-1,2
 527 511 527 511 523 509 c 0,3,4
 505 498 505 498 498 489 c 2,5,-1
 313 277 l 1,6,-1
 409 51 l 1,7,8
 412 53 412 53 419.5 52.5 c 128,-1,9
 427 52 427 52 439 53 c 0,10,11
 449 54 449 54 457 54.5 c 128,-1,12
 465 55 465 55 471 54 c 0,13,14
 508 53 508 53 508 24 c 0,15,16
 508 0 508 0 486 0 c 2,17,-1
 313 0 l 2,18,19
 295 0 295 0 295 24 c 0,20,21
 295 54 295 54 341 53 c 1,22,-1
 260 243 l 1,23,-1
 183 210 l 1,24,-1
 147 53 l 1,25,26
 159 52 159 52 167 52.5 c 128,-1,27
 175 53 175 53 176 53 c 0,28,29
 214 53 214 53 214 24 c 0,30,31
 214 15 214 15 206 7.5 c 128,-1,32
 198 0 198 0 189 0 c 2,33,-1
 43 0 l 2,34,35
 23 0 23 0 23 24 c 0,36,37
 23 47 23 47 47 52 c 0,38,39
 51 53 51 53 62.5 52.5 c 128,-1,40
 74 52 74 52 94 51 c 1,41,-1
 203 530 l 1,42,43
 165 527 165 527 162 527 c 0,44,45
 122 527 122 527 122 555 c 0,46,47
 122 581 122 581 143 581 c 2,48,-1
 299 581 l 2,49,50
 317 581 317 581 317 555 c 0,51,52
 317 534 317 534 294 529 c 0,53,54
 291 528 291 528 281.5 528.5 c 128,-1,55
 272 529 272 529 256 530 c 1,56,-1
 206 304 l 1,57,-1
 264 326 l 2,58,59
 290 338 290 338 315.5 365.5 c 128,-1,60
 341 393 341 393 357 410 c 0,61,62
 385 442 385 442 409.5 471 c 128,-1,63
 434 500 434 500 454 526 c 1,64,65
 447 530 447 530 440 530 c 2,66,-1
 435 530 l 1,67,-1
 430 530 l 2,68,69
 408 530 408 530 408 555 c 0,70,71
 408 564 408 564 415.5 572.5 c 128,-1,72
 423 581 423 581 432 581 c 2,73,-1
 555 581 l 2,74,75
 577 581 577 581 578 547 c 1,76,77
 575 547 575 547 554 524 c 1,0,1
EndSplineSet
EndChar

StartChar: L
Encoding: 76 76 47
Width: 600
Flags: W
LayerCount: 2
Fore
SplineSet
485 48 m 0,0,1
 483 34 483 34 473 12 c 0,2,3
 464 0 464 0 439 0 c 2,4,-1
 101 0 l 2,5,6
 82 0 82 0 82 24 c 0,7,8
 82 50 82 50 122 54 c 0,9,10
 139 56 139 56 186 51 c 1,11,-1
 293 530 l 1,12,13
 267 528 267 528 255 527 c 128,-1,14
 243 526 243 526 245 526 c 1,15,16
 206 526 206 526 206 555 c 0,17,18
 206 581 206 581 230 581 c 2,19,-1
 465 581 l 2,20,21
 487 581 487 581 487 555 c 0,22,23
 487 530 487 530 459 530 c 2,24,-1
 345 530 l 1,25,-1
 238 51 l 1,26,-1
 435 51 l 1,27,-1
 465 176 l 2,28,29
 470 196 470 196 497 196 c 0,30,31
 506 196 506 196 513 189 c 2,32,-1
 517 181 l 1,33,34
 516 167 516 167 512.5 150.5 c 128,-1,35
 509 134 509 134 504 114 c 0,36,37
 499 97 499 97 494.5 81 c 128,-1,38
 490 65 490 65 485 48 c 0,0,1
EndSplineSet
EndChar

StartChar: M
Encoding: 77 77 48
Width: 600
Flags: W
LayerCount: 2
Fore
SplineSet
549 529 m 1,0,1
 432 50 l 1,2,3
 448 51 448 51 455.5 51.5 c 128,-1,4
 463 52 463 52 463 52 c 2,5,6
 497 52 497 52 497 24 c 0,7,8
 497 0 497 0 475 0 c 2,9,-1
 335 0 l 2,10,11
 314 0 314 0 314 24 c 0,12,13
 314 45 314 45 337 50 c 0,14,15
 347 51 347 51 382 50 c 1,16,-1
 477 456 l 1,17,-1
 267 129 l 1,18,-1
 257 127 l 1,19,20
 240 131 240 131 239 142 c 2,21,-1
 211 455 l 1,22,-1
 121 51 l 1,23,-1
 139 52 l 2,24,25
 172 53 172 53 172 27 c 0,26,27
 172 0 172 0 145 0 c 2,28,-1
 35 0 l 2,29,30
 18 0 18 0 18 21 c 0,31,32
 18 49 18 49 49 50 c 0,33,34
 55 51 55 51 70 50 c 1,35,-1
 170 529 l 1,36,-1
 160 529 l 1,37,-1
 149 529 l 2,38,39
 138 529 138 529 132 527 c 1,40,41
 119 534 119 534 119 553 c 0,42,43
 119 563 119 563 126 572 c 128,-1,44
 133 581 133 581 141 581 c 0,45,46
 164 581 164 581 180.5 580.5 c 128,-1,47
 197 580 197 580 206 579 c 0,48,49
 256 574 256 574 257 560 c 2,50,-1
 283 248 l 1,51,-1
 479 566 l 1,52,53
 498 581 498 581 546 581 c 0,54,55
 581 581 581 581 581 563 c 0,56,57
 581 531 581 531 549 529 c 1,0,1
EndSplineSet
EndChar

StartChar: N
Encoding: 78 78 49
Width: 600
Flags: W
LayerCount: 2
Fore
SplineSet
563 537 m 0,0,1
 557 531 557 531 542 529 c 0,2,3
 540 529 540 529 533 529 c 0,4,5
 527 529 527 529 516 530 c 1,6,7
 496 446 496 446 467 322 c 128,-1,8
 438 198 438 198 400 30 c 0,9,10
 394 -4 394 -4 375 -4 c 0,11,12
 362 -4 362 -4 352 42 c 2,13,-1
 255 496 l 1,14,-1
 150 51 l 1,15,16
 163 52 163 52 169.5 52.5 c 128,-1,17
 176 53 176 53 175 53 c 1,18,19
 206 53 206 53 206 24 c 0,20,21
 206 0 206 0 184 0 c 2,22,-1
 55 0 l 2,23,24
 31 0 31 0 31 24 c 0,25,26
 31 45 31 45 55 51 c 0,27,28
 65 52 65 52 100 51 c 1,29,-1
 207 530 l 1,30,31
 169 527 169 527 175 527 c 1,32,33
 144 527 144 527 144 555 c 0,34,35
 144 563 144 563 150 572.5 c 128,-1,36
 156 582 156 582 164 582 c 2,37,-1
 266 581 l 2,38,39
 291 581 291 581 298 541 c 0,40,41
 307 493 307 493 316 446.5 c 128,-1,42
 325 400 325 400 334 353 c 0,43,44
 347 290 347 290 357.5 243.5 c 128,-1,45
 368 197 368 197 378 165 c 1,46,47
 389 202 389 202 400 248 c 128,-1,48
 411 294 411 294 424 349 c 0,49,50
 434 394 434 394 444 439 c 128,-1,51
 454 484 454 484 465 530 c 1,52,53
 439 528 439 528 428.5 527 c 128,-1,54
 418 526 418 526 423 526 c 1,55,56
 397 526 397 526 397 551 c 0,57,58
 397 561 397 561 403.5 571 c 128,-1,59
 410 581 410 581 419 581 c 2,60,-1
 544 581 l 2,61,62
 568 581 568 581 568 555 c 0,63,64
 568 549 568 549 563 537 c 0,0,1
EndSplineSet
EndChar

StartChar: O
Encoding: 79 79 50
Width: 600
Flags: W
LayerCount: 2
Fore
SplineSet
234 -4 m 0,0,1
 156 -4 156 -4 119 56 c 0,2,3
 87 108 87 108 87 190 c 0,4,5
 87 321 87 321 159 443 c 0,6,7
 241 584 241 584 363 584 c 0,8,9
 437 584 437 584 478 524 c 0,10,11
 512 472 512 472 512 393 c 0,12,13
 512 258 512 258 441 136 c 0,14,15
 358 -4 358 -4 234 -4 c 0,0,1
356 534 m 0,16,17
 283 534 283 534 218 448 c 0,18,19
 164 376 164 376 145 294 c 0,20,21
 134 247 134 247 134 189 c 0,22,23
 134 130 134 130 156 93 c 0,24,25
 183 44 183 44 237 44 c 0,26,27
 338 44 338 44 407 174 c 0,28,29
 463 284 463 284 463 394 c 0,30,31
 463 450 463 450 439 488 c 0,32,33
 411 534 411 534 356 534 c 0,16,17
EndSplineSet
EndChar

StartChar: P
Encoding: 80 80 51
Width: 600
Flags: W
LayerCount: 2
Fore
SplineSet
534 354 m 0,0,1
 512 284 512 284 455 258 c 0,2,3
 413 240 413 240 333 241 c 0,4,5
 329 242 329 242 318 242 c 256,6,7
 307 242 307 242 287 243 c 0,8,9
 272 244 272 244 260 244 c 256,10,11
 248 244 248 244 238 244 c 1,12,-1
 193 51 l 1,13,-1
 307 51 l 2,14,15
 333 51 333 51 333 24 c 0,16,17
 333 0 333 0 307 0 c 2,18,-1
 74 0 l 2,19,20
 53 0 53 0 53 24 c 0,21,22
 53 49 53 49 85 54 c 0,23,24
 91 54 91 54 141 51 c 1,25,-1
 246 530 l 1,26,27
 242 529 242 529 235 529 c 0,28,29
 229 529 229 529 219 528 c 0,30,31
 211 527 211 527 205.5 526.5 c 128,-1,32
 200 526 200 526 195 526 c 0,33,34
 151 526 151 526 151 555 c 0,35,36
 151 581 151 581 175 581 c 2,37,-1
 400 581 l 2,38,39
 433 581 433 581 459.5 569.5 c 128,-1,40
 486 558 486 558 505.5 538 c 128,-1,41
 525 518 525 518 535.5 490.5 c 128,-1,42
 546 463 546 463 546 430 c 0,43,44
 546 391 546 391 534 354 c 0,0,1
348 529 m 2,45,46
 338 529 l 1,47,-1
 330 529 l 2,48,49
 300 529 300 529 292 500 c 2,50,-1
 247 293 l 1,51,-1
 380 293 l 2,52,53
 433 293 433 293 465 335 c 0,54,55
 494 373 494 373 494 426 c 0,56,57
 494 490 494 490 449 513 c 0,58,59
 418 529 418 529 348 529 c 2,45,46
EndSplineSet
EndChar

StartChar: Q
Encoding: 81 81 52
Width: 600
Flags: W
LayerCount: 2
Fore
SplineSet
390 66 m 0,0,1
 378 56 378 56 360.5 44.5 c 128,-1,2
 343 33 343 33 320 19 c 1,3,4
 332 -23 332 -23 349 -23 c 0,5,6
 369 -23 369 -23 401 10 c 0,7,8
 431 42 431 42 442 42 c 0,9,10
 470 42 470 42 470 18 c 0,11,12
 470 -9 470 -9 420 -44 c 0,13,14
 373 -77 373 -77 343 -77 c 0,15,16
 299 -77 299 -77 270 0 c 1,17,18
 250 -4 250 -4 230 -4 c 0,19,20
 150 -4 150 -4 113 72 c 0,21,22
 84 133 84 133 84 221 c 0,23,24
 84 352 84 352 154 462 c 0,25,26
 233 588 233 588 356 588 c 0,27,28
 515 588 515 588 515 386 c 0,29,30
 515 303 515 303 483 213 c 0,31,32
 448 115 448 115 390 66 c 0,0,1
346 533 m 0,33,34
 251 533 251 533 186 420 c 0,35,36
 131 325 131 325 131 222 c 0,37,38
 131 193 131 193 139 156 c 1,39,40
 201 206 201 206 220 206 c 0,41,42
 259 206 259 206 283 156 c 0,43,44
 294 132 294 132 308 73 c 1,45,46
 385 124 385 124 426 211 c 0,47,48
 462 290 462 290 462 387 c 0,49,50
 462 450 462 450 436 488 c 0,51,52
 406 533 406 533 346 533 c 0,33,34
218 147 m 1,53,54
 206 143 206 143 190 132 c 128,-1,55
 174 121 174 121 154 104 c 1,56,57
 186 42 186 42 236 42 c 0,58,59
 242 42 242 42 260 47 c 1,60,61
 247 141 247 141 218 147 c 1,53,54
EndSplineSet
EndChar

StartChar: R
Encoding: 82 82 53
Width: 600
Flags: W
LayerCount: 2
Fore
SplineSet
384 270 m 1,0,1
 415 130 415 130 468 51 c 1,2,-1
 493 52 l 2,3,4
 533 53 533 53 533 24 c 0,5,6
 533 16 533 16 530 7 c 0,7,8
 524 0 524 0 514 0 c 2,9,-1
 443 0 l 1,10,11
 424 31 424 31 399 86.5 c 128,-1,12
 374 142 374 142 342 224 c 0,13,14
 327 264 327 264 300 264 c 2,15,-1
 233 264 l 1,16,-1
 183 51 l 1,17,-1
 203 52 l 2,18,19
 247 54 247 54 247 24 c 0,20,21
 247 0 247 0 219 0 c 2,22,-1
 71 0 l 2,23,24
 49 0 49 0 49 24 c 0,25,26
 49 47 49 47 79 52 c 0,27,28
 85 53 85 53 132 50 c 1,29,-1
 239 530 l 1,30,31
 204 527 204 527 200 527 c 0,32,33
 156 527 156 527 156 555 c 0,34,35
 156 581 156 581 180 581 c 2,36,-1
 390 581 l 2,37,38
 454 581 454 581 498 557 c 0,39,40
 550 527 550 527 550 468 c 0,41,42
 550 400 550 400 500 344 c 0,43,44
 453 291 453 291 384 270 c 1,0,1
407 531 m 2,45,46
 290 530 l 1,47,-1
 241 315 l 1,48,-1
 297 314 l 2,49,50
 396 312 396 312 449 370 c 0,51,52
 495 419 495 419 495 462 c 0,53,54
 495 493 495 493 465 513 c 0,55,56
 438 531 438 531 407 531 c 2,45,46
EndSplineSet
EndChar

StartChar: S
Encoding: 83 83 54
Width: 600
Flags: W
LayerCount: 2
Fore
SplineSet
520 509 m 0,0,1
 520 505 520 505 520.5 498 c 128,-1,2
 521 491 521 491 522 480 c 0,3,4
 523 471 523 471 523.5 464 c 128,-1,5
 524 457 524 457 524 452 c 0,6,7
 524 433 524 433 515 417 c 1,8,9
 507 412 507 412 499 412 c 256,10,11
 491 412 491 412 484 419 c 1,12,13
 478 439 478 439 472 505 c 1,14,15
 428 531 428 531 366 531 c 0,16,17
 319 531 319 531 278 500 c 0,18,19
 233 467 233 467 233 422 c 0,20,21
 233 364 233 364 316 332 c 0,22,23
 336 325 336 325 355 318 c 128,-1,24
 374 311 374 311 393 304 c 0,25,26
 416 296 416 296 433 285.5 c 128,-1,27
 450 275 450 275 461 264 c 0,28,29
 490 235 490 235 490 190 c 0,30,31
 490 104 490 104 417 49 c 0,32,33
 349 -2 349 -2 262 -2 c 0,34,35
 180 -2 180 -2 111 37 c 1,36,37
 110 35 110 35 103 22 c 0,38,39
 90 1 90 1 73 -4 c 1,40,41
 47 1 47 1 47 19 c 0,42,43
 47 20 47 20 48 21 c 2,44,-1
 48 24 l 1,45,46
 70 57 70 57 82 108 c 0,47,48
 87 130 87 130 93 151.5 c 128,-1,49
 99 173 99 173 104 195 c 0,50,51
 108 210 108 210 122 210 c 0,52,53
 148 210 148 210 148 184 c 0,54,55
 148 141 148 141 132 83 c 1,56,57
 176 48 176 48 267 48 c 0,58,59
 327 48 327 48 379 88 c 0,60,61
 437 131 437 131 437 188 c 0,62,63
 437 238 437 238 355 266 c 0,64,65
 306 283 306 283 277 294 c 128,-1,66
 248 305 248 305 240 310 c 0,67,68
 181 345 181 345 181 409 c 0,69,70
 181 483 181 483 238 534 c 0,71,72
 293 583 293 583 368 583 c 0,73,74
 423 583 423 583 492 556 c 1,75,76
 516 581 516 581 528 581 c 0,77,78
 548 581 548 581 553 558 c 1,79,80
 545 541 545 541 520 509 c 0,0,1
EndSplineSet
EndChar

StartChar: T
Encoding: 84 84 55
Width: 600
Flags: W
LayerCount: 2
Fore
SplineSet
496 375 m 2,0,1
 492 353 492 353 467 353 c 0,2,3
 445 353 445 353 445 383 c 0,4,5
 445 409 445 409 456 455 c 0,6,7
 460 467 460 467 464.5 485.5 c 128,-1,8
 469 504 469 504 475 529 c 1,9,-1
 348 529 l 1,10,-1
 240 51 l 1,11,-1
 353 51 l 2,12,13
 376 51 376 51 376 24 c 0,14,15
 376 0 376 0 353 0 c 2,16,-1
 82 0 l 2,17,18
 61 0 61 0 61 24 c 0,19,20
 61 33 61 33 67.5 42 c 128,-1,21
 74 51 74 51 82 51 c 2,22,-1
 187 51 l 1,23,-1
 297 529 l 1,24,-1
 173 529 l 1,25,-1
 135 375 l 2,26,27
 132 361 132 361 108 361 c 0,28,29
 91 361 91 361 83 375 c 1,30,-1
 83 376 l 1,31,-1
 131 581 l 1,32,-1
 538 581 l 1,33,-1
 496 375 l 2,0,1
EndSplineSet
EndChar

StartChar: U
Encoding: 85 85 56
Width: 600
Flags: W
LayerCount: 2
Fore
SplineSet
484 529 m 1,0,1
 387 126 l 2,2,3
 369 50 369 50 322 21 c 0,4,5
 281 -3 281 -3 200 -3 c 0,6,7
 61 -3 61 -3 61 128 c 0,8,9
 61 202 61 202 94 327 c 0,10,11
 105 362 105 362 119 412.5 c 128,-1,12
 133 463 133 463 152 529 c 1,13,-1
 131 528 l 2,14,15
 101 526 101 526 101 550 c 0,16,17
 101 560 101 560 109 570.5 c 128,-1,18
 117 581 117 581 126 581 c 2,19,-1
 257 581 l 2,20,21
 278 581 278 581 278 555 c 0,22,23
 278 532 278 532 253 528 c 0,24,25
 249 527 249 527 237 527.5 c 128,-1,26
 225 528 225 528 204 529 c 1,27,-1
 131 245 l 2,28,29
 111 167 111 167 111 135 c 0,30,31
 111 46 111 46 206 46 c 0,32,33
 316 46 316 46 335 125 c 2,34,-1
 433 529 l 1,35,36
 422 528 422 528 415 527.5 c 128,-1,37
 408 527 408 527 406 527 c 0,38,39
 366 527 366 527 366 552 c 0,40,41
 366 562 366 562 373 571.5 c 128,-1,42
 380 581 380 581 388 581 c 2,43,-1
 514 581 l 2,44,45
 538 581 538 581 538 554 c 0,46,47
 538 534 538 534 519 530 c 0,48,49
 514 529 514 529 505.5 528.5 c 128,-1,50
 497 528 497 528 484 529 c 1,0,1
EndSplineSet
EndChar

StartChar: V
Encoding: 86 86 57
Width: 600
Flags: W
LayerCount: 2
Fore
SplineSet
468 529 m 1,0,1
 220 25 l 2,2,3
 210 5 210 5 207 1 c 0,4,5
 199 -10 199 -10 187 -13 c 1,6,-1
 182 -12 l 1,7,8
 170 -2 170 -2 168 26 c 2,9,-1
 138 529 l 1,10,11
 120 528 120 528 112 527.5 c 128,-1,12
 104 527 104 527 106 527 c 1,13,14
 71 527 71 527 71 554 c 0,15,16
 71 563 71 563 78 571.5 c 128,-1,17
 85 580 85 580 93 580 c 2,18,-1
 241 581 l 2,19,20
 263 581 263 581 263 555 c 0,21,22
 263 525 263 525 221 527 c 0,23,24
 217 528 217 528 211 528 c 256,25,26
 205 528 205 528 197 529 c 1,27,-1
 220 143 l 1,28,-1
 408 529 l 1,29,-1
 384 527 l 2,30,31
 349 525 349 525 349 552 c 0,32,33
 349 563 349 563 356 572 c 128,-1,34
 363 581 363 581 372 581 c 2,35,-1
 504 581 l 2,36,37
 529 581 529 581 529 555 c 0,38,39
 529 533 529 533 507 529 c 0,40,41
 499 527 499 527 468 529 c 1,0,1
EndSplineSet
EndChar

StartChar: W
Encoding: 87 87 58
Width: 600
Flags: W
LayerCount: 2
Fore
SplineSet
556 530 m 0,0,1
 548 528 548 528 515 530 c 1,2,-1
 324 10 l 2,3,4
 318 -5 318 -5 306 -5 c 256,5,6
 294 -5 294 -5 290 11 c 2,7,-1
 230 215 l 1,8,-1
 57 2 l 2,9,10
 51 -5 51 -5 37 -5 c 0,11,12
 22 -5 22 -5 23 11 c 2,13,-1
 23 12 l 1,14,-1
 74 528 l 1,15,16
 70 528 70 528 63.5 527.5 c 128,-1,17
 57 527 57 527 59 527 c 1,18,19
 31 527 31 527 31 554 c 0,20,21
 31 563 31 563 40 571.5 c 128,-1,22
 49 580 49 580 58 580 c 2,23,-1
 189 580 l 2,24,25
 201 580 201 580 208 570 c 0,26,27
 211 561 211 561 211 560 c 0,28,29
 211 526 211 526 162 527 c 0,30,31
 158 528 158 528 151 528 c 0,32,33
 145 528 145 528 136 529 c 1,34,-1
 95 144 l 1,35,-1
 234 322 l 1,36,37
 247 327 247 327 258 327 c 256,38,39
 269 327 269 327 272 317 c 2,40,-1
 320 151 l 1,41,-1
 455 522 l 1,42,43
 449 529 449 529 441.5 528.5 c 128,-1,44
 434 528 434 528 432 528 c 0,45,46
 397 528 397 528 397 555 c 0,47,48
 397 581 397 581 420 581 c 2,49,-1
 552 581 l 2,50,51
 577 581 577 581 577 555 c 0,52,53
 577 534 577 534 556 530 c 0,0,1
EndSplineSet
EndChar

StartChar: X
Encoding: 88 88 59
Width: 600
Flags: W
LayerCount: 2
Fore
SplineSet
546 529 m 0,0,1
 542 528 542 528 531 528.5 c 128,-1,2
 520 529 520 529 500 530 c 1,3,-1
 330 306 l 1,4,-1
 398 73 l 2,5,6
 404 55 404 55 448 52 c 0,7,8
 485 49 485 49 485 24 c 0,9,10
 485 0 485 0 463 0 c 2,11,-1
 293 0 l 2,12,13
 270 0 270 0 270 24 c 0,14,15
 270 46 270 46 297 51 c 0,16,17
 311 54 311 54 347 51 c 1,18,-1
 287 247 l 1,19,-1
 146 51 l 1,20,-1
 166 52 l 2,21,22
 205 53 205 53 205 24 c 0,23,24
 205 0 205 0 179 0 c 2,25,-1
 46 0 l 2,26,27
 26 0 26 0 26 24 c 0,28,29
 26 43 26 43 43 49 c 0,30,31
 52 51 52 51 61 53.5 c 128,-1,32
 70 56 70 56 78 58 c 0,33,34
 92 63 92 63 100 74 c 2,35,-1
 270 314 l 1,36,-1
 216 529 l 2,37,38
 214 529 214 529 209 529 c 0,39,40
 205 529 205 529 200 528 c 128,-1,41
 195 527 195 527 191 527 c 0,42,43
 188 527 188 527 186 527 c 0,44,45
 151 527 151 527 151 557 c 0,46,47
 151 581 151 581 175 581 c 2,48,-1
 293 581 l 2,49,50
 322 581 322 581 322 554 c 256,51,52
 322 527 322 527 275 529 c 1,53,-1
 312 366 l 1,54,-1
 437 530 l 1,55,56
 418 529 418 529 411 532 c 0,57,58
 400 537 400 537 400 555 c 0,59,60
 400 581 400 581 421 581 c 2,61,-1
 545 581 l 2,62,63
 573 581 573 581 573 555 c 0,64,65
 573 533 573 533 546 529 c 0,0,1
EndSplineSet
EndChar

StartChar: Y
Encoding: 89 89 60
Width: 600
Flags: W
LayerCount: 2
Fore
SplineSet
509 521 m 0,0,1
 489 509 489 509 402 414 c 0,2,3
 371 382 371 382 348 351 c 128,-1,4
 325 320 325 320 299 283 c 1,5,-1
 249 51 l 1,6,-1
 345 51 l 2,7,8
 369 51 369 51 369 24 c 0,9,10
 369 0 369 0 343 0 c 2,11,-1
 93 0 l 2,12,13
 75 0 75 0 75 24 c 0,14,15
 75 51 75 51 94 51 c 2,16,-1
 196 51 l 1,17,-1
 249 289 l 1,18,-1
 163 530 l 1,19,-1
 142 529 l 2,20,21
 111 528 111 528 111 556 c 0,22,23
 111 565 111 565 117.5 573 c 128,-1,24
 124 581 124 581 132 581 c 2,25,-1
 255 581 l 2,26,27
 276 581 276 581 276 551 c 0,28,29
 276 533 276 533 255 529 c 0,30,31
 243 527 243 527 221 525 c 1,32,-1
 286 356 l 1,33,-1
 430 525 l 1,34,35
 424 526 424 526 416 526 c 0,36,37
 384 526 384 526 384 550 c 0,38,39
 384 560 384 560 391 570 c 128,-1,40
 398 580 398 580 407 580 c 2,41,-1
 531 580 l 2,42,43
 553 580 553 580 553 554 c 0,44,45
 553 536 553 536 536 531 c 0,46,47
 515 527 515 527 509 521 c 0,0,1
EndSplineSet
EndChar

StartChar: Z
Encoding: 90 90 61
Width: 600
Flags: W
LayerCount: 2
Fore
SplineSet
462 0 m 1,0,1
 125 0 l 2,2,3
 97 0 97 0 97 22 c 0,4,5
 97 39 97 39 242 262 c 0,6,7
 287 329 287 329 330 396 c 128,-1,8
 373 463 373 463 417 530 c 1,9,-1
 236 530 l 1,10,-1
 214 438 l 2,11,12
 209 417 209 417 189 415 c 1,13,14
 164 421 164 421 164 444 c 0,15,16
 164 455 164 455 167 472 c 128,-1,17
 170 489 170 489 175 512 c 0,18,19
 180 529 180 529 184.5 546.5 c 128,-1,20
 189 564 189 564 194 581 c 1,21,-1
 470 581 l 2,22,23
 491 581 491 581 499 570 c 2,24,-1
 500 568 l 1,25,-1
 500 565 l 2,26,27
 500 551 500 551 482 523 c 2,28,-1
 177 51 l 1,29,-1
 419 51 l 1,30,-1
 450 159 l 2,31,32
 456 178 456 178 483 178 c 0,33,34
 490 178 490 178 500 168 c 1,35,-1
 501 163 l 2,36,37
 503 157 503 157 503 158 c 1,38,39
 503 152 503 152 462 0 c 1,0,1
EndSplineSet
EndChar

StartChar: bracketleft
Encoding: 91 91 62
Width: 600
Flags: W
LayerCount: 2
Fore
SplineSet
393 600 m 2,0,1
 234 600 l 1,2,-1
 234 -18 l 1,3,-1
 393 -17 l 2,4,5
 413 -17 413 -17 413 -46 c 0,6,7
 413 -69 413 -69 393 -69 c 2,8,-1
 225 -69 l 2,9,10
 183 -69 183 -69 183 -26 c 2,11,-1
 183 602 l 2,12,13
 183 623 183 623 195.5 637.5 c 128,-1,14
 208 652 208 652 229 652 c 2,15,-1
 393 653 l 2,16,17
 417 653 417 653 417 625 c 0,18,19
 417 600 417 600 393 600 c 2,0,1
EndSplineSet
EndChar

StartChar: backslash
Encoding: 92 92 63
Width: 600
Flags: W
LayerCount: 2
Fore
SplineSet
449 -63 m 0,0,1
 433 -63 433 -63 424 -42 c 0,2,3
 402 6 402 6 362.5 91.5 c 128,-1,4
 323 177 323 177 265 304 c 0,5,6
 125 613 125 613 125 621 c 0,7,8
 125 638 125 638 150 644 c 0,9,10
 155 643 155 643 158 642 c 128,-1,11
 161 641 161 641 163 640 c 0,12,13
 168 638 168 638 173 629 c 0,14,15
 196 580 196 580 236.5 493.5 c 128,-1,16
 277 407 277 407 336 281 c 0,17,18
 474 -16 474 -16 474 -38 c 0,19,20
 474 -63 474 -63 449 -63 c 0,0,1
EndSplineSet
EndChar

StartChar: bracketright
Encoding: 93 93 64
Width: 600
Flags: W
LayerCount: 2
Fore
SplineSet
415 -28 m 2,0,1
 415 -69 415 -69 382 -69 c 2,2,-1
 204 -69 l 2,3,4
 185 -69 185 -69 185 -44 c 0,5,6
 185 -36 185 -36 192.5 -27 c 128,-1,7
 200 -18 200 -18 208 -18 c 2,8,-1
 365 -18 l 1,9,-1
 364 600 l 1,10,-1
 207 599 l 2,11,12
 184 597 184 597 184 624 c 0,13,14
 184 634 184 634 191 643 c 128,-1,15
 198 652 198 652 207 652 c 2,16,-1
 375 651 l 2,17,18
 400 651 400 651 409 636 c 0,19,20
 416 626 416 626 416 596 c 2,21,-1
 415 -28 l 2,0,1
EndSplineSet
EndChar

StartChar: asciicircum
Encoding: 94 94 65
Width: 600
Flags: W
LayerCount: 2
Fore
SplineSet
461 56 m 0,0,1
 443 56 443 56 436 72 c 2,2,-1
 297 330 l 1,3,-1
 219 186 l 2,4,5
 155 72 155 72 137 62 c 1,6,-1
 132 62 l 2,7,8
 108 62 108 62 108 90 c 0,9,10
 108 107 108 107 180 235 c 0,11,12
 219 304 219 304 270 394 c 0,13,14
 283 418 283 418 298 418 c 0,15,16
 309 418 309 418 323 394 c 0,17,18
 337 371 337 371 360 329.5 c 128,-1,19
 383 288 383 288 417 228 c 0,20,21
 489 96 489 96 491 73 c 1,22,23
 477 56 477 56 461 56 c 0,0,1
EndSplineSet
EndChar

StartChar: underscore
Encoding: 95 95 66
Width: 600
Flags: W
LayerCount: 2
Fore
SplineSet
542 -164 m 6,0,1
 52 -164 l 6,2,3
 27 -164 27 -164 27 -139 c 4,4,5
 27 -117 27 -117 50 -117 c 6,6,7
 546 -117 l 6,8,9
 572 -117 572 -117 572 -139 c 4,10,11
 572 -150 572 -150 562 -157 c 132,-1,12
 552 -164 552 -164 542 -164 c 6,0,1
EndSplineSet
EndChar

StartChar: grave
Encoding: 96 96 67
Width: 600
Flags: W
LayerCount: 2
Fore
SplineSet
355 430 m 0,0,1
 343 430 343 430 282 489 c 0,2,3
 223 548 223 548 223 561 c 0,4,5
 223 587 223 587 252 587 c 0,6,7
 263 587 263 587 319 528 c 0,8,9
 376 469 376 469 376 457 c 0,10,11
 376 430 376 430 355 430 c 0,0,1
EndSplineSet
EndChar

StartChar: a
Encoding: 97 97 68
Width: 600
Flags: W
LayerCount: 2
Fore
SplineSet
492 3 m 0,0,1
 481 0 481 0 460 0 c 0,2,3
 437 0 437 0 386 25 c 1,4,5
 302 -1 302 -1 250 -1 c 0,6,7
 181 -1 181 -1 140 24 c 0,8,9
 89 55 89 55 89 118 c 0,10,11
 89 153 89 153 120 194 c 0,12,13
 178 276 178 276 316 276 c 0,14,15
 363 276 363 276 420 261 c 1,16,17
 441 310 441 310 441 336 c 0,18,19
 441 390 441 390 356 390 c 0,20,21
 327 390 327 390 276 377 c 0,22,23
 223 365 223 365 197 365 c 0,24,25
 179 365 179 365 179 386 c 0,26,27
 179 417 179 417 255 433 c 0,28,29
 310 444 310 444 361 444 c 0,30,31
 416 444 416 444 453 422 c 0,32,33
 498 396 498 396 498 346 c 0,34,35
 498 299 498 299 461 218 c 0,36,37
 424 138 424 138 424 92 c 0,38,39
 424 56 424 56 469 47 c 0,40,41
 477 46 477 46 498 41 c 0,42,43
 510 35 510 35 510 21 c 256,44,45
 510 7 510 7 492 3 c 0,0,1
316 223 m 0,46,47
 260 223 260 223 206 200 c 0,48,49
 138 171 138 171 138 119 c 0,50,51
 138 49 138 49 261 49 c 0,52,53
 298 49 298 49 369 74 c 1,54,55
 368 79 368 79 367.5 84 c 128,-1,56
 367 89 367 89 367 94 c 0,57,58
 367 131 367 131 397 212 c 1,59,60
 348 223 348 223 316 223 c 0,46,47
EndSplineSet
EndChar

StartChar: b
Encoding: 98 98 69
Width: 600
Flags: W
LayerCount: 2
Fore
SplineSet
290 0 m 0,0,1
 248 0 248 0 229 3 c 0,2,3
 202 9 202 9 173 28 c 1,4,5
 136 -4 136 -4 83 -4 c 0,6,7
 80 -4 80 -4 73 -2.5 c 128,-1,8
 66 -1 66 -1 63 -1 c 2,9,-1
 53 2 l 1,10,11
 48 14 48 14 48 24 c 0,12,13
 48 49 48 49 88 52 c 0,14,15
 98 53 98 53 105 54 c 128,-1,16
 112 55 112 55 116 57 c 0,17,18
 130 62 130 62 133 77 c 2,19,-1
 261 578 l 1,20,21
 232 575 232 575 227 575 c 0,22,23
 192 575 192 575 192 602 c 256,24,25
 192 629 192 629 211 629 c 2,26,-1
 353 629 l 2,27,28
 374 629 374 629 374 602 c 0,29,30
 374 581 374 581 355 577 c 0,31,32
 345 575 345 575 315 578 c 1,33,-1
 279 418 l 1,34,35
 337 442 337 442 388 442 c 0,36,37
 463 442 463 442 507.5 397.5 c 128,-1,38
 552 353 552 353 552 278 c 0,39,40
 552 162 552 162 479 83 c 0,41,42
 404 0 404 0 290 0 c 0,0,1
387 390 m 0,43,44
 342 390 342 390 264 345 c 1,45,-1
 193 81 l 1,46,47
 240 49 240 49 289 49 c 0,48,49
 369 49 369 49 434 114 c 0,50,51
 499 181 499 181 499 262 c 0,52,53
 499 313 499 313 470 350 c 0,54,55
 439 390 439 390 387 390 c 0,43,44
EndSplineSet
EndChar

StartChar: c
Encoding: 99 99 70
Width: 600
Flags: W
LayerCount: 2
Fore
SplineSet
495 409 m 2,0,1
 493 405 l 1,2,3
 462 380 462 380 462 366 c 0,4,5
 462 357 462 357 467.5 341.5 c 128,-1,6
 473 326 473 326 473 318 c 0,7,8
 473 294 473 294 449 294 c 0,9,10
 431 294 431 294 425 313 c 0,11,12
 423 326 423 326 416 348 c 1,13,14
 405 369 405 369 366 380 c 0,15,16
 337 389 337 389 306 389 c 0,17,18
 229 389 229 389 187 323 c 0,19,20
 152 267 152 267 152 188 c 0,21,22
 152 124 152 124 187 86 c 0,23,24
 221 46 221 46 285 46 c 0,25,26
 316 46 316 46 348 66 c 0,27,28
 350 68 350 68 363 78 c 128,-1,29
 376 88 376 88 399 107 c 0,30,31
 412 117 412 117 418 117 c 0,32,33
 441 117 441 117 441 89 c 0,34,35
 441 83 441 83 436 73 c 0,36,37
 379 -4 379 -4 276 -4 c 0,38,39
 190 -4 190 -4 143 55 c 0,40,41
 102 108 102 108 102 198 c 0,42,43
 102 295 102 295 157 365 c 0,44,45
 217 442 217 442 310 442 c 0,46,47
 368 442 368 442 429 411 c 1,48,-1
 457 436 l 1,49,-1
 467 439 l 1,50,51
 497 434 497 434 497 412 c 1,52,53
 497 412 497 412 496.5 411.5 c 128,-1,54
 496 411 496 411 495 409 c 2,0,1
EndSplineSet
EndChar

StartChar: d
Encoding: 100 100 71
Width: 600
Flags: W
LayerCount: 2
Fore
SplineSet
559 583 m 0,0,1
 551 574 551 574 508 577 c 1,2,3
 498 532 498 532 483 467.5 c 128,-1,4
 468 403 468 403 448 315 c 0,5,6
 440 284 440 284 432.5 254 c 128,-1,7
 425 224 425 224 417 193 c 0,8,9
 407 153 407 153 402.5 122.5 c 128,-1,10
 398 92 398 92 398 72 c 0,11,12
 398 43 398 43 443 42 c 2,13,-1
 461 42 l 2,14,15
 480 42 480 42 480 21 c 256,16,17
 480 0 480 0 448 0 c 0,18,19
 421 0 421 0 374 22 c 0,20,21
 366 26 366 26 359 26 c 0,22,23
 350 26 350 26 307 11 c 0,24,25
 263 -4 263 -4 237 -4 c 0,26,27
 148 -4 148 -4 91 64 c 0,28,29
 37 128 37 128 37 221 c 0,30,31
 37 320 37 320 97 379 c 0,32,33
 159 438 159 438 259 438 c 0,34,35
 327 438 327 438 416 401 c 1,36,-1
 456 577 l 1,37,38
 423 574 423 574 417 574 c 0,39,40
 376 574 376 574 376 601 c 256,41,42
 376 628 376 628 399 628 c 2,43,-1
 542 628 l 2,44,45
 551 628 551 628 559 619 c 0,46,47
 563 611 563 611 563 601 c 0,48,49
 563 592 563 592 559 583 c 0,0,1
262 384 m 0,50,51
 191 384 191 384 142 344 c 0,52,53
 90 301 90 301 90 232 c 0,54,55
 90 155 90 155 129 106 c 0,56,57
 171 51 171 51 245 51 c 0,58,59
 291 51 291 51 347 79 c 1,60,-1
 405 348 l 1,61,62
 322 384 322 384 262 384 c 0,50,51
EndSplineSet
EndChar

StartChar: e
Encoding: 101 101 72
Width: 600
Flags: W
LayerCount: 2
Fore
SplineSet
493 206 m 1,0,1
 476 197 476 197 329 197 c 0,2,3
 309 197 309 197 281 197.5 c 128,-1,4
 253 198 253 198 217 199 c 0,5,6
 198 199 198 199 179 199 c 0,7,8
 161 199 161 199 142 200 c 1,9,-1
 141 178 l 2,10,11
 138 118 138 118 191 80 c 0,12,13
 237 47 237 47 302 47 c 0,14,15
 347 47 347 47 420 82 c 0,16,17
 433 88 433 88 437 88 c 0,18,19
 463 88 463 88 463 56 c 0,20,21
 463 49 463 49 452 41 c 0,22,23
 432 27 432 27 410 17.5 c 128,-1,24
 388 8 388 8 365 3 c 0,25,26
 348 1 348 1 324.5 -0.5 c 128,-1,27
 301 -2 301 -2 270 -2 c 0,28,29
 187 -2 187 -2 138 58 c 0,30,31
 91 114 91 114 91 198 c 0,32,33
 91 314 91 314 171 382 c 0,34,35
 246 445 246 445 365 445 c 0,36,37
 432 445 432 445 471 401 c 0,38,39
 508 360 508 360 508 292 c 0,40,41
 508 233 508 233 493 206 c 1,0,1
360 389 m 0,42,43
 182 389 182 389 147 252 c 1,44,-1
 452 252 l 1,45,46
 454 266 454 266 455.5 277.5 c 128,-1,47
 457 289 457 289 457 299 c 0,48,49
 457 342 457 342 430 366 c 0,50,51
 402 389 402 389 360 389 c 0,42,43
EndSplineSet
EndChar

StartChar: f
Encoding: 102 102 73
Width: 600
Flags: W
LayerCount: 2
Fore
SplineSet
518 553 m 1,0,1
 510 551 l 2,2,3
 504 552 504 552 493.5 556 c 128,-1,4
 483 560 483 560 469 567 c 0,5,6
 446 580 446 580 426 580 c 0,7,8
 363 580 363 580 330 443 c 1,9,-1
 459 444 l 2,10,11
 475 444 475 444 475 417 c 0,12,13
 475 392 475 392 451 392 c 2,14,-1
 318 392 l 1,15,-1
 243 53 l 1,16,-1
 341 53 l 2,17,18
 367 53 367 53 367 27 c 0,19,20
 367 2 367 2 342 0 c 2,21,-1
 93 0 l 2,22,23
 68 2 68 2 68 27 c 0,24,25
 68 55 68 55 117 56 c 0,26,27
 125 57 125 57 135 56.5 c 128,-1,28
 145 56 145 56 158 55 c 0,29,30
 172 54 172 54 179.5 53.5 c 128,-1,31
 187 53 187 53 189 53 c 2,32,-1
 267 392 l 1,33,34
 253 391 253 391 245 390.5 c 128,-1,35
 237 390 237 390 235 390 c 0,36,37
 202 390 202 390 202 417 c 0,38,39
 202 440 202 440 228 445 c 0,40,41
 236 446 236 446 277 443 c 1,42,43
 324 631 324 631 429 631 c 0,44,45
 454 631 454 631 490 617 c 0,46,47
 532 600 532 600 532 581 c 0,48,49
 532 564 532 564 518 553 c 1,0,1
EndSplineSet
EndChar

StartChar: g
Encoding: 103 103 74
Width: 600
Flags: W
LayerCount: 2
Fore
SplineSet
539 387 m 1,0,1
 517 394 517 394 516 394 c 0,2,3
 504 394 504 394 490.5 380.5 c 128,-1,4
 477 367 477 367 475 354 c 2,5,-1
 386 -41 l 2,6,7
 370 -116 370 -116 319 -167 c 0,8,9
 264 -222 264 -222 190 -222 c 0,10,11
 148 -222 148 -222 98 -200 c 0,12,13
 38 -173 38 -173 38 -139 c 0,14,15
 38 -120 38 -120 60 -113 c 1,16,17
 74 -117 74 -117 118 -145 c 0,18,19
 149 -166 149 -166 190 -166 c 0,20,21
 299 -166 299 -166 342 0 c 1,22,23
 322 -4 322 -4 303.5 -5.5 c 128,-1,24
 285 -7 285 -7 268 -7 c 0,25,26
 165 -7 165 -7 112 61 c 0,27,28
 64 122 64 122 64 229 c 0,29,30
 64 274 64 274 96 333 c 0,31,32
 155 443 155 443 291 443 c 0,33,34
 358 443 358 443 442 403 c 1,35,36
 476 445 476 445 503 445 c 0,37,38
 520 445 520 445 538 439 c 0,39,40
 562 431 562 431 562 418 c 0,41,42
 562 393 562 393 539 387 c 1,0,1
299 387 m 0,43,44
 221 387 221 387 171 341 c 0,45,46
 119 293 119 293 119 217 c 0,47,48
 119 145 119 145 167 96 c 128,-1,49
 215 47 215 47 286 47 c 0,50,51
 313 47 313 47 335 60 c 0,52,53
 361 74 361 74 366 100 c 2,54,-1
 419 346 l 1,55,56
 351 387 351 387 299 387 c 0,43,44
EndSplineSet
EndChar

StartChar: h
Encoding: 104 104 75
Width: 600
Flags: W
LayerCount: 2
Fore
SplineSet
498 0 m 2,0,1
 360 0 l 2,2,3
 340 0 340 0 340 24 c 0,4,5
 340 52 340 52 386 52 c 0,6,7
 389 52 389 52 395 52 c 256,8,9
 401 52 401 52 409 51 c 1,10,11
 419 96 419 96 445 198 c 0,12,13
 470 305 470 305 470 337 c 0,14,15
 470 392 470 392 398 392 c 0,16,17
 338 392 338 392 258 330 c 1,18,-1
 195 51 l 1,19,-1
 213 52 l 2,20,21
 251 54 251 54 251 24 c 0,22,23
 251 0 251 0 225 0 c 2,24,-1
 92 0 l 2,25,26
 73 0 73 0 73 24 c 0,27,28
 73 47 73 47 97 52 c 0,29,30
 101 53 101 53 112.5 52.5 c 128,-1,31
 124 52 124 52 144 51 c 1,32,-1
 262 578 l 1,33,34
 250 577 250 577 243 576.5 c 128,-1,35
 236 576 236 576 234 576 c 0,36,37
 197 576 197 576 197 602 c 0,38,39
 197 629 197 629 222 629 c 2,40,-1
 372 629 l 2,41,42
 400 629 400 629 400 602 c 0,43,44
 400 581 400 581 368 576 c 0,45,46
 361 575 361 575 348 575.5 c 128,-1,47
 335 576 335 576 315 578 c 1,48,-1
 275 406 l 1,49,50
 330 445 330 445 394 445 c 0,51,52
 525 445 525 445 525 353 c 0,53,54
 525 346 525 346 522 327.5 c 128,-1,55
 519 309 519 309 512 280 c 2,56,-1
 461 51 l 1,57,-1
 484 52 l 2,58,59
 527 53 527 53 527 24 c 0,60,61
 527 0 527 0 498 0 c 2,0,1
EndSplineSet
EndChar

StartChar: i
Encoding: 105 105 76
Width: 600
Flags: W
LayerCount: 2
Fore
SplineSet
407 508 m 0,0,1
 391 508 391 508 380 519 c 128,-1,2
 369 530 369 530 369 545 c 0,3,4
 369 559 369 559 382 571.5 c 128,-1,5
 395 584 395 584 408 584 c 0,6,7
 423 584 423 584 434 571.5 c 128,-1,8
 445 559 445 559 445 544 c 0,9,10
 445 508 445 508 407 508 c 0,0,1
432 0 m 2,11,12
 161 0 l 2,13,14
 140 0 140 0 140 24 c 0,15,16
 140 34 140 34 146.5 42.5 c 128,-1,17
 153 51 153 51 161 51 c 2,18,-1
 276 51 l 1,19,-1
 349 389 l 1,20,21
 345 389 345 389 337.5 388.5 c 128,-1,22
 330 388 330 388 318 387 c 0,23,24
 307 386 307 386 299 385.5 c 128,-1,25
 291 385 291 385 285 386 c 0,26,27
 250 388 250 388 250 414 c 0,28,29
 250 423 250 423 256 432 c 128,-1,30
 262 441 262 441 269 441 c 2,31,-1
 378 441 l 2,32,33
 406 441 406 441 406 424 c 0,34,35
 406 416 406 416 401 391 c 2,36,-1
 326 51 l 1,37,-1
 432 51 l 2,38,39
 459 51 459 51 459 24 c 0,40,41
 459 0 459 0 432 0 c 2,11,12
EndSplineSet
EndChar

StartChar: j
Encoding: 106 106 77
Width: 600
Flags: W
LayerCount: 2
Fore
SplineSet
452 509 m 0,0,1
 437 509 437 509 426.5 520 c 128,-1,2
 416 531 416 531 416 545 c 0,3,4
 416 560 416 560 427 571 c 128,-1,5
 438 582 438 582 452 582 c 0,6,7
 467 582 467 582 478 571 c 128,-1,8
 489 560 489 560 489 545 c 256,9,10
 489 530 489 530 478.5 519.5 c 128,-1,11
 468 509 468 509 452 509 c 0,0,1
356 -34 m 2,12,13
 334 -138 334 -138 282 -173 c 0,14,15
 235 -205 235 -205 125 -205 c 0,16,17
 110 -205 110 -205 110 -180 c 0,18,19
 110 -158 110 -158 148 -153 c 0,20,21
 208 -146 208 -146 223 -141 c 0,22,23
 262 -129 262 -129 283 -96 c 0,24,25
 290 -86 290 -86 295.5 -70.5 c 128,-1,26
 301 -55 301 -55 306 -33 c 2,27,-1
 400 388 l 1,28,-1
 273 388 l 2,29,30
 253 388 253 388 253 414 c 0,31,32
 253 423 253 423 260 432 c 128,-1,33
 267 441 267 441 276 441 c 2,34,-1
 464 441 l 1,35,-1
 356 -34 l 2,12,13
EndSplineSet
EndChar

StartChar: k
Encoding: 107 107 78
Width: 600
Flags: W
LayerCount: 2
Fore
SplineSet
502 391 m 1,0,1
 479 388 479 388 477.5 388.5 c 128,-1,2
 476 389 476 389 474 385 c 2,3,-1
 324 277 l 1,4,-1
 487 54 l 1,5,6
 497 54 497 54 500 54 c 128,-1,7
 503 54 503 54 507 54 c 0,8,9
 540 54 540 54 540 25 c 0,10,11
 540 0 540 0 519 0 c 2,12,-1
 383 1 l 2,13,14
 362 1 362 1 362 26 c 0,15,16
 362 53 362 53 411 52 c 1,17,-1
 275 234 l 1,18,-1
 235 204 l 1,19,-1
 202 52 l 1,20,21
 212 53 212 53 218 53.5 c 128,-1,22
 224 54 224 54 226 54 c 0,23,24
 247 54 247 54 255 43 c 1,25,26
 257 33 257 33 257 26 c 0,27,28
 257 1 257 1 237 1 c 2,29,-1
 74 1 l 2,30,31
 56 1 56 1 56 26 c 0,32,33
 56 52 56 52 91 55 c 0,34,35
 97 56 97 56 105 55.5 c 128,-1,36
 113 55 113 55 123 54 c 0,37,38
 134 53 134 53 141 52.5 c 128,-1,39
 148 52 148 52 150 52 c 2,40,-1
 267 577 l 1,41,42
 254 576 254 576 247.5 575.5 c 128,-1,43
 241 575 241 575 240 575 c 0,44,45
 207 575 207 575 207 602 c 0,46,47
 207 634 207 634 270 634 c 0,48,49
 278 634 278 634 289.5 633.5 c 128,-1,50
 301 633 301 633 315 632 c 0,51,52
 331 631 331 631 341.5 630.5 c 128,-1,53
 352 630 352 630 359 630 c 0,54,55
 382 628 382 628 382 603 c 0,56,57
 382 581 382 581 359 576 c 0,58,59
 355 575 355 575 345.5 575.5 c 128,-1,60
 336 576 336 576 319 577 c 1,61,-1
 262 311 l 1,62,-1
 372 391 l 1,63,64
 352 393 352 393 349 412 c 1,65,66
 356 443 356 443 374 443 c 2,67,-1
 515 443 l 2,68,69
 526 443 526 443 535 434 c 128,-1,70
 544 425 544 425 544 414 c 0,71,72
 544 384 544 384 502 391 c 1,0,1
EndSplineSet
EndChar

StartChar: l
Encoding: 108 108 79
Width: 600
Flags: W
LayerCount: 2
Fore
SplineSet
436 0 m 2,0,1
 158 0 l 2,2,3
 136 0 136 0 136 24 c 0,4,5
 136 50 136 50 158 50 c 2,6,-1
 279 50 l 1,7,-1
 396 579 l 1,8,9
 361 576 361 576 356 576 c 0,10,11
 311 576 311 576 311 604 c 0,12,13
 311 631 311 631 336 631 c 2,14,-1
 434 631 l 2,15,16
 457 631 457 631 457 616 c 2,17,18
 457 616 457 616 455 607.5 c 128,-1,19
 453 599 453 599 449 582 c 2,20,-1
 330 50 l 1,21,-1
 436 50 l 2,22,23
 463 50 463 50 463 24 c 0,24,25
 463 0 463 0 436 0 c 2,0,1
EndSplineSet
EndChar

StartChar: m
Encoding: 109 109 80
Width: 600
Flags: W
LayerCount: 2
Fore
SplineSet
561 289 m 2,0,1
 503 51 l 1,2,-1
 518 52 l 2,3,4
 548 52 548 52 548 23 c 0,5,6
 548 16 548 16 544 7 c 0,7,8
 537 0 537 0 531 0 c 2,9,-1
 430 0 l 2,10,11
 412 0 412 0 412 25 c 0,12,13
 412 54 412 54 450 51 c 1,14,-1
 504 272 l 2,15,16
 511 301 511 301 511 326 c 0,17,18
 511 352 511 352 498 368 c 0,19,20
 485 387 485 387 460 387 c 0,21,22
 416 387 416 387 394 354 c 0,23,24
 382 335 382 335 370 283 c 2,25,-1
 316 50 l 1,26,-1
 333 51 l 2,27,28
 364 52 364 52 364 23 c 0,29,30
 364 16 364 16 360 7 c 0,31,32
 353 0 353 0 344 0 c 2,33,-1
 242 0 l 2,34,35
 225 0 225 0 225 24 c 0,36,37
 225 50 225 50 265 51 c 1,38,-1
 333 345 l 1,39,40
 318 389 318 389 272 389 c 0,41,42
 210 389 210 389 194 326 c 2,43,-1
 122 50 l 1,44,45
 142 50 142 50 150 47 c 0,46,47
 161 42 161 42 161 23 c 0,48,49
 161 0 161 0 141 0 c 2,50,-1
 49 0 l 2,51,52
 31 0 31 0 31 25 c 0,53,54
 31 44 31 44 41 48 c 0,55,56
 48 52 48 52 70 51 c 1,57,-1
 140 323 l 2,58,59
 147 350 147 350 147 354 c 0,60,61
 147 386 147 386 112 386 c 0,62,63
 104 386 104 386 97 383 c 1,64,65
 80 388 80 388 80 407 c 0,66,67
 80 439 80 439 115 439 c 0,68,69
 140 439 140 439 165 420 c 0,70,71
 170 417 170 417 174.5 414 c 128,-1,72
 179 411 179 411 184 409 c 1,73,74
 221 440 221 440 269 440 c 0,75,76
 327 440 327 440 363 399 c 1,77,78
 405 442 405 442 460 442 c 0,79,80
 507 442 507 442 537 415 c 0,81,82
 568 387 568 387 568 340 c 0,83,84
 568 317 568 317 561 289 c 2,0,1
EndSplineSet
EndChar

StartChar: n
Encoding: 110 110 81
Width: 600
Flags: W
LayerCount: 2
Fore
SplineSet
517 293 m 2,0,1
 464 51 l 1,2,-1
 484 52 l 2,3,4
 517 53 517 53 517 24 c 0,5,6
 517 0 517 0 492 0 c 2,7,-1
 372 1 l 2,8,9
 352 1 352 1 352 24 c 0,10,11
 352 50 352 50 388 52 c 0,12,13
 390 52 390 52 395 52 c 0,14,15
 401 52 401 52 409 51 c 1,16,17
 414 74 414 74 423 110 c 128,-1,18
 432 146 432 146 445 197 c 0,19,20
 458 251 458 251 464.5 284.5 c 128,-1,21
 471 318 471 318 471 333 c 0,22,23
 471 387 471 387 391 387 c 0,24,25
 357 387 357 387 314 372 c 0,26,27
 260 354 260 354 254 328 c 2,28,-1
 184 51 l 1,29,-1
 210 52 l 2,30,31
 251 54 251 54 251 24 c 0,32,33
 251 1 251 1 227 1 c 2,34,-1
 93 1 l 2,35,36
 80 1 80 1 77 21 c 1,37,38
 86 46 86 46 94 51 c 0,39,40
 97 52 97 52 107 52 c 0,41,42
 111 52 111 52 117 52 c 256,43,44
 123 52 123 52 133 51 c 1,45,-1
 203 350 l 1,46,47
 192 371 192 371 170 385 c 0,48,49
 164 388 164 388 158 391 c 128,-1,50
 152 394 152 394 147 397 c 0,51,52
 135 404 135 404 135 419 c 0,53,54
 135 441 135 441 153 441 c 0,55,56
 199 441 199 441 237 396 c 1,57,58
 299 440 299 440 386 440 c 0,59,60
 522 440 522 440 522 328 c 0,61,62
 522 318 522 318 517 293 c 2,0,1
EndSplineSet
EndChar

StartChar: o
Encoding: 111 111 82
Width: 600
Flags: W
LayerCount: 2
Fore
SplineSet
262 -3 m 0,0,1
 180 -3 180 -3 135 44.5 c 128,-1,2
 90 92 90 92 90 174 c 0,3,4
 90 280 90 280 166 360 c 0,5,6
 243 443 243 443 347 443 c 0,7,8
 427 443 427 443 469 395 c 0,9,10
 510 348 510 348 510 268 c 0,11,12
 510 152 510 152 445 76 c 0,13,14
 378 -3 378 -3 262 -3 c 0,0,1
338 388 m 0,15,16
 261 388 261 388 200 321 c 0,17,18
 140 253 140 253 140 177 c 0,19,20
 140 148 140 148 150.5 124 c 128,-1,21
 161 100 161 100 179 82.5 c 128,-1,22
 197 65 197 65 221.5 55 c 128,-1,23
 246 45 246 45 275 45 c 0,24,25
 355 45 355 45 411 117 c 0,26,27
 462 183 462 183 462 266 c 0,28,29
 462 321 462 321 427.5 354.5 c 128,-1,30
 393 388 393 388 338 388 c 0,15,16
EndSplineSet
EndChar

StartChar: p
Encoding: 112 112 83
Width: 600
Flags: W
LayerCount: 2
Fore
SplineSet
323 -5 m 0,0,1
 263 -5 263 -5 190 32 c 1,2,-1
 149 -160 l 1,3,4
 151 -160 151 -160 158 -159.5 c 128,-1,5
 165 -159 165 -159 177 -158 c 0,6,7
 188 -157 188 -157 196.5 -156.5 c 128,-1,8
 205 -156 205 -156 212 -157 c 0,9,10
 253 -159 253 -159 253 -181 c 0,11,12
 253 -210 253 -210 225 -210 c 2,13,-1
 65 -210 l 2,14,15
 43 -210 43 -210 43 -184 c 0,16,17
 43 -159 43 -159 76 -159 c 0,18,19
 78 -159 78 -159 83 -159 c 0,20,21
 87 -159 87 -159 95 -160 c 1,22,-1
 216 388 l 1,23,24
 205 387 205 387 198.5 386.5 c 128,-1,25
 192 386 192 386 190 386 c 0,26,27
 160 386 160 386 160 413 c 0,28,29
 160 431 160 431 175 440 c 1,30,-1
 398 439 l 2,31,32
 474 437 474 437 517 382 c 0,33,34
 557 332 557 332 557 254 c 0,35,36
 557 145 557 145 494 72 c 0,37,38
 428 -5 428 -5 323 -5 c 0,0,1
386 388 m 2,39,40
 270 388 l 1,41,-1
 202 88 l 1,42,43
 269 48 269 48 322 48 c 0,44,45
 401 48 401 48 453 112 c 0,46,47
 503 171 503 171 503 252 c 0,48,49
 503 309 503 309 474 347 c 0,50,51
 442 388 442 388 386 388 c 2,39,40
EndSplineSet
EndChar

StartChar: q
Encoding: 113 113 84
Width: 600
Flags: W
LayerCount: 2
Fore
SplineSet
539 391 m 0,0,1
 533 391 533 391 516.5 398 c 128,-1,2
 500 405 500 405 486 405 c 0,3,4
 470 405 470 405 466 386 c 2,5,-1
 349 -159 l 1,6,-1
 369 -158 l 2,7,8
 399 -157 399 -157 399 -184 c 0,9,10
 399 -210 399 -210 376 -210 c 2,11,-1
 195 -210 l 2,12,13
 179 -210 179 -210 179 -184 c 0,14,15
 179 -159 179 -159 197 -159 c 2,16,-1
 297 -159 l 1,17,-1
 335 25 l 1,18,19
 272 -3 272 -3 224 -3 c 0,20,21
 140 -3 140 -3 91 61 c 0,22,23
 46 121 46 121 46 208 c 0,24,25
 46 310 46 310 105 375 c 0,26,27
 167 443 167 443 268 443 c 0,28,29
 334 443 334 443 418 403 c 1,30,31
 434 451 434 451 483 451 c 0,32,33
 507 451 507 451 527 442 c 0,34,35
 553 431 553 431 553 413 c 0,36,37
 553 408 553 408 548 399.5 c 128,-1,38
 543 391 543 391 539 391 c 0,0,1
272 386 m 0,39,40
 193 386 193 386 145 334 c 0,41,42
 99 285 99 285 99 205 c 0,43,44
 99 134 99 134 135 91 c 0,45,46
 172 45 172 45 242 45 c 0,47,48
 282 45 282 45 349 91 c 1,49,-1
 406 350 l 1,50,51
 329 386 329 386 272 386 c 0,39,40
EndSplineSet
EndChar

StartChar: r
Encoding: 114 114 85
Width: 600
Flags: W
LayerCount: 2
Fore
SplineSet
530 367 m 0,0,1
 520 367 520 367 494 377 c 0,2,3
 466 388 466 388 450 388 c 0,4,5
 361 388 361 388 231 312 c 1,6,-1
 175 51 l 1,7,-1
 326 50 l 2,8,9
 353 50 353 50 353 22 c 0,10,11
 353 1 353 1 329 1 c 2,12,-1
 68 1 l 2,13,14
 51 1 51 1 51 24 c 0,15,16
 51 44 51 44 76 50 c 0,17,18
 89 51 89 51 122 50 c 1,19,20
 133 93 133 93 144 135 c 128,-1,21
 155 177 155 177 166 220 c 0,22,23
 195 336 195 336 196 386 c 1,24,-1
 189 389 l 1,25,26
 172 389 172 389 157 380 c 1,27,28
 145 390 145 390 145 403 c 0,29,30
 145 444 145 444 223 444 c 0,31,32
 256 444 256 444 256 421 c 0,33,34
 256 412 256 412 253 402 c 0,35,36
 253 398 253 398 246 378 c 1,37,38
 355 441 355 441 450 441 c 0,39,40
 484 441 484 441 510 432 c 0,41,42
 549 418 549 418 549 392 c 0,43,44
 549 367 549 367 530 367 c 0,0,1
EndSplineSet
EndChar

StartChar: s
Encoding: 115 115 86
Width: 600
Flags: W
LayerCount: 2
Fore
SplineSet
488 308 m 0,0,1
 480 290 480 290 460 290 c 0,2,3
 439 290 439 290 439 319 c 0,4,5
 439 322 439 322 443 331 c 0,6,7
 445 334 445 334 446.5 338 c 128,-1,8
 448 342 448 342 450 347 c 1,9,10
 411 387 411 387 316 387 c 0,11,12
 277 387 277 387 240 366 c 0,13,14
 195 340 195 340 195 305 c 0,15,16
 195 275 195 275 238 262 c 0,17,18
 272 254 272 254 306 245.5 c 128,-1,19
 340 237 340 237 374 229 c 0,20,21
 455 202 455 202 455 133 c 0,22,23
 455 62 455 62 392 25 c 0,24,25
 339 -6 339 -6 262 -6 c 0,26,27
 215 -6 215 -6 125 24 c 1,28,29
 111 -6 111 -6 97 -10 c 1,30,31
 66 -4 66 -4 66 18 c 1,32,33
 68 18 68 18 69 25 c 2,34,-1
 72 34 l 2,35,36
 80 51 80 51 100 136 c 0,37,38
 104 151 104 151 120 151 c 0,39,40
 130 151 130 151 144 143 c 1,41,-1
 148 131 l 1,42,-1
 148 128 l 2,43,44
 148 88 148 88 139 75 c 1,45,46
 214 45 214 45 249 45 c 0,47,48
 299 45 299 45 340 64 c 0,49,50
 394 88 394 88 394 133 c 0,51,52
 394 175 394 175 311 189 c 0,53,54
 219 206 219 206 198 214 c 0,55,56
 139 240 139 240 139 305 c 256,57,58
 139 370 139 370 204 409 c 0,59,60
 259 443 259 443 329 443 c 0,61,62
 394 443 394 443 474 398 c 1,63,64
 490 428 490 428 505 428 c 0,65,66
 519 428 519 428 533 411 c 1,67,-1
 533 407 l 1,68,69
 516 374 516 374 488 308 c 0,0,1
EndSplineSet
EndChar

StartChar: t
Encoding: 116 116 87
Width: 600
Flags: W
LayerCount: 2
Fore
SplineSet
450 393 m 1,0,1
 434 382 434 382 367 383 c 2,2,-1
 277 386 l 1,3,-1
 209 148 l 2,4,5
 202 127 202 127 202 105 c 0,6,7
 202 66 202 66 233 53 c 0,8,9
 252 45 252 45 296 45 c 0,10,11
 347 45 347 45 374 69 c 0,12,13
 383 78 383 78 392.5 87 c 128,-1,14
 402 96 402 96 414 98 c 0,15,16
 439 94 439 94 439 66 c 0,17,18
 439 39 439 39 376 15 c 0,19,20
 325 -4 325 -4 286 -4 c 0,21,22
 222 -4 222 -4 191 11 c 0,23,24
 148 33 148 33 148 88 c 0,25,26
 148 113 148 113 156 143 c 2,27,-1
 225 386 l 1,28,29
 178 383 178 383 182 383 c 1,30,31
 146 383 146 383 141 406 c 1,32,33
 149 438 149 438 176 441 c 0,34,35
 182 442 182 442 190 441.5 c 128,-1,36
 198 441 198 441 208 440 c 0,37,38
 221 439 221 439 229 438.5 c 128,-1,39
 237 438 237 438 241 438 c 2,40,-1
 276 565 l 2,41,42
 282 586 282 586 304 590 c 1,43,44
 318 585 318 585 324 578 c 0,45,46
 325 573 325 573 325.5 571 c 128,-1,47
 326 569 326 569 326 568 c 0,48,49
 326 558 326 558 312 507 c 0,50,51
 304 480 304 480 291 438 c 1,52,-1
 436 438 l 2,53,54
 458 438 458 438 458 419 c 0,55,56
 458 406 458 406 450 393 c 1,0,1
EndSplineSet
EndChar

StartChar: u
Encoding: 117 117 88
Width: 600
Flags: W
LayerCount: 2
Fore
SplineSet
458 248 m 0,0,1
 452 226 452 226 446 205 c 128,-1,2
 440 184 440 184 435 162 c 0,3,4
 428 134 428 134 424.5 113 c 128,-1,5
 421 92 421 92 421 76 c 0,6,7
 421 57 421 57 456 49 c 0,8,9
 486 43 486 43 486 21 c 0,10,11
 486 -3 486 -3 456 -3 c 0,12,13
 405 -3 405 -3 385 26 c 1,14,15
 354 -3 354 -3 296 -3 c 0,16,17
 207 -3 207 -3 162 21 c 0,18,19
 102 54 102 54 102 136 c 0,20,21
 102 181 102 181 121 260 c 0,22,23
 126 283 126 283 133.5 314.5 c 128,-1,24
 141 346 141 346 151 388 c 1,25,-1
 131 387 l 2,26,27
 98 385 98 385 98 413 c 0,28,29
 98 422 98 422 109 431 c 128,-1,30
 120 440 120 440 129 440 c 2,31,-1
 216 440 l 1,32,33
 206 403 206 403 197 366 c 128,-1,34
 188 329 188 329 178 291 c 0,35,36
 153 192 153 192 153 146 c 0,37,38
 153 46 153 46 275 46 c 0,39,40
 363 46 363 46 374 94 c 2,41,-1
 437 387 l 1,42,-1
 413 386 l 2,43,44
 372 384 372 384 372 413 c 256,45,46
 372 442 372 442 428 442 c 0,47,48
 435 442 435 442 444 442 c 256,49,50
 453 442 453 442 464 441 c 0,51,52
 478 440 478 440 487.5 439.5 c 128,-1,53
 497 439 497 439 502 439 c 1,54,55
 494 407 494 407 483 359.5 c 128,-1,56
 472 312 472 312 458 248 c 0,0,1
EndSplineSet
EndChar

StartChar: v
Encoding: 118 118 89
Width: 600
Flags: W
LayerCount: 2
Fore
SplineSet
500 389 m 0,0,1
 496 388 496 388 487.5 387.5 c 128,-1,2
 479 387 479 387 465 388 c 1,3,-1
 269 14 l 2,4,5
 252 -16 252 -16 241 -16 c 0,6,7
 226 -16 226 -16 220 17 c 2,8,-1
 149 388 l 1,9,10
 132 387 132 387 124.5 386.5 c 128,-1,11
 117 386 117 386 119 386 c 1,12,13
 84 386 84 386 84 413 c 256,14,15
 84 440 84 440 105 440 c 2,16,-1
 238 440 l 2,17,18
 263 440 263 440 263 413 c 0,19,20
 263 385 263 385 214 388 c 1,21,-1
 262 125 l 1,22,-1
 401 388 l 1,23,24
 387 387 387 387 380 389 c 0,25,26
 371 393 371 393 371 413 c 0,27,28
 371 440 371 440 385 440 c 2,29,-1
 494 440 l 2,30,31
 515 440 515 440 515 413 c 0,32,33
 515 393 515 393 500 389 c 0,0,1
EndSplineSet
EndChar

StartChar: w
Encoding: 119 119 90
Width: 600
Flags: W
LayerCount: 2
Fore
SplineSet
564 390 m 0,0,1
 555 387 555 387 534 388 c 1,2,-1
 352 9 l 2,3,4
 343 -9 343 -9 326 -9 c 0,5,6
 308 -9 308 -9 303 8 c 2,7,-1
 259 166 l 1,8,-1
 135 1 l 2,9,10
 125 -12 125 -12 109 -12 c 0,11,12
 90 -12 90 -12 88 5 c 2,13,-1
 68 388 l 1,14,-1
 52 388 l 2,15,16
 23 386 23 386 23 413 c 0,17,18
 23 421 23 421 28.5 430.5 c 128,-1,19
 34 440 34 440 41 440 c 2,20,-1
 180 440 l 2,21,22
 199 440 199 440 199 412 c 0,23,24
 199 387 199 387 171 386 c 1,25,26
 175 386 175 386 125 388 c 1,27,-1
 140 125 l 1,28,-1
 252 272 l 2,29,30
 262 288 262 288 279 288 c 0,31,32
 291 288 291 288 296 270 c 2,33,-1
 342 125 l 1,34,-1
 467 388 l 1,35,36
 460 387 460 387 453.5 386.5 c 128,-1,37
 447 386 447 386 445 386 c 0,38,39
 411 386 411 386 411 416 c 0,40,41
 411 440 411 440 429 440 c 2,42,-1
 554 440 l 2,43,44
 576 440 576 440 576 413 c 0,45,46
 576 394 576 394 564 390 c 0,0,1
EndSplineSet
EndChar

StartChar: x
Encoding: 120 120 91
Width: 600
Flags: W
LayerCount: 2
Fore
SplineSet
521 387 m 1,0,1
 523 387 523 387 518 387 c 256,2,3
 513 387 513 387 502 388 c 1,4,-1
 319 211 l 1,5,-1
 409 50 l 1,6,-1
 472 51 l 2,7,8
 491 51 491 51 491 24 c 0,9,10
 491 0 491 0 472 0 c 2,11,-1
 331 0 l 2,12,13
 308 0 308 0 308 24 c 0,14,15
 308 51 308 51 350 50 c 1,16,-1
 284 177 l 1,17,18
 274 167 274 167 259 151.5 c 128,-1,19
 244 136 244 136 222 114 c 0,20,21
 179 71 179 71 170 52 c 1,22,23
 178 49 178 49 185 50 c 2,24,-1
 192 51 l 2,25,26
 194 52 194 52 197 52 c 0,27,28
 212 52 212 52 218 31 c 0,29,30
 217 27 217 27 216 22 c 128,-1,31
 215 17 215 17 213 10 c 0,32,33
 208 1 208 1 196 1 c 2,34,-1
 57 0 l 2,35,36
 41 0 41 0 41 24 c 0,37,38
 41 43 41 43 56 48 c 0,39,40
 72 51 72 51 87.5 55 c 128,-1,41
 103 59 103 59 114 70 c 2,42,-1
 264 224 l 1,43,-1
 173 388 l 2,44,45
 170 388 170 388 161 387 c 128,-1,46
 152 386 152 386 148 386 c 0,47,48
 117 386 117 386 117 412 c 0,49,50
 117 439 117 439 136 439 c 2,51,-1
 275 439 l 2,52,53
 297 439 297 439 297 412 c 0,54,55
 297 393 297 393 277 388 c 0,56,57
 266 385 266 385 234 388 c 1,58,-1
 301 259 l 1,59,-1
 433 387 l 1,60,-1
 418 387 l 2,61,62
 384 386 384 386 384 413 c 0,63,64
 384 423 384 423 392.5 431.5 c 128,-1,65
 401 440 401 440 412 440 c 2,66,-1
 532 440 l 2,67,68
 558 440 558 440 558 412 c 0,69,70
 558 387 558 387 521 387 c 1,0,1
EndSplineSet
EndChar

StartChar: y
Encoding: 121 121 92
Width: 600
Flags: W
LayerCount: 2
Fore
SplineSet
487 387 m 0,0,1
 483 388 483 388 478 388 c 256,2,3
 473 388 473 388 465 389 c 1,4,-1
 209 -160 l 1,5,6
 220 -159 220 -159 226 -158.5 c 128,-1,7
 232 -158 232 -158 234 -158 c 0,8,9
 265 -158 265 -158 265 -184 c 256,10,11
 265 -210 265 -210 242 -210 c 2,12,-1
 88 -210 l 1,13,14
 74 -202 74 -202 74 -184 c 0,15,16
 74 -160 74 -160 100 -157 c 0,17,18
 102 -157 102 -157 149 -160 c 1,19,-1
 246 56 l 1,20,-1
 148 389 l 1,21,-1
 115 388 l 2,22,23
 97 386 97 386 97 413 c 0,24,25
 97 421 97 421 102.5 430.5 c 128,-1,26
 108 440 108 440 114 440 c 2,27,-1
 215 440 l 2,28,29
 227 440 227 440 231 430 c 0,30,31
 233 425 233 425 234 420 c 128,-1,32
 235 415 235 415 237 410 c 0,33,34
 234 387 234 387 202 389 c 1,35,-1
 283 121 l 1,36,-1
 403 388 l 1,37,38
 371 385 371 385 370 385 c 0,39,40
 338 385 338 385 338 413 c 0,41,42
 338 440 338 440 355 440 c 2,43,-1
 503 440 l 2,44,45
 525 440 525 440 525 414 c 0,46,47
 525 385 525 385 487 387 c 0,0,1
EndSplineSet
EndChar

StartChar: z
Encoding: 122 122 93
Width: 600
Flags: W
LayerCount: 2
Fore
SplineSet
510 394 m 1,0,-1
 203 51 l 1,1,-1
 394 51 l 1,2,3
 400 62 400 62 406 74 c 128,-1,4
 412 86 412 86 418 98 c 0,5,6
 434 124 434 124 457 129 c 1,7,8
 480 123 480 123 480 106 c 0,9,10
 480 99 480 99 429 0 c 1,11,-1
 96 0 l 1,12,13
 81 7 81 7 81 22 c 0,14,15
 81 31 81 31 90 42 c 2,16,17
 407 388 l 1,18,-1
 197 388 l 2,19,20
 196 386 196 386 194 379.5 c 128,-1,21
 192 373 192 373 189 362 c 0,22,23
 177 318 177 318 147 313 c 1,24,25
 130 316 130 316 125 333 c 1,26,-1
 151 423 l 1,27,28
 165 440 165 440 188 440 c 2,29,-1
 498 440 l 2,30,31
 519 440 519 440 521 410 c 1,32,-1
 510 394 l 1,0,-1
EndSplineSet
EndChar

StartChar: braceleft
Encoding: 123 123 94
Width: 600
Flags: W
LayerCount: 2
Fore
SplineSet
385 533 m 0,0,1
 355 525 355 525 339 504 c 128,-1,2
 323 483 323 483 315 438 c 2,3,-1
 306 366 l 2,4,5
 294 274 294 274 241 251 c 1,6,7
 296 225 296 225 306 123 c 0,8,9
 308 103 308 103 310.5 83.5 c 128,-1,10
 313 64 313 64 315 44 c 0,11,12
 319 20 319 20 325.5 2 c 128,-1,13
 332 -16 332 -16 340 -29 c 0,14,15
 361 -58 361 -58 419 -64 c 0,16,17
 431 -66 431 -66 452 -70 c 0,18,19
 465 -74 465 -74 465 -87 c 0,20,21
 465 -109 465 -109 433 -109 c 0,22,23
 330 -109 330 -109 296 -54 c 0,24,25
 277 -23 277 -23 266 88 c 0,26,27
 262 120 262 120 256.5 145.5 c 128,-1,28
 251 171 251 171 243 190 c 0,29,30
 230 221 230 221 176 226 c 0,31,32
 170 226 170 226 162 227 c 128,-1,33
 154 228 154 228 144 230 c 0,34,35
 132 234 132 234 132 248 c 0,36,37
 132 261 132 261 144 266 c 0,38,39
 148 267 148 267 155.5 268 c 128,-1,40
 163 269 163 269 176 271 c 0,41,42
 230 276 230 276 243 304 c 0,43,44
 259 338 259 338 267 397 c 0,45,46
 272 435 272 435 275.5 458.5 c 128,-1,47
 279 482 279 482 281 492 c 0,48,49
 292 536 292 536 322 557 c 0,50,51
 360 583 360 583 433 583 c 0,52,53
 468 583 468 583 468 560 c 0,54,55
 468 543 468 543 440 539 c 0,56,57
 426 537 426 537 412.5 536 c 128,-1,58
 399 535 399 535 385 533 c 0,0,1
EndSplineSet
EndChar

StartChar: bar
Encoding: 124 124 95
Width: 600
Flags: W
LayerCount: 2
Fore
SplineSet
301 -105 m 0,0,1
 276 -105 276 -105 276 -76 c 2,2,-1
 276 592 l 2,3,4
 276 616 276 616 302 616 c 0,5,6
 324 616 324 616 324 592 c 2,7,-1
 324 -78 l 2,8,9
 324 -105 324 -105 301 -105 c 0,0,1
EndSplineSet
EndChar

StartChar: braceright
Encoding: 125 125 96
Width: 600
Flags: W
LayerCount: 2
Fore
SplineSet
457 230 m 0,0,1
 451 228 451 228 426 226 c 0,2,3
 372 221 372 221 359 190 c 0,4,5
 345 156 345 156 337 91 c 0,6,7
 333 51 333 51 329.5 26.5 c 128,-1,8
 326 2 326 2 324 -9 c 0,9,10
 312 -57 312 -57 282 -81 c 0,11,12
 245 -109 245 -109 168 -109 c 0,13,14
 137 -109 137 -109 137 -87 c 0,15,16
 137 -71 137 -71 164 -66 c 0,17,18
 178 -64 178 -64 191.5 -62 c 128,-1,19
 205 -60 205 -60 219 -58 c 0,20,21
 249 -50 249 -50 263 -29 c 0,22,23
 278 -7 278 -7 286 43 c 0,24,25
 288 63 288 63 290 82.5 c 128,-1,26
 292 102 292 102 294 122 c 0,27,28
 304 225 304 225 354 251 c 1,29,30
 305 272 305 272 294 364 c 0,31,32
 291 398 291 398 289 416 c 128,-1,33
 287 434 287 434 286 437 c 0,34,35
 279 480 279 480 261 504 c 0,36,37
 246 525 246 525 215 532 c 0,38,39
 201 534 201 534 187.5 536 c 128,-1,40
 174 538 174 538 160 540 c 0,41,42
 131 545 131 545 131 561 c 0,43,44
 131 583 131 583 168 583 c 0,45,46
 267 583 267 583 298 534 c 0,47,48
 315 506 315 506 330 400 c 0,49,50
 338 339 338 339 355 305 c 0,51,52
 370 276 370 276 424 271 c 0,53,54
 430 270 430 270 438 269 c 128,-1,55
 446 268 446 268 457 266 c 0,56,57
 469 261 469 261 469 248 c 0,58,59
 469 234 469 234 457 230 c 0,0,1
EndSplineSet
EndChar

StartChar: asciitilde
Encoding: 126 126 97
Width: 600
Flags: W
LayerCount: 2
Fore
SplineSet
383 197 m 0,0,1
 346 197 346 197 279 221 c 0,2,3
 211 245 211 245 175 245 c 0,4,5
 156 245 156 245 142.5 233.5 c 128,-1,6
 129 222 129 222 117 210 c 0,7,8
 109 205 109 205 104 205 c 0,9,10
 81 205 81 205 81 228 c 0,11,12
 81 255 81 255 113 278 c 0,13,14
 142 298 142 298 170 298 c 0,15,16
 207 298 207 298 277 272 c 0,17,18
 346 247 346 247 385 247 c 0,19,20
 447 247 447 247 467 271 c 0,21,22
 470 272 470 272 475 281 c 0,23,24
 491 305 491 305 501 305 c 0,25,26
 518 305 518 305 518 275 c 0,27,28
 518 234 518 234 468 213 c 0,29,30
 432 197 432 197 383 197 c 0,0,1
EndSplineSet
EndChar

StartChar: exclamdown
Encoding: 161 161 99
Width: 600
Flags: W
LayerCount: 2
Fore
SplineSet
300 320 m 0,0,1
 269 320 269 320 248.5 341.5 c 128,-1,2
 228 363 228 363 228 394 c 0,3,4
 228 409 228 409 234 422.5 c 128,-1,5
 240 436 240 436 249.5 446.5 c 128,-1,6
 259 457 259 457 272 463.5 c 128,-1,7
 285 470 285 470 300 470 c 0,8,9
 331 470 331 470 351.5 447.5 c 128,-1,10
 372 425 372 425 372 394 c 0,11,12
 372 362 372 362 352 341 c 128,-1,13
 332 320 332 320 300 320 c 0,0,1
300 -122 m 0,14,15
 246 -122 246 -122 246 -73 c 0,16,17
 246 -43 246 -43 266 -20 c 1,18,19
 270 6 270 6 272 32.5 c 128,-1,20
 274 59 274 59 274 87 c 0,21,22
 274 128 274 128 278 151 c 0,23,24
 286 198 286 198 303 198 c 0,25,26
 331 198 331 198 331 123 c 0,27,28
 331 116 331 116 330.5 107 c 128,-1,29
 330 98 330 98 330 90 c 256,30,31
 330 82 330 82 329.5 76 c 128,-1,32
 329 70 329 70 329 69 c 0,33,34
 329 63 329 63 332 40.5 c 128,-1,35
 335 18 335 18 340 -20 c 1,36,37
 358 -43 358 -43 358 -69 c 0,38,39
 358 -122 358 -122 300 -122 c 0,14,15
EndSplineSet
EndChar

StartChar: cent
Encoding: 162 162 100
Width: 600
Flags: W
LayerCount: 2
Fore
SplineSet
490 377 m 0,0,1
 483 377 483 377 473 387 c 0,2,3
 431 428 431 428 343 435 c 1,4,-1
 343 119 l 1,5,6
 406 121 406 121 467 170 c 0,7,8
 477 179 477 179 482 179 c 0,9,10
 503 179 503 179 503 151 c 0,11,12
 503 115 503 115 442 88 c 0,13,14
 395 68 395 68 346 62 c 1,15,16
 348 39 348 39 346 -11 c 0,17,18
 343 -61 343 -61 317 -61 c 0,19,20
 292 -61 292 -61 289 -9 c 0,21,22
 287 7 287 7 292 66 c 1,23,24
 203 69 203 69 144 129 c 0,25,26
 87 190 87 190 87 278 c 0,27,28
 87 365 87 365 145 423 c 0,29,30
 201 479 201 479 292 487 c 1,31,32
 289 527 289 527 289 530 c 0,33,34
 289 577 289 577 317 577 c 0,35,36
 341 577 341 577 346 544 c 0,37,38
 346 538 346 538 343 486 c 1,39,40
 390 485 390 485 445 463 c 0,41,42
 513 437 513 437 513 404 c 0,43,44
 513 394 513 394 506 385.5 c 128,-1,45
 499 377 499 377 490 377 c 0,0,1
292 435 m 1,46,47
 220 426 220 426 180 384 c 128,-1,48
 140 342 140 342 140 273 c 0,49,50
 140 212 140 212 184 166 c 0,51,52
 230 120 230 120 292 119 c 1,53,-1
 292 435 l 1,46,47
EndSplineSet
EndChar

StartChar: sterling
Encoding: 163 163 101
Width: 600
Flags: W
LayerCount: 2
Fore
SplineSet
499 21 m 1,0,1
 459 -1 459 -1 416 -1 c 0,2,3
 349 -1 349 -1 243 59 c 1,4,5
 234 44 234 44 220 30 c 2,6,-1
 196 6 l 1,7,8
 178 -1 178 -1 151 -1 c 0,9,10
 118 -1 118 -1 97 27 c 0,11,12
 78 52 78 52 78 89 c 0,13,14
 78 115 78 115 98.5 133.5 c 128,-1,15
 119 152 119 152 145 152 c 0,16,17
 157 152 157 152 175 146 c 0,18,19
 180 144 180 144 188 140.5 c 128,-1,20
 196 137 196 137 207 132 c 1,21,22
 210 150 210 150 210 166 c 0,23,24
 210 230 210 230 198 274 c 1,25,-1
 176 274 l 2,26,27
 128 272 128 272 128 299 c 0,28,29
 128 319 128 319 150 323 c 0,30,31
 160 324 160 324 192 323 c 1,32,-1
 192 336 l 2,33,34
 192 352 192 352 189 382 c 0,35,36
 188 398 188 398 187.5 409 c 128,-1,37
 187 420 187 420 187 428 c 0,38,39
 187 586 187 586 318 586 c 0,40,41
 354 586 354 586 414 550 c 0,42,43
 480 512 480 512 480 481 c 0,44,45
 480 454 480 454 456 454 c 0,46,47
 444 454 444 454 397 492 c 0,48,49
 349 531 349 531 318 531 c 256,50,51
 287 531 287 531 265 507.5 c 128,-1,52
 243 484 243 484 243 453 c 0,53,54
 243 448 243 448 244 416 c 128,-1,55
 245 384 245 384 247 323 c 1,56,-1
 370 323 l 2,57,58
 395 323 395 323 395 294 c 0,59,60
 395 272 395 272 373 272 c 2,61,-1
 253 272 l 1,62,63
 263 213 263 213 263 115 c 1,64,65
 370 50 370 50 419 50 c 0,66,67
 444 50 444 50 456 55 c 0,68,69
 459 56 459 56 480 77 c 0,70,71
 488 83 488 83 497 86 c 1,72,73
 521 75 521 75 521 59 c 0,74,75
 521 50 521 50 499 21 c 1,0,1
141 98 m 0,76,77
 131 98 131 98 127 86 c 1,78,79
 137 50 137 50 154 50 c 0,80,81
 181 50 181 50 193 82 c 1,82,83
 167 98 167 98 141 98 c 0,76,77
EndSplineSet
EndChar

StartChar: yen
Encoding: 165 165 103
Width: 600
Flags: W
LayerCount: 2
Fore
SplineSet
233 101 m 1,0,-1
 220 46 l 1,1,-1
 320 46 l 2,2,3
 342 46 342 46 342 22 c 0,4,5
 341 14 341 14 336 6 c 0,6,7
 328 0 328 0 316 0 c 2,8,-1
 67 0 l 2,9,10
 50 0 50 0 50 22 c 0,11,12
 50 46 50 46 67 46 c 2,13,-1
 172 46 l 1,14,-1
 185 101 l 1,15,-1
 60 101 l 2,16,17
 41 101 41 101 41 123 c 2,18,-1
 41 125 l 2,19,20
 41 133 41 133 45.5 140 c 128,-1,21
 50 147 50 147 60 148 c 2,22,-1
 195 148 l 1,23,-1
 210 213 l 1,24,-1
 84 213 l 2,25,26
 73 213 73 213 69 219 c 0,27,28
 63 225 63 225 61 235 c 0,29,30
 61 244 61 244 67 252 c 128,-1,31
 73 260 73 260 86 260 c 2,32,-1
 219 260 l 1,33,-1
 226 288 l 1,34,-1
 155 532 l 1,35,-1
 123 533 l 1,36,-1
 121 533 l 2,37,38
 112 533 112 533 108 539 c 128,-1,39
 104 545 104 545 104 552 c 2,40,-1
 104 554 l 2,41,42
 104 563 104 563 109 570.5 c 128,-1,43
 114 578 114 578 123 578 c 2,44,-1
 247 578 l 2,45,46
 255 578 255 578 260 570.5 c 128,-1,47
 265 563 265 563 265 553 c 0,48,49
 265 545 265 545 261 538.5 c 128,-1,50
 257 532 257 532 247 532 c 2,51,-1
 202 532 l 1,52,-1
 256 336 l 1,53,-1
 400 532 l 1,54,-1
 349 532 l 2,55,56
 333 532 333 532 333 550 c 2,57,-1
 333 553 l 2,58,59
 334 563 334 563 340 570.5 c 128,-1,60
 346 578 346 578 354 578 c 2,61,-1
 477 578 l 2,62,63
 488 578 488 578 493 569 c 0,64,65
 497 565 497 565 497 557 c 2,66,-1
 497 553 l 2,67,68
 498 542 498 542 491 538.5 c 128,-1,69
 484 535 484 535 474 532.5 c 128,-1,70
 464 530 464 530 454.5 526 c 128,-1,71
 445 522 445 522 440 511 c 2,72,-1
 272 282 l 1,73,-1
 267 260 l 1,74,-1
 391 260 l 2,75,76
 416 260 416 260 416 235 c 0,77,78
 416 227 416 227 410 220 c 128,-1,79
 404 213 404 213 394 213 c 2,80,-1
 258 213 l 1,81,-1
 243 148 l 1,82,-1
 368 148 l 2,83,84
 379 148 379 148 385 140 c 128,-1,85
 391 132 391 132 392 123 c 0,86,87
 391 114 391 114 386 107.5 c 128,-1,88
 381 101 381 101 372 101 c 2,89,-1
 233 101 l 1,0,-1
EndSplineSet
EndChar

StartChar: dieresis
Encoding: 168 168 104
Width: 600
Flags: W
LayerCount: 2
Fore
SplineSet
440 579 m 0,0,1
 412 579 412 579 392.5 597 c 128,-1,2
 373 615 373 615 373 643 c 0,3,4
 373 670 373 670 392.5 689 c 128,-1,5
 412 708 412 708 440 708 c 0,6,7
 467 708 467 708 486 689.5 c 128,-1,8
 505 671 505 671 505 643 c 256,9,10
 505 615 505 615 486 597 c 128,-1,11
 467 579 467 579 440 579 c 0,0,1
160 579 m 0,12,13
 133 579 133 579 114 597.5 c 128,-1,14
 95 616 95 616 95 643 c 0,15,16
 95 655 95 655 100.5 666.5 c 128,-1,17
 106 678 106 678 115.5 687 c 128,-1,18
 125 696 125 696 136.5 701.5 c 128,-1,19
 148 707 148 707 160 707 c 0,20,21
 187 707 187 707 206.5 688 c 128,-1,22
 226 669 226 669 226 643 c 0,23,24
 226 615 226 615 207.5 597 c 128,-1,25
 189 579 189 579 160 579 c 0,12,13
EndSplineSet
EndChar

StartChar: uni00AD
Encoding: 173 173 105
Width: 600
Flags: W
LayerCount: 2
Fore
SplineSet
471 233 m 0,0,1
 464 228 464 228 454 228 c 2,2,-1
 146 228 l 2,3,4
 122 228 122 228 122 250 c 0,5,6
 122 275 122 275 149 275 c 2,7,-1
 451 275 l 2,8,9
 477 275 477 275 477 250 c 0,10,11
 477 243 477 243 471 233 c 0,0,1
EndSplineSet
EndChar

StartChar: macron
Encoding: 175 175 106
Width: 600
Flags: W
LayerCount: 2
Fore
SplineSet
465 581 m 2,0,1
 130 581 l 2,2,3
 109 581 109 581 109 604 c 0,4,5
 109 628 109 628 130 628 c 2,6,-1
 465 628 l 2,7,8
 491 628 491 628 491 604 c 0,9,10
 491 581 491 581 465 581 c 2,0,1
EndSplineSet
EndChar

StartChar: degree
Encoding: 176 176 107
Width: 600
Flags: W
LayerCount: 2
Fore
SplineSet
291 462 m 4,0,1
 236 462 236 462 197 506 c 4,2,3
 161 548 161 548 161 605 c 4,4,5
 161 666 161 666 199.5 703.5 c 132,-1,6
 238 741 238 741 299 741 c 4,7,8
 363 741 363 741 401 702.5 c 132,-1,9
 439 664 439 664 439 600 c 4,10,11
 439 535 439 535 397 498 c 4,12,13
 356 462 356 462 291 462 c 4,0,1
298 675 m 4,14,15
 266 675 266 675 243 656 c 4,16,17
 218 637 218 637 218 605 c 4,18,19
 218 572 218 572 241.5 548.5 c 132,-1,20
 265 525 265 525 298 525 c 4,21,22
 333 525 333 525 355 547.5 c 132,-1,23
 377 570 377 570 377 605 c 4,24,25
 377 637 377 637 354 657 c 4,26,27
 331 675 331 675 298 675 c 4,14,15
EndSplineSet
EndChar

StartChar: plusminus
Encoding: 177 177 108
Width: 600
Flags: W
LayerCount: 2
Fore
SplineSet
543 -161 m 6,0,1
 52 -161 l 6,2,3
 27 -161 27 -161 27 -134 c 4,4,5
 27 -125 27 -125 34.5 -117.5 c 132,-1,6
 42 -110 42 -110 52 -110 c 6,7,-1
 545 -110 l 6,8,9
 572 -110 572 -110 572 -134 c 4,10,11
 572 -145 572 -145 563 -153 c 132,-1,12
 554 -161 554 -161 543 -161 c 6,0,1
484 225 m 2,13,-1
 321 225 l 1,14,-1
 321 48 l 2,15,16
 321 10 321 10 295 10 c 0,17,18
 266 10 266 10 266 48 c 2,19,-1
 266 225 l 1,20,-1
 115 226 l 2,21,22
 91 226 91 226 91 250 c 0,23,24
 91 276 91 276 119 276 c 2,25,26
 266 276 l 1,27,-1
 266 445 l 2,28,29
 266 457 266 457 275 466 c 128,-1,30
 284 475 284 475 296 475 c 0,31,32
 321 475 321 475 321 446 c 2,33,-1
 321 276 l 1,34,-1
 484 276 l 2,35,36
 508 276 508 276 508 249 c 0,37,38
 508 225 508 225 484 225 c 2,13,-1
EndSplineSet
EndChar

StartChar: acute
Encoding: 180 180 109
Width: 600
Flags: W
LayerCount: 2
Fore
SplineSet
244 430 m 0,0,1
 256 430 256 430 317 489 c 0,2,3
 376 548 376 548 376 561 c 0,4,5
 376 587 376 587 347 587 c 0,6,7
 336 587 336 587 280 528 c 0,8,9
 223 469 223 469 223 457 c 0,10,11
 223 430 223 430 244 430 c 0,0,1
EndSplineSet
EndChar

StartChar: paragraph
Encoding: 182 182 110
Width: 600
Flags: W
LayerCount: 2
Fore
SplineSet
520 576 m 0,0,1
 514 575 514 575 502 574.5 c 128,-1,2
 490 574 490 574 473 575 c 1,3,-1
 351 51 l 1,4,5
 368 52 368 52 376.5 52.5 c 128,-1,6
 385 53 385 53 387 53 c 0,7,8
 435 53 435 53 435 23 c 0,9,10
 435 0 435 0 408 0 c 2,11,-1
 313 0 l 2,12,13
 302 0 302 0 293 4 c 1,14,15
 290 11 290 11 290 18 c 0,16,17
 290 23 290 23 291 31 c 128,-1,18
 292 39 292 39 294 49 c 2,19,-1
 422 578 l 1,20,-1
 350 577 l 1,21,-1
 229 48 l 2,22,23
 228 38 228 38 218 15 c 1,24,25
 207 0 207 0 189 0 c 2,26,-1
 71 0 l 2,27,28
 52 0 52 0 52 20 c 0,29,30
 52 30 52 30 60 40.5 c 128,-1,31
 68 51 68 51 77 51 c 2,32,-1
 180 51 l 1,33,-1
 228 273 l 1,34,35
 157 274 157 274 108 331 c 0,36,37
 63 383 63 383 63 456 c 0,38,39
 63 542 63 542 158 590 c 0,40,41
 234 629 234 629 331 629 c 2,42,-1
 524 629 l 2,43,44
 547 629 547 629 547 602 c 0,45,46
 547 582 547 582 520 576 c 0,0,1
117 444 m 0,47,48
 117 419 117 419 126.5 397.5 c 128,-1,49
 136 376 136 376 152.5 360 c 128,-1,50
 169 344 169 344 191.5 334.5 c 128,-1,51
 214 325 214 325 240 324 c 1,52,53
 297 577 l 1,54,55
 226 575 226 575 176 545 c 0,56,57
 117 509 117 509 117 444 c 0,47,48
EndSplineSet
EndChar

StartChar: periodcentered
Encoding: 183 183 111
Width: 600
Flags: W
LayerCount: 2
Fore
SplineSet
298 211 m 0,0,1
 285 211 285 211 274 222 c 128,-1,2
 263 233 263 233 263 246 c 256,3,4
 263 259 263 259 275.5 271 c 128,-1,5
 288 283 288 283 301 283 c 0,6,7
 315 283 315 283 325.5 271.5 c 128,-1,8
 336 260 336 260 336 245 c 256,9,10
 336 230 336 230 325 220.5 c 128,-1,11
 314 211 314 211 298 211 c 0,0,1
EndSplineSet
EndChar

StartChar: questiondown
Encoding: 191 191 113
Width: 600
Flags: W
LayerCount: 2
Fore
SplineSet
414 359 m 0,0,1
 392 359 392 359 376 373 c 128,-1,2
 360 387 360 387 360 408 c 0,3,4
 360 462 360 462 408 462 c 0,5,6
 431 462 431 462 446 445.5 c 128,-1,7
 461 429 461 429 461 406 c 0,8,9
 461 359 461 359 414 359 c 0,0,1
260 78 m 0,10,11
 192 19 192 19 192 -19 c 0,12,13
 192 -42 192 -42 226 -57 c 0,14,15
 251 -69 251 -69 278 -69 c 0,16,17
 299 -69 299 -69 324 -56 c 0,18,19
 335 -50 335 -50 345 -44 c 128,-1,20
 355 -38 355 -38 366 -33 c 1,21,22
 398 -41 398 -41 398 -61 c 0,23,24
 398 -82 398 -82 348 -102 c 0,25,26
 306 -118 306 -118 276 -118 c 0,27,28
 139 -118 139 -118 139 -14 c 0,29,30
 139 29 139 29 171 67 c 0,31,32
 190 90 190 90 238 127 c 0,33,34
 254 140 254 140 265.5 149.5 c 128,-1,35
 277 159 277 159 284 166 c 0,36,37
 328 209 328 209 344 239 c 0,38,39
 347 246 347 246 352 255 c 128,-1,40
 357 264 357 264 364 275 c 0,41,42
 371 285 371 285 380 285 c 0,43,44
 404 285 404 285 404 251 c 0,45,46
 404 209 404 209 350 155 c 0,47,48
 327 136 327 136 305 117 c 128,-1,49
 283 98 283 98 260 78 c 0,10,11
EndSplineSet
EndChar

StartChar: Agrave
Encoding: 192 192 114
Width: 600
Flags: W
LayerCount: 2
Fore
SplineSet
448 593 m 5,0,1
 441 589 441 589 436 582 c 4,2,3
 431 581 431 581 418 581 c 4,4,5
 413 581 413 581 369 637 c 4,6,7
 358 651 358 651 344.5 668 c 132,-1,8
 331 685 331 685 316 705 c 5,9,-1
 318 707 l 5,10,-1
 317 714 l 5,11,12
 320 724 320 724 327 731 c 4,13,14
 331 733 331 733 335 734.5 c 132,-1,15
 339 736 339 736 344 738 c 4,16,17
 362 734 362 734 406 677 c 4,18,19
 451 621 451 621 451 603 c 4,20,21
 451 600 451 600 448 593 c 5,0,1
506 0 m 2,22,23
 336 0 l 2,24,25
 323 0 323 0 323 23 c 0,26,27
 323 44 323 44 347 49 c 0,28,29
 353 50 353 50 394 47 c 1,30,-1
 390 150 l 1,31,-1
 221 150 l 1,32,-1
 165 48 l 1,33,34
 174 49 174 49 180 49 c 256,35,36
 186 49 186 49 190 49 c 0,37,38
 215 49 215 49 221 39 c 0,39,40
 222 31 222 31 222 27 c 0,41,42
 222 24 222 24 222 23 c 0,43,44
 222 0 222 0 199 0 c 2,45,-1
 68 0 l 2,46,47
 50 0 50 0 50 23 c 0,48,49
 50 42 50 42 71 47 c 0,50,51
 80 49 80 49 112 47 c 1,52,-1
 354 516 l 2,53,54
 365 539 365 539 400 539 c 0,55,56
 434 539 434 539 434 516 c 2,57,-1
 446 47 l 1,58,59
 486 50 486 50 484 50 c 1,60,61
 526 50 526 50 526 22 c 0,62,63
 526 0 526 0 506 0 c 2,22,23
388 335 m 0,64,65
 387 395 387 395 385 428 c 128,-1,66
 383 461 383 461 381 468 c 1,67,-1
 377 464 l 1,68,-1
 246 198 l 1,69,-1
 390 197 l 1,70,71
 390 216 390 216 389.5 250 c 128,-1,72
 389 284 389 284 388 335 c 0,64,65
EndSplineSet
EndChar

StartChar: Aacute
Encoding: 193 193 115
Width: 600
Flags: W
LayerCount: 2
Fore
SplineSet
413 629 m 4,0,1
 371 577 371 577 356 577 c 260,2,3
 341 577 341 577 331 598 c 5,4,-1
 336 616 l 5,5,-1
 424 728 l 5,6,-1
 439 734 l 5,7,8
 455 729 455 729 465 720 c 4,9,10
 466 716 466 716 466 711 c 260,11,12
 466 706 466 706 467 700 c 5,13,14
 459 689 459 689 445.5 671.5 c 132,-1,15
 432 654 432 654 413 629 c 4,0,1
506 0 m 2,16,17
 336 0 l 2,18,19
 323 0 323 0 323 23 c 0,20,21
 323 44 323 44 347 49 c 0,22,23
 353 50 353 50 394 47 c 1,24,-1
 390 150 l 1,25,-1
 221 150 l 1,26,-1
 165 48 l 1,27,28
 174 49 174 49 180 49 c 256,29,30
 186 49 186 49 190 49 c 0,31,32
 215 49 215 49 221 39 c 0,33,34
 222 31 222 31 222 27 c 0,35,36
 222 24 222 24 222 23 c 0,37,38
 222 0 222 0 199 0 c 2,39,-1
 68 0 l 2,40,41
 50 0 50 0 50 23 c 0,42,43
 50 42 50 42 71 47 c 0,44,45
 80 49 80 49 112 47 c 1,46,-1
 354 516 l 2,47,48
 365 539 365 539 400 539 c 0,49,50
 434 539 434 539 434 516 c 2,51,-1
 446 47 l 1,52,53
 486 50 486 50 484 50 c 1,54,55
 526 50 526 50 526 22 c 0,56,57
 526 0 526 0 506 0 c 2,16,17
388 335 m 0,58,59
 387 395 387 395 385 428 c 128,-1,60
 383 461 383 461 381 468 c 1,61,-1
 377 464 l 1,62,-1
 246 198 l 1,63,-1
 390 197 l 1,64,65
 390 216 390 216 389.5 250 c 128,-1,66
 389 284 389 284 388 335 c 0,58,59
EndSplineSet
EndChar

StartChar: Acircumflex
Encoding: 194 194 116
Width: 600
Flags: W
LayerCount: 2
Fore
SplineSet
516 538 m 5,0,1
 498 540 498 540 458 577 c 6,2,-1
 404 631 l 5,3,4
 286 537 286 537 269 537 c 4,5,6
 247 537 247 537 247 561 c 4,7,8
 247 575 247 575 305 621 c 4,9,10
 322 633 322 633 340.5 647 c 132,-1,11
 359 661 359 661 381 678 c 4,12,13
 392 686 392 686 409 686 c 4,14,15
 427 686 427 686 484 632 c 4,16,17
 542 578 542 578 542 562 c 4,18,19
 542 549 542 549 516 538 c 5,0,1
506 0 m 2,20,21
 336 0 l 2,22,23
 323 0 323 0 323 23 c 0,24,25
 323 44 323 44 347 49 c 0,26,27
 353 50 353 50 394 47 c 1,28,-1
 390 150 l 1,29,-1
 221 150 l 1,30,-1
 165 48 l 1,31,32
 174 49 174 49 180 49 c 256,33,34
 186 49 186 49 190 49 c 0,35,36
 215 49 215 49 221 39 c 0,37,38
 222 31 222 31 222 27 c 0,39,40
 222 24 222 24 222 23 c 0,41,42
 222 0 222 0 199 0 c 2,43,-1
 68 0 l 2,44,45
 50 0 50 0 50 23 c 0,46,47
 50 42 50 42 71 47 c 0,48,49
 80 49 80 49 112 47 c 1,50,-1
 354 516 l 2,51,52
 365 539 365 539 400 539 c 0,53,54
 434 539 434 539 434 516 c 2,55,-1
 446 47 l 1,56,57
 486 50 486 50 484 50 c 1,58,59
 526 50 526 50 526 22 c 0,60,61
 526 0 526 0 506 0 c 2,20,21
388 335 m 0,62,63
 387 395 387 395 385 428 c 128,-1,64
 383 461 383 461 381 468 c 1,65,-1
 377 464 l 1,66,-1
 246 198 l 1,67,-1
 390 197 l 1,68,69
 390 216 390 216 389.5 250 c 128,-1,70
 389 284 389 284 388 335 c 0,62,63
EndSplineSet
EndChar

StartChar: Atilde
Encoding: 195 195 117
Width: 600
Flags: W
LayerCount: 2
Fore
SplineSet
467 575 m 4,0,1
 438 575 438 575 383 593 c 4,2,3
 330 612 330 612 300 612 c 4,4,5
 284 612 284 612 274 597 c 6,6,-1
 270 592 l 6,7,8
 265 582 265 582 256 579 c 6,9,-1
 253 579 l 6,10,11
 230 579 230 579 230 599 c 4,12,13
 230 624 230 624 257 641 c 4,14,15
 280 657 280 657 308 657 c 260,16,17
 336 657 336 657 396 637 c 4,18,19
 453 618 453 618 484 618 c 4,20,21
 513 618 513 618 525 637 c 4,22,23
 533 649 533 649 535 651 c 4,24,25
 539 658 539 658 549 660 c 4,26,27
 571 657 571 657 571 642 c 4,28,29
 571 575 571 575 467 575 c 4,0,1
506 0 m 2,30,31
 336 0 l 2,32,33
 323 0 323 0 323 23 c 0,34,35
 323 44 323 44 347 49 c 0,36,37
 353 50 353 50 394 47 c 1,38,-1
 390 150 l 1,39,-1
 221 150 l 1,40,-1
 165 48 l 1,41,42
 174 49 174 49 180 49 c 256,43,44
 186 49 186 49 190 49 c 0,45,46
 215 49 215 49 221 39 c 0,47,48
 222 31 222 31 222 27 c 0,49,50
 222 24 222 24 222 23 c 0,51,52
 222 0 222 0 199 0 c 2,53,-1
 68 0 l 2,54,55
 50 0 50 0 50 23 c 0,56,57
 50 42 50 42 71 47 c 0,58,59
 80 49 80 49 112 47 c 1,60,-1
 354 516 l 2,61,62
 365 539 365 539 400 539 c 0,63,64
 434 539 434 539 434 516 c 2,65,-1
 446 47 l 1,66,67
 486 50 486 50 484 50 c 1,68,69
 526 50 526 50 526 22 c 0,70,71
 526 0 526 0 506 0 c 2,30,31
388 335 m 0,72,73
 387 395 387 395 385 428 c 128,-1,74
 383 461 383 461 381 468 c 1,75,-1
 377 464 l 1,76,-1
 246 198 l 1,77,-1
 390 197 l 1,78,79
 390 216 390 216 389.5 250 c 128,-1,80
 389 284 389 284 388 335 c 0,72,73
EndSplineSet
EndChar

StartChar: Adieresis
Encoding: 196 196 118
Width: 600
Flags: W
LayerCount: 2
Fore
SplineSet
514 620 m 2,0,1
 505 620 l 2,2,3
 491 620 491 620 480 631.5 c 128,-1,4
 469 643 469 643 469 657 c 0,5,6
 469 664 469 664 473 671.5 c 128,-1,7
 477 679 477 679 483 685.5 c 128,-1,8
 489 692 489 692 496 696 c 128,-1,9
 503 700 503 700 509 700 c 0,10,11
 526 700 526 700 537.5 687.5 c 128,-1,12
 549 675 549 675 549 657 c 0,13,14
 549 620 549 620 514 620 c 2,0,1
349 620 m 2,15,-1
 339 620 l 2,16,17
 324 620 324 620 313 631 c 128,-1,18
 302 642 302 642 302 657 c 0,19,20
 302 691 302 691 345 697 c 1,21,22
 381 686 381 686 381 657 c 0,23,24
 381 620 381 620 349 620 c 2,15,-1
506 0 m 6,25,-1
 336 0 l 6,26,27
 323 0 323 0 323 23 c 4,28,29
 323 44 323 44 347 49 c 4,30,31
 353 50 353 50 394 47 c 5,32,-1
 390 150 l 5,33,-1
 221 150 l 5,34,-1
 165 48 l 5,35,36
 174 49 174 49 180 49 c 260,37,38
 186 49 186 49 190 49 c 4,39,40
 215 49 215 49 221 39 c 4,41,42
 222 31 222 31 222 27 c 4,43,44
 222 24 222 24 222 23 c 4,45,46
 222 0 222 0 199 0 c 6,47,-1
 68 0 l 6,48,49
 50 0 50 0 50 23 c 4,50,51
 50 42 50 42 71 47 c 4,52,53
 80 49 80 49 112 47 c 5,54,-1
 354 516 l 6,55,56
 365 539 365 539 400 539 c 4,57,58
 434 539 434 539 434 516 c 6,59,-1
 446 47 l 5,60,61
 486 50 486 50 484 50 c 5,62,63
 526 50 526 50 526 22 c 4,64,65
 526 0 526 0 506 0 c 6,25,-1
388 335 m 4,66,67
 387 395 387 395 385 428 c 132,-1,68
 383 461 383 461 381 468 c 5,69,-1
 377 464 l 5,70,-1
 246 198 l 5,71,-1
 390 197 l 5,72,73
 390 216 390 216 389.5 250 c 132,-1,74
 389 284 389 284 388 335 c 4,66,67
EndSplineSet
EndChar

StartChar: Aring
Encoding: 197 197 119
Width: 600
Flags: W
LayerCount: 2
Fore
SplineSet
439 592 m 0,0,1
 403 592 403 592 379.5 618 c 128,-1,2
 356 644 356 644 356 680 c 256,3,4
 356 716 356 716 380 739.5 c 128,-1,5
 404 763 404 763 440 763 c 0,6,7
 478 763 478 763 501.5 739.5 c 128,-1,8
 525 716 525 716 525 677 c 0,9,10
 525 639 525 639 501 615.5 c 128,-1,11
 477 592 477 592 439 592 c 0,0,1
517 3 m 2,12,13
 348 3 l 1,14,-1
 339 8 l 1,15,16
 334 20 334 20 334 26 c 0,17,18
 334 49 334 49 359 53 c 0,19,20
 365 54 365 54 406 51 c 1,21,-1
 402 154 l 1,22,-1
 233 154 l 1,23,-1
 177 51 l 1,24,25
 205 54 205 54 206 54 c 0,26,27
 234 54 234 54 234 26 c 0,28,29
 234 0 234 0 169 0 c 0,30,31
 151 0 151 0 79 3 c 0,32,33
 62 3 62 3 62 26 c 0,34,35
 62 46 62 46 83 51 c 0,36,37
 94 53 94 53 124 51 c 1,38,-1
 364 520 l 2,39,40
 377 544 377 544 412 544 c 0,41,42
 446 544 446 544 446 520 c 2,43,-1
 458 51 l 1,44,45
 498 54 498 54 495 54 c 1,46,47
 537 54 537 54 537 26 c 0,48,49
 537 3 537 3 517 3 c 2,12,13
441 718 m 256,50,51
 397 718 397 718 397 679 c 0,52,53
 397 661 397 661 410 648 c 128,-1,54
 423 635 423 635 441 635 c 0,55,56
 460 635 460 635 472.5 647.5 c 128,-1,57
 485 660 485 660 485 679 c 0,58,59
 485 718 485 718 441 718 c 256,50,51
395 468 m 1,60,-1
 391 472 l 1,61,62
 372 438 372 438 258 202 c 1,63,-1
 402 202 l 1,64,-1
 402 335 l 2,65,66
 403 377 403 377 401 409.5 c 128,-1,67
 399 442 399 442 395 468 c 1,60,-1
EndSplineSet
EndChar

StartChar: AE
Encoding: 198 198 120
Width: 600
Flags: W
LayerCount: 2
Fore
SplineSet
546 444 m 2,0,1
 541 416 541 416 524 415 c 1,2,3
 498 421 498 421 498 443 c 0,4,5
 498 452 498 452 499.5 462.5 c 128,-1,6
 501 473 501 473 503 485 c 0,7,8
 505 492 505 492 507.5 503 c 128,-1,9
 510 514 510 514 513 529 c 1,10,-1
 403 530 l 1,11,-1
 357 323 l 1,12,-1
 406 323 l 1,13,14
 407 337 407 337 415 366 c 0,15,16
 423 389 423 389 442 389 c 0,17,18
 451 389 451 389 457 382 c 2,19,-1
 460 375 l 1,20,21
 458 352 458 352 430 223 c 0,22,23
 425 203 425 203 406 203 c 0,24,25
 388 203 388 203 388 226 c 0,26,27
 388 233 388 233 391 248 c 0,28,29
 392 252 392 252 393 258 c 128,-1,30
 394 264 394 264 396 272 c 1,31,-1
 346 272 l 1,32,-1
 296 51 l 1,33,-1
 412 50 l 1,34,35
 415 64 415 64 418 77.5 c 128,-1,36
 421 91 421 91 423 105 c 0,37,38
 434 140 434 140 458 140 c 0,39,40
 468 140 468 140 476 125 c 0,41,42
 475 120 475 120 446 1 c 1,43,-1
 223 0 l 2,44,45
 204 0 204 0 204 24 c 0,46,47
 204 51 204 51 244 51 c 1,48,-1
 268 166 l 1,49,-1
 187 166 l 1,50,-1
 130 50 l 1,51,52
 150 52 150 52 156 47 c 0,53,54
 165 42 165 42 165 23 c 0,55,56
 165 0 165 0 143 0 c 2,57,-1
 40 0 l 1,58,-1
 35 6 l 2,59,60
 34 11 34 11 33.5 14 c 128,-1,61
 33 17 33 17 33 18 c 0,62,63
 33 56 33 56 74 51 c 1,64,-1
 315 530 l 1,65,-1
 295 529 l 2,66,67
 265 527 265 527 265 555 c 0,68,69
 265 565 265 565 272 573.5 c 128,-1,70
 279 582 279 582 288 582 c 2,71,-1
 567 581 l 1,72,-1
 546 444 l 2,0,1
212 217 m 1,73,-1
 277 218 l 1,74,-1
 332 451 l 1,75,-1
 212 217 l 1,73,-1
EndSplineSet
EndChar

StartChar: Ccedilla
Encoding: 199 199 121
Width: 600
Flags: W
LayerCount: 2
Fore
SplineSet
525 533 m 2,0,1
 519 526 l 2,2,3
 505 504 505 504 505 477 c 0,4,5
 505 466 505 466 507 444.5 c 128,-1,6
 509 423 509 423 509 412 c 0,7,8
 509 383 509 383 497 371 c 1,9,-1
 488 368 l 1,10,11
 462 376 462 376 460 426 c 0,12,13
 457 482 457 482 445 502 c 0,14,15
 425 532 425 532 370 532 c 0,16,17
 258 532 258 532 187 428 c 0,18,19
 124 336 124 336 124 219 c 0,20,21
 124 148 124 148 154 102 c 0,22,23
 188 45 188 45 257 45 c 0,24,25
 308 45 308 45 348 82 c 0,26,27
 355 87 355 87 370 106.5 c 128,-1,28
 385 126 385 126 410 158 c 0,29,30
 426 177 426 177 435 177 c 0,31,32
 454 177 454 177 454 153 c 0,33,34
 454 115 454 115 409 69 c 0,35,36
 373 30 373 30 330 8 c 0,37,38
 303 -4 303 -4 249 -4 c 5,39,-1
 244 -28 l 5,40,41
 271 -48 271 -48 271 -79 c 4,42,43
 271 -116 271 -116 249 -141 c 4,44,45
 226 -167 226 -167 191 -167 c 4,46,47
 168 -167 168 -167 138 -153 c 4,48,49
 105 -137 105 -137 105 -116 c 4,50,51
 105 -98 105 -98 128 -93 c 4,52,53
 132 -94 132 -94 139.5 -97.5 c 132,-1,54
 147 -101 147 -101 158 -106 c 4,55,56
 175 -116 175 -116 190 -116 c 4,57,58
 216 -116 216 -116 216 -89 c 4,59,60
 216 -61 216 -61 185 -52 c 5,61,-1
 198 5 l 5,62,63
 128 33 128 33 95 84 c 0,64,65
 67 130 67 130 67 211 c 0,66,67
 67 363 67 363 143 466 c 0,68,69
 227 583 227 583 373 583 c 0,70,71
 421 583 421 583 471 550 c 1,72,73
 505 580 505 580 511 580 c 0,74,75
 519 580 519 580 526 571.5 c 128,-1,76
 533 563 533 563 533 556 c 0,77,78
 533 546 533 546 525 533 c 2,0,1
EndSplineSet
EndChar

StartChar: Egrave
Encoding: 200 200 122
Width: 600
Flags: W
LayerCount: 2
Fore
SplineSet
448 593 m 5,0,1
 441 589 441 589 436 582 c 4,2,3
 431 581 431 581 418 581 c 4,4,5
 413 581 413 581 369 637 c 4,6,7
 358 651 358 651 344.5 668 c 132,-1,8
 331 685 331 685 316 705 c 5,9,-1
 318 707 l 5,10,-1
 317 714 l 5,11,12
 320 724 320 724 327 731 c 4,13,14
 331 733 331 733 335 734.5 c 132,-1,15
 339 736 339 736 344 738 c 4,16,17
 362 734 362 734 406 677 c 4,18,19
 451 621 451 621 451 603 c 4,20,21
 451 600 451 600 448 593 c 5,0,1
528 444 m 0,22,23
 511 372 511 372 501 368 c 0,24,25
 494 369 494 369 484 370 c 128,-1,26
 474 371 474 371 460 373 c 1,27,-1
 483 482 l 1,28,-1
 270 482 l 1,29,-1
 226 303 l 1,30,-1
 319 302 l 1,31,32
 321 316 321 316 331 349 c 0,33,34
 342 375 342 375 361 375 c 0,35,36
 367 375 367 375 376 369 c 1,37,-1
 379 360 l 1,38,39
 373 323 373 323 363 281 c 128,-1,40
 353 239 353 239 339 191 c 0,41,42
 335 178 335 178 316 178 c 0,43,44
 310 178 310 178 301 182 c 1,45,-1
 296 189 l 1,46,-1
 296 192 l 1,47,-1
 309 251 l 1,48,-1
 216 251 l 1,49,-1
 165 52 l 1,50,-1
 394 52 l 1,51,-1
 417 153 l 2,52,53
 421 172 421 172 446 172 c 0,54,55
 460 172 460 172 469 156 c 0,56,57
 468 152 468 152 459 114 c 128,-1,58
 450 76 450 76 434 0 c 1,59,-1
 74 0 l 2,60,61
 55 1 55 1 55 25 c 0,62,63
 55 48 55 48 77 52 c 0,64,65
 86 53 86 53 122 52 c 1,66,-1
 218 482 l 1,67,68
 214 482 214 482 206 482 c 0,69,70
 199 482 199 482 187 481 c 0,71,72
 176 480 176 480 168 479.5 c 128,-1,73
 160 479 160 479 153 479 c 0,74,75
 116 480 116 480 116 503 c 0,76,77
 116 517 116 517 126 524 c 0,78,79
 134 535 134 535 145 535 c 2,80,-1
 545 535 l 1,81,82
 543 521 543 521 538.5 498.5 c 128,-1,83
 534 476 534 476 528 444 c 0,22,23
EndSplineSet
EndChar

StartChar: Eacute
Encoding: 201 201 123
Width: 600
Flags: W
LayerCount: 2
Fore
SplineSet
413 629 m 0,0,1
 371 577 371 577 356 577 c 256,2,3
 341 577 341 577 331 598 c 1,4,-1
 336 616 l 1,5,-1
 424 728 l 1,6,-1
 439 734 l 1,7,8
 455 729 455 729 465 720 c 0,9,10
 466 716 466 716 466 711 c 256,11,12
 466 706 466 706 467 700 c 1,13,14
 459 689 459 689 445.5 671.5 c 128,-1,15
 432 654 432 654 413 629 c 0,0,1
508 375 m 6,16,17
 503 354 503 354 482 354 c 4,18,19
 460 354 460 354 460 372 c 4,20,21
 460 379 460 379 470 423 c 6,22,-1
 483 481 l 5,23,-1
 270 481 l 5,24,-1
 226 303 l 5,25,-1
 320 302 l 5,26,27
 321 310 321 310 323.5 322 c 132,-1,28
 326 334 326 334 331 351 c 4,29,30
 342 377 342 377 362 377 c 4,31,32
 369 377 369 377 377 372 c 5,33,-1
 380 363 l 5,34,35
 373 334 373 334 363 291.5 c 132,-1,36
 353 249 353 249 339 191 c 4,37,38
 334 174 334 174 315 174 c 260,39,40
 296 174 296 174 296 189 c 4,41,42
 296 193 296 193 297.5 200 c 132,-1,43
 299 207 299 207 301 218 c 4,44,45
 303 224 303 224 305 232.5 c 132,-1,46
 307 241 307 241 309 251 c 5,47,-1
 216 251 l 5,48,-1
 165 52 l 5,49,-1
 394 52 l 5,50,-1
 417 153 l 6,51,52
 421 172 421 172 446 172 c 4,53,54
 460 172 460 172 469 156 c 4,55,56
 468 152 468 152 459 113.5 c 132,-1,57
 450 75 450 75 437 0 c 5,58,-1
 74 0 l 6,59,60
 55 1 55 1 55 25 c 260,61,62
 55 49 55 49 80 53 c 4,63,64
 84 54 84 54 94.5 53.5 c 132,-1,65
 105 53 105 53 122 52 c 5,66,-1
 218 481 l 5,67,68
 214 481 214 481 206 481 c 260,69,70
 198 481 198 481 186 480 c 4,71,72
 175 479 175 479 167 478.5 c 132,-1,73
 159 478 159 478 153 479 c 4,74,75
 119 480 119 480 115 502 c 5,76,77
 123 534 123 534 145 534 c 6,78,-1
 545 534 l 5,79,-1
 508 375 l 6,16,17
EndSplineSet
EndChar

StartChar: Edieresis
Encoding: 203 203 124
Width: 600
Flags: W
LayerCount: 2
Fore
SplineSet
475 620 m 6,0,1
 466 620 l 6,2,3
 453 620 453 620 441 632 c 132,-1,4
 429 644 429 644 429 657 c 4,5,6
 429 663 429 663 433 670.5 c 132,-1,7
 437 678 437 678 443 684.5 c 132,-1,8
 449 691 449 691 456 695.5 c 132,-1,9
 463 700 463 700 469 700 c 4,10,11
 487 700 487 700 498.5 687 c 132,-1,12
 510 674 510 674 510 657 c 4,13,14
 510 620 510 620 475 620 c 6,0,1
301 620 m 4,15,16
 266 620 266 620 262 657 c 5,17,18
 265 668 265 668 267.5 674.5 c 132,-1,19
 270 681 270 681 274.5 685 c 132,-1,20
 279 689 279 689 286 691.5 c 132,-1,21
 293 694 293 694 305 697 c 5,22,23
 327 691 327 691 334 685 c 4,24,25
 343 677 343 677 343 657 c 4,26,27
 343 620 343 620 301 620 c 4,15,16
514 422 m 2,28,29
 509 401 509 401 487 401 c 0,30,31
 480 401 480 401 473 407 c 128,-1,32
 466 413 466 413 466 420 c 0,33,34
 466 424 466 424 475 471 c 2,35,-1
 488 530 l 1,36,-1
 276 530 l 1,37,-1
 226 324 l 1,38,-1
 319 323 l 1,39,40
 321 331 321 331 323.5 343 c 128,-1,41
 326 355 326 355 330 372 c 0,42,43
 341 398 341 398 362 398 c 0,44,45
 369 398 369 398 376 393 c 1,46,-1
 378 388 l 1,47,-1
 378 385 l 2,48,49
 378 355 378 355 338 213 c 0,50,51
 333 195 333 195 314 195 c 256,52,53
 295 195 295 195 295 219 c 0,54,55
 295 240 295 240 308 273 c 1,56,-1
 216 272 l 1,57,-1
 160 51 l 1,58,-1
 389 51 l 1,59,-1
 411 150 l 2,60,61
 415 169 415 169 443 169 c 0,62,63
 452 169 452 169 460 164 c 1,64,-1
 464 155 l 1,65,66
 459 140 459 140 454 120.5 c 128,-1,67
 449 101 449 101 444 78 c 2,68,-1
 429 0 l 1,69,-1
 73 0 l 2,70,71
 50 0 50 0 50 25 c 0,72,73
 50 48 50 48 72 52 c 0,74,75
 76 53 76 53 86.5 52.5 c 128,-1,76
 97 52 97 52 116 51 c 1,77,-1
 224 530 l 1,78,79
 222 530 222 530 216 529.5 c 128,-1,80
 210 529 210 529 199 528 c 128,-1,81
 188 527 188 527 179 526.5 c 128,-1,82
 170 526 170 526 163 527 c 0,83,84
 121 528 121 528 121 549 c 0,85,86
 121 561 121 561 129.5 571 c 128,-1,87
 138 581 138 581 149 581 c 2,88,-1
 550 581 l 1,89,-1
 514 422 l 2,28,29
EndSplineSet
EndChar

StartChar: Igrave
Encoding: 204 204 125
Width: 600
Flags: W
LayerCount: 2
Fore
SplineSet
448 593 m 5,0,1
 441 589 441 589 436 582 c 4,2,3
 431 581 431 581 418 581 c 4,4,5
 413 581 413 581 369 637 c 4,6,7
 358 651 358 651 344.5 668 c 132,-1,8
 331 685 331 685 316 705 c 5,9,-1
 318 707 l 5,10,-1
 317 714 l 5,11,12
 320 724 320 724 327 731 c 4,13,14
 331 733 331 733 335 734.5 c 132,-1,15
 339 736 339 736 344 738 c 4,16,17
 362 734 362 734 406 677 c 4,18,19
 451 621 451 621 451 603 c 4,20,21
 451 600 451 600 448 593 c 5,0,1
514 489 m 2,22,23
 377 489 l 1,24,-1
 280 48 l 1,25,-1
 410 48 l 2,26,27
 437 48 437 48 437 23 c 0,28,29
 437 1 437 1 416 1 c 2,30,-1
 82 1 l 2,31,32
 64 1 64 1 64 23 c 0,33,34
 64 48 64 48 84 48 c 2,35,-1
 229 48 l 1,36,-1
 325 489 l 1,37,-1
 204 489 l 2,38,39
 184 489 184 489 184 514 c 0,40,41
 184 538 184 538 202 538 c 2,42,-1
 513 538 l 2,43,44
 536 538 536 538 536 512 c 0,45,46
 536 489 536 489 514 489 c 2,22,23
EndSplineSet
EndChar

StartChar: Iacute
Encoding: 205 205 126
Width: 600
Flags: W
LayerCount: 2
Fore
SplineSet
463 700 m 1,0,1
 451 683 451 683 439 667 c 128,-1,2
 427 651 427 651 414 635 c 0,3,4
 387 597 387 597 360 574 c 1,5,-1
 350 574 l 2,6,7
 348 574 348 574 347 575 c 2,8,-1
 344 575 l 1,9,10
 339 581 339 581 331 583 c 1,11,12
 325 590 325 590 325 597 c 0,13,14
 325 611 325 611 366 661 c 0,15,16
 380 677 380 677 393 693 c 128,-1,17
 406 709 406 709 420 725 c 1,18,-1
 435 731 l 1,19,20
 464 725 464 725 463 707 c 2,21,-1
 463 700 l 1,0,1
514 489 m 6,22,23
 377 489 l 5,24,-1
 280 48 l 5,25,-1
 410 48 l 6,26,27
 437 48 437 48 437 23 c 4,28,29
 437 1 437 1 416 1 c 6,30,-1
 82 1 l 6,31,32
 64 1 64 1 64 23 c 4,33,34
 64 48 64 48 84 48 c 6,35,-1
 229 48 l 5,36,-1
 325 489 l 5,37,-1
 204 489 l 6,38,39
 184 489 184 489 184 514 c 4,40,41
 184 538 184 538 202 538 c 6,42,-1
 513 538 l 6,43,44
 536 538 536 538 536 512 c 4,45,46
 536 489 536 489 514 489 c 6,22,23
EndSplineSet
EndChar

StartChar: Icircumflex
Encoding: 206 206 127
Width: 600
Flags: W
LayerCount: 2
Fore
SplineSet
490 542 m 5,0,1
 472 544 472 544 432 581 c 6,2,-1
 378 635 l 5,3,4
 260 541 260 541 243 541 c 4,5,6
 221 541 221 541 221 565 c 4,7,8
 221 579 221 579 279 625 c 4,9,10
 296 637 296 637 314.5 651 c 132,-1,11
 333 665 333 665 355 682 c 4,12,13
 366 690 366 690 383 690 c 4,14,15
 401 690 401 690 458 636 c 4,16,17
 516 582 516 582 516 566 c 4,18,19
 516 553 516 553 490 542 c 5,0,1
514 489 m 2,20,21
 377 489 l 1,22,-1
 280 48 l 1,23,-1
 410 48 l 2,24,25
 437 48 437 48 437 23 c 0,26,27
 437 1 437 1 416 1 c 2,28,-1
 82 1 l 2,29,30
 64 1 64 1 64 23 c 0,31,32
 64 48 64 48 84 48 c 2,33,-1
 229 48 l 1,34,-1
 325 489 l 1,35,-1
 204 489 l 2,36,37
 184 489 184 489 184 514 c 0,38,39
 184 538 184 538 202 538 c 2,40,-1
 513 538 l 2,41,42
 536 538 536 538 536 512 c 0,43,44
 536 489 536 489 514 489 c 2,20,21
EndSplineSet
EndChar

StartChar: Idieresis
Encoding: 207 207 128
Width: 600
Flags: W
LayerCount: 2
Fore
SplineSet
470 620 m 6,0,1
 461 620 l 6,2,3
 448 620 448 620 436 632 c 132,-1,4
 424 644 424 644 424 657 c 4,5,6
 424 663 424 663 428 670.5 c 132,-1,7
 432 678 432 678 438 684.5 c 132,-1,8
 444 691 444 691 451 695.5 c 132,-1,9
 458 700 458 700 464 700 c 4,10,11
 482 700 482 700 493.5 687 c 132,-1,12
 505 674 505 674 505 657 c 4,13,14
 505 620 505 620 470 620 c 6,0,1
296 620 m 4,15,16
 261 620 261 620 257 657 c 5,17,18
 260 668 260 668 262.5 674.5 c 132,-1,19
 265 681 265 681 269.5 685 c 132,-1,20
 274 689 274 689 281 691.5 c 132,-1,21
 288 694 288 694 300 697 c 5,22,23
 322 691 322 691 329 685 c 4,24,25
 338 677 338 677 338 657 c 4,26,27
 338 620 338 620 296 620 c 4,15,16
521 530 m 2,28,-1
 383 530 l 1,29,-1
 275 51 l 1,30,-1
 405 51 l 2,31,32
 431 51 431 51 431 24 c 0,33,34
 431 0 431 0 406 0 c 2,35,-1
 78 0 l 2,36,37
 57 0 57 0 57 24 c 0,38,39
 57 34 57 34 63.5 42.5 c 128,-1,40
 70 51 70 51 79 51 c 2,41,-1
 224 51 l 1,42,-1
 332 530 l 1,43,-1
 210 530 l 2,44,45
 190 530 190 530 190 557 c 0,46,47
 190 581 190 581 210 581 c 2,48,-1
 521 581 l 2,49,50
 543 581 543 581 543 554 c 0,51,52
 543 530 543 530 521 530 c 2,28,-1
EndSplineSet
EndChar

StartChar: Ntilde
Encoding: 209 209 129
Width: 600
Flags: W
LayerCount: 2
Fore
SplineSet
415 575 m 0,0,1
 386 575 386 575 331 593 c 0,2,3
 278 612 278 612 248 612 c 0,4,5
 232 612 232 612 222 597 c 2,6,-1
 218 592 l 2,7,8
 213 582 213 582 204 579 c 2,9,-1
 201 579 l 2,10,11
 178 579 178 579 178 599 c 0,12,13
 178 624 178 624 205 641 c 0,14,15
 228 657 228 657 256 657 c 256,16,17
 284 657 284 657 344 637 c 0,18,19
 401 618 401 618 432 618 c 0,20,21
 461 618 461 618 473 637 c 0,22,23
 481 649 481 649 483 651 c 0,24,25
 487 658 487 658 497 660 c 0,26,27
 519 657 519 657 519 642 c 0,28,29
 519 575 519 575 415 575 c 0,0,1
529 482 m 0,30,31
 527 482 527 482 522 482 c 256,32,33
 517 482 517 482 509 483 c 1,34,-1
 412 42 l 2,35,36
 411 36 411 36 408.5 27 c 128,-1,37
 406 18 406 18 401 5 c 1,38,39
 393 0 393 0 384 0 c 0,40,41
 368 7 368 7 360 40 c 2,42,-1
 250 451 l 1,43,-1
 159 50 l 1,44,45
 172 51 172 51 178 51.5 c 128,-1,46
 184 52 184 52 183 52 c 1,47,48
 215 52 215 52 215 23 c 0,49,50
 215 0 215 0 195 0 c 2,51,-1
 60 0 l 2,52,53
 40 0 40 0 40 23 c 0,54,55
 40 51 40 51 85 51 c 0,56,57
 87 51 87 51 93 51 c 256,58,59
 99 51 99 51 108 50 c 1,60,-1
 201 483 l 1,61,62
 198 483 198 483 193.5 482.5 c 128,-1,63
 189 482 189 482 183 481 c 0,64,65
 178 480 178 480 174 480 c 256,66,67
 170 480 170 480 168 480 c 0,68,69
 146 480 146 480 140 502 c 1,70,71
 143 524 143 524 156 536 c 1,72,-1
 259 535 l 1,73,74
 266 530 266 530 280 520 c 0,75,76
 287 513 287 513 291 495 c 0,77,78
 298 468 298 468 308.5 427.5 c 128,-1,79
 319 387 319 387 333 332 c 0,80,81
 346 280 346 280 360 239.5 c 128,-1,82
 374 199 374 199 388 169 c 1,83,84
 399 201 399 201 409.5 240 c 128,-1,85
 420 279 420 279 428 326 c 0,86,87
 433 352 433 352 440.5 391 c 128,-1,88
 448 430 448 430 458 483 c 1,89,90
 454 483 454 483 448 483 c 0,91,92
 443 483 443 483 435 482 c 0,93,94
 428 481 428 481 423 481 c 256,95,96
 418 481 418 481 414 481 c 0,97,98
 392 482 392 482 392 501 c 0,99,100
 392 513 392 513 398 524 c 128,-1,101
 404 535 404 535 413 535 c 2,102,-1
 539 535 l 2,103,104
 560 535 560 535 560 507 c 0,105,106
 560 482 560 482 529 482 c 0,30,31
EndSplineSet
EndChar

StartChar: Ograve
Encoding: 210 210 130
Width: 600
Flags: W
LayerCount: 2
Fore
SplineSet
448 593 m 5,0,1
 441 589 441 589 436 582 c 4,2,3
 431 581 431 581 418 581 c 4,4,5
 413 581 413 581 369 637 c 4,6,7
 358 651 358 651 344.5 668 c 132,-1,8
 331 685 331 685 316 705 c 5,9,-1
 318 707 l 5,10,-1
 317 714 l 5,11,12
 320 724 320 724 327 731 c 4,13,14
 331 733 331 733 335 734.5 c 132,-1,15
 339 736 339 736 344 738 c 4,16,17
 362 734 362 734 406 677 c 4,18,19
 451 621 451 621 451 603 c 4,20,21
 451 600 451 600 448 593 c 5,0,1
223 -6 m 0,22,23
 70 -6 70 -6 70 178 c 0,24,25
 70 303 70 303 144 419 c 0,26,27
 228 549 228 549 346 549 c 0,28,29
 421 549 421 549 460 494 c 0,30,31
 495 444 495 444 495 368 c 0,32,33
 495 230 495 230 429 121 c 0,34,35
 350 -6 350 -6 223 -6 c 0,22,23
341 497 m 0,36,37
 242 497 242 497 174 378 c 0,38,39
 117 277 117 277 117 171 c 0,40,41
 117 44 117 44 227 44 c 0,42,43
 331 44 331 44 394 159 c 0,44,45
 445 253 445 253 445 367 c 0,46,47
 445 497 445 497 341 497 c 0,36,37
EndSplineSet
EndChar

StartChar: Oacute
Encoding: 211 211 131
Width: 600
Flags: W
LayerCount: 2
Fore
SplineSet
413 629 m 4,0,1
 371 577 371 577 356 577 c 260,2,3
 341 577 341 577 331 598 c 5,4,-1
 336 616 l 5,5,-1
 424 728 l 5,6,-1
 439 734 l 5,7,8
 455 729 455 729 465 720 c 4,9,10
 466 716 466 716 466 711 c 260,11,12
 466 706 466 706 467 700 c 5,13,14
 459 689 459 689 445.5 671.5 c 132,-1,15
 432 654 432 654 413 629 c 4,0,1
223 -6 m 0,16,17
 70 -6 70 -6 70 178 c 0,18,19
 70 303 70 303 144 419 c 0,20,21
 228 549 228 549 346 549 c 0,22,23
 421 549 421 549 460 494 c 0,24,25
 495 444 495 444 495 368 c 0,26,27
 495 230 495 230 429 121 c 0,28,29
 350 -6 350 -6 223 -6 c 0,16,17
341 497 m 0,30,31
 242 497 242 497 174 378 c 0,32,33
 117 277 117 277 117 171 c 0,34,35
 117 44 117 44 227 44 c 0,36,37
 331 44 331 44 394 159 c 0,38,39
 445 253 445 253 445 367 c 0,40,41
 445 497 445 497 341 497 c 0,30,31
EndSplineSet
EndChar

StartChar: Ocircumflex
Encoding: 212 212 132
Width: 600
Flags: W
LayerCount: 2
Fore
SplineSet
474 538 m 5,0,1
 456 540 456 540 416 577 c 6,2,-1
 362 631 l 5,3,4
 244 537 244 537 227 537 c 4,5,6
 205 537 205 537 205 561 c 4,7,8
 205 575 205 575 263 621 c 4,9,10
 280 633 280 633 298.5 647 c 132,-1,11
 317 661 317 661 339 678 c 4,12,13
 350 686 350 686 367 686 c 4,14,15
 385 686 385 686 442 632 c 4,16,17
 500 578 500 578 500 562 c 4,18,19
 500 549 500 549 474 538 c 5,0,1
223 -6 m 0,20,21
 70 -6 70 -6 70 178 c 0,22,23
 70 303 70 303 144 419 c 0,24,25
 228 549 228 549 346 549 c 0,26,27
 421 549 421 549 460 494 c 0,28,29
 495 444 495 444 495 368 c 0,30,31
 495 230 495 230 429 121 c 0,32,33
 350 -6 350 -6 223 -6 c 0,20,21
341 497 m 0,34,35
 242 497 242 497 174 378 c 0,36,37
 117 277 117 277 117 171 c 0,38,39
 117 44 117 44 227 44 c 0,40,41
 331 44 331 44 394 159 c 0,42,43
 445 253 445 253 445 367 c 0,44,45
 445 497 445 497 341 497 c 0,34,35
EndSplineSet
EndChar

StartChar: Otilde
Encoding: 213 213 133
Width: 600
Flags: W
LayerCount: 2
Fore
SplineSet
415 575 m 4,0,1
 386 575 386 575 331 593 c 4,2,3
 278 612 278 612 248 612 c 4,4,5
 232 612 232 612 222 597 c 6,6,-1
 218 592 l 6,7,8
 213 582 213 582 204 579 c 6,9,-1
 201 579 l 6,10,11
 178 579 178 579 178 599 c 4,12,13
 178 624 178 624 205 641 c 4,14,15
 228 657 228 657 256 657 c 260,16,17
 284 657 284 657 344 637 c 4,18,19
 401 618 401 618 432 618 c 4,20,21
 461 618 461 618 473 637 c 4,22,23
 481 649 481 649 483 651 c 4,24,25
 487 658 487 658 497 660 c 4,26,27
 519 657 519 657 519 642 c 4,28,29
 519 575 519 575 415 575 c 4,0,1
223 -6 m 0,30,31
 70 -6 70 -6 70 178 c 0,32,33
 70 303 70 303 144 419 c 0,34,35
 228 549 228 549 346 549 c 0,36,37
 421 549 421 549 460 494 c 0,38,39
 495 444 495 444 495 368 c 0,40,41
 495 230 495 230 429 121 c 0,42,43
 350 -6 350 -6 223 -6 c 0,30,31
341 497 m 0,44,45
 242 497 242 497 174 378 c 0,46,47
 117 277 117 277 117 171 c 0,48,49
 117 44 117 44 227 44 c 0,50,51
 331 44 331 44 394 159 c 0,52,53
 445 253 445 253 445 367 c 0,54,55
 445 497 445 497 341 497 c 0,44,45
EndSplineSet
EndChar

StartChar: Odieresis
Encoding: 214 214 134
Width: 600
Flags: W
LayerCount: 2
Fore
SplineSet
444 618 m 0,0,1
 428 618 428 618 416 629.5 c 128,-1,2
 404 641 404 641 404 656 c 0,3,4
 404 663 404 663 407.5 671 c 128,-1,5
 411 679 411 679 417 685.5 c 128,-1,6
 423 692 423 692 430.5 696.5 c 128,-1,7
 438 701 438 701 445 701 c 0,8,9
 463 701 463 701 474 687.5 c 128,-1,10
 485 674 485 674 485 656 c 0,11,12
 485 618 485 618 444 618 c 0,0,1
317 650 m 1,13,-1
 317 647 l 0,14,15
 317 645 317 645 316 640 c 0,16,17
 304 618 304 618 279 618 c 0,18,19
 262 618 262 618 249.5 629 c 128,-1,20
 237 640 237 640 237 656 c 0,21,22
 237 688 237 688 280 698 c 0,23,24
 285 696 285 696 292 693.5 c 128,-1,25
 299 691 299 691 307 687 c 0,26,27
 317 680 317 680 317 661 c 2,28,-1
 317 650 l 1,13,-1
223 -6 m 4,29,30
 70 -6 70 -6 70 178 c 4,31,32
 70 303 70 303 144 419 c 4,33,34
 228 549 228 549 346 549 c 4,35,36
 421 549 421 549 460 494 c 4,37,38
 495 444 495 444 495 368 c 4,39,40
 495 230 495 230 429 121 c 4,41,42
 350 -6 350 -6 223 -6 c 4,29,30
341 497 m 4,43,44
 242 497 242 497 174 378 c 4,45,46
 117 277 117 277 117 171 c 4,47,48
 117 44 117 44 227 44 c 4,49,50
 331 44 331 44 394 159 c 4,51,52
 445 253 445 253 445 367 c 4,53,54
 445 497 445 497 341 497 c 4,43,44
EndSplineSet
EndChar

StartChar: multiply
Encoding: 215 215 135
Width: 600
Flags: W
LayerCount: 2
Fore
SplineSet
429 95 m 0,0,1
 415 95 415 95 362 148 c 0,2,3
 346 165 346 165 331 182.5 c 128,-1,4
 316 200 316 200 300 217 c 1,5,6
 290 206 290 206 273.5 188.5 c 128,-1,7
 257 171 257 171 234 146 c 0,8,9
 182 94 182 94 169 94 c 0,10,11
 143 94 143 94 143 121 c 0,12,13
 143 137 143 137 195 188 c 0,14,15
 212 204 212 204 229 220 c 128,-1,16
 246 236 246 236 263 252 c 1,17,18
 252 262 252 262 234.5 278.5 c 128,-1,19
 217 295 217 295 192 318 c 0,20,21
 141 369 141 369 141 384 c 0,22,23
 141 409 141 409 168 409 c 0,24,25
 185 409 185 409 300 288 c 1,26,27
 316 305 316 305 332 322 c 128,-1,28
 348 339 348 339 365 356 c 0,29,30
 418 409 418 409 430 409 c 0,31,32
 440 409 440 409 447.5 400.5 c 128,-1,33
 455 392 455 392 455 382 c 0,34,35
 455 367 455 367 403 316 c 0,36,37
 386 300 386 300 369.5 285 c 128,-1,38
 353 270 353 270 336 254 c 1,39,-1
 405 188 l 2,40,41
 458 133 458 133 458 120 c 0,42,43
 458 112 458 112 448 103.5 c 128,-1,44
 438 95 438 95 429 95 c 0,0,1
EndSplineSet
EndChar

StartChar: Oslash
Encoding: 216 216 136
Width: 600
Flags: W
LayerCount: 2
Fore
SplineSet
214 -1 m 1,0,1
 209 -12 209 -12 200.5 -30.5 c 128,-1,2
 192 -49 192 -49 181 -74 c 0,3,4
 155 -122 155 -122 135 -122 c 0,5,6
 126 -122 126 -122 118 -114.5 c 128,-1,7
 110 -107 110 -107 110 -98 c 0,8,9
 110 -86 110 -86 162 14 c 1,10,11
 87 54 87 54 87 193 c 0,12,13
 87 314 87 314 164 421 c 0,14,15
 248 537 248 537 365 537 c 0,16,17
 381 537 381 537 399 534 c 1,18,19
 403 545 403 545 409.5 562 c 128,-1,20
 416 579 416 579 426 602 c 0,21,22
 447 644 447 644 468 644 c 0,23,24
 469 644 469 644 471 644 c 256,25,26
 473 644 473 644 478 643 c 2,27,-1
 492 631 l 1,28,-1
 493 628 l 2,29,30
 494 626 494 626 494 625 c 1,31,32
 494 625 494 625 494 625 c 1,33,34
 494 617 494 617 447 511 c 1,35,36
 513 464 513 464 513 354 c 0,37,38
 513 221 513 221 442 115 c 0,39,40
 361 -2 361 -2 235 -2 c 0,41,42
 230 -2 230 -2 224 -2 c 0,43,44
 219 -2 219 -2 214 -1 c 1,0,1
422 464 m 1,45,46
 234 49 l 1,47,48
 343 50 343 50 409 155 c 0,49,50
 466 245 466 245 466 357 c 0,51,52
 466 429 466 429 422 464 c 1,45,46
352 484 m 2,53,54
 249 489 249 489 187 377 c 0,55,56
 133 284 133 284 133 174 c 0,57,58
 133 88 133 88 184 60 c 1,59,-1
 375 483 l 1,60,-1
 352 484 l 2,53,54
EndSplineSet
EndChar

StartChar: Ugrave
Encoding: 217 217 137
Width: 600
Flags: W
LayerCount: 2
Fore
SplineSet
448 593 m 5,0,1
 441 589 441 589 436 582 c 4,2,3
 431 581 431 581 418 581 c 4,4,5
 413 581 413 581 369 637 c 4,6,7
 358 651 358 651 344.5 668 c 132,-1,8
 331 685 331 685 316 705 c 5,9,-1
 318 707 l 5,10,-1
 317 714 l 5,11,12
 320 724 320 724 327 731 c 4,13,14
 331 733 331 733 335 734.5 c 132,-1,15
 339 736 339 736 344 738 c 4,16,17
 362 734 362 734 406 677 c 4,18,19
 451 621 451 621 451 603 c 4,20,21
 451 600 451 600 448 593 c 5,0,1
475 490 m 1,22,23
 394 118 l 2,24,25
 377 43 377 43 328 18 c 0,26,27
 291 -1 291 -1 206 -1 c 0,28,29
 69 -1 69 -1 69 126 c 0,30,31
 69 199 69 199 95 308 c 0,32,33
 103 338 103 338 115.5 383.5 c 128,-1,34
 128 429 128 429 145 490 c 1,35,36
 136 489 136 489 130 488.5 c 128,-1,37
 124 488 124 488 122 488 c 0,38,39
 96 488 96 488 92 509 c 1,40,41
 100 538 100 538 117 538 c 2,42,-1
 246 538 l 2,43,44
 271 538 271 538 271 513 c 0,45,46
 271 492 271 492 244 488 c 0,47,48
 237 487 237 487 196 490 c 1,49,50
 188 461 188 461 175.5 416.5 c 128,-1,51
 163 372 163 372 147 312 c 0,52,53
 119 204 119 204 119 133 c 0,54,55
 119 45 119 45 216 45 c 0,56,57
 326 45 326 45 342 118 c 2,58,-1
 424 490 l 1,59,60
 411 489 411 489 403 488.5 c 128,-1,61
 395 488 395 488 393 488 c 0,62,63
 357 488 357 488 357 513 c 0,64,65
 357 522 357 522 363.5 530 c 128,-1,66
 370 538 370 538 378 538 c 2,67,-1
 504 538 l 2,68,69
 530 538 530 538 530 513 c 0,70,71
 530 487 530 487 475 490 c 1,22,23
EndSplineSet
EndChar

StartChar: Uacute
Encoding: 218 218 138
Width: 600
Flags: W
LayerCount: 2
Fore
SplineSet
413 629 m 0,0,1
 371 577 371 577 356 577 c 256,2,3
 341 577 341 577 331 598 c 1,4,-1
 336 616 l 1,5,-1
 424 728 l 1,6,-1
 439 734 l 1,7,8
 455 729 455 729 465 720 c 0,9,10
 466 716 466 716 466 711 c 256,11,12
 466 706 466 706 467 700 c 1,13,14
 459 689 459 689 445.5 671.5 c 128,-1,15
 432 654 432 654 413 629 c 0,0,1
475 490 m 5,16,17
 394 118 l 6,18,19
 377 43 377 43 328 18 c 4,20,21
 291 -1 291 -1 206 -1 c 4,22,23
 69 -1 69 -1 69 126 c 4,24,25
 69 199 69 199 95 308 c 4,26,27
 103 338 103 338 115.5 383.5 c 132,-1,28
 128 429 128 429 145 490 c 5,29,30
 136 489 136 489 130 488.5 c 132,-1,31
 124 488 124 488 122 488 c 4,32,33
 96 488 96 488 92 509 c 5,34,35
 100 538 100 538 117 538 c 6,36,-1
 246 538 l 6,37,38
 271 538 271 538 271 513 c 4,39,40
 271 492 271 492 244 488 c 4,41,42
 237 487 237 487 196 490 c 5,43,44
 188 461 188 461 175.5 416.5 c 132,-1,45
 163 372 163 372 147 312 c 4,46,47
 119 204 119 204 119 133 c 4,48,49
 119 45 119 45 216 45 c 4,50,51
 326 45 326 45 342 118 c 6,52,-1
 424 490 l 5,53,54
 411 489 411 489 403 488.5 c 132,-1,55
 395 488 395 488 393 488 c 4,56,57
 357 488 357 488 357 513 c 4,58,59
 357 522 357 522 363.5 530 c 132,-1,60
 370 538 370 538 378 538 c 6,61,-1
 504 538 l 6,62,63
 530 538 530 538 530 513 c 4,64,65
 530 487 530 487 475 490 c 5,16,17
EndSplineSet
EndChar

StartChar: Udieresis
Encoding: 220 220 139
Width: 600
Flags: W
LayerCount: 2
Fore
SplineSet
432 620 m 2,0,1
 423 620 l 2,2,3
 410 620 410 620 398 632 c 128,-1,4
 386 644 386 644 386 657 c 0,5,6
 386 663 386 663 390 670.5 c 128,-1,7
 394 678 394 678 400 684.5 c 128,-1,8
 406 691 406 691 413 695.5 c 128,-1,9
 420 700 420 700 426 700 c 0,10,11
 444 700 444 700 455.5 687 c 128,-1,12
 467 674 467 674 467 657 c 0,13,14
 467 620 467 620 432 620 c 2,0,1
258 620 m 0,15,16
 223 620 223 620 219 657 c 1,17,18
 222 668 222 668 224.5 674.5 c 128,-1,19
 227 681 227 681 231.5 685 c 128,-1,20
 236 689 236 689 243 691.5 c 128,-1,21
 250 694 250 694 262 697 c 1,22,23
 284 691 284 691 291 685 c 0,24,25
 300 677 300 677 300 657 c 0,26,27
 300 620 300 620 258 620 c 0,15,16
475 490 m 5,28,-1
 394 118 l 6,29,30
 377 43 377 43 328 18 c 4,31,32
 291 -1 291 -1 206 -1 c 4,33,34
 69 -1 69 -1 69 126 c 4,35,36
 69 199 69 199 95 308 c 4,37,38
 103 338 103 338 115.5 383.5 c 132,-1,39
 128 429 128 429 145 490 c 5,40,41
 136 489 136 489 130 488.5 c 132,-1,42
 124 488 124 488 122 488 c 4,43,44
 96 488 96 488 92 509 c 5,45,46
 100 538 100 538 117 538 c 6,47,-1
 246 538 l 6,48,49
 271 538 271 538 271 513 c 4,50,51
 271 492 271 492 244 488 c 4,52,53
 237 487 237 487 196 490 c 5,54,55
 188 461 188 461 175.5 416.5 c 132,-1,56
 163 372 163 372 147 312 c 4,57,58
 119 204 119 204 119 133 c 4,59,60
 119 45 119 45 216 45 c 4,61,62
 326 45 326 45 342 118 c 6,63,-1
 424 490 l 5,64,65
 411 489 411 489 403 488.5 c 132,-1,66
 395 488 395 488 393 488 c 4,67,68
 357 488 357 488 357 513 c 4,69,70
 357 522 357 522 363.5 530 c 132,-1,71
 370 538 370 538 378 538 c 6,72,-1
 504 538 l 6,73,74
 530 538 530 538 530 513 c 4,75,76
 530 487 530 487 475 490 c 5,28,-1
EndSplineSet
EndChar

StartChar: Yacute
Encoding: 221 221 140
Width: 600
Flags: W
LayerCount: 2
Fore
SplineSet
413 629 m 4,0,1
 371 577 371 577 356 577 c 260,2,3
 341 577 341 577 331 598 c 5,4,-1
 336 616 l 5,5,-1
 424 728 l 5,6,-1
 439 734 l 5,7,8
 455 729 455 729 465 720 c 4,9,10
 466 716 466 716 466 711 c 260,11,12
 466 706 466 706 467 700 c 5,13,14
 459 689 459 689 445.5 671.5 c 132,-1,15
 432 654 432 654 413 629 c 4,0,1
509 521 m 0,16,17
 489 509 489 509 402 414 c 0,18,19
 371 382 371 382 348 351 c 128,-1,20
 325 320 325 320 299 283 c 1,21,-1
 249 51 l 1,22,-1
 345 51 l 2,23,24
 369 51 369 51 369 24 c 0,25,26
 369 0 369 0 343 0 c 2,27,-1
 93 0 l 2,28,29
 75 0 75 0 75 24 c 0,30,31
 75 51 75 51 94 51 c 2,32,-1
 196 51 l 1,33,-1
 249 289 l 1,34,-1
 163 530 l 1,35,-1
 142 529 l 2,36,37
 111 528 111 528 111 556 c 0,38,39
 111 565 111 565 117.5 573 c 128,-1,40
 124 581 124 581 132 581 c 2,41,-1
 255 581 l 2,42,43
 276 581 276 581 276 551 c 0,44,45
 276 533 276 533 255 529 c 0,46,47
 243 527 243 527 221 525 c 1,48,-1
 286 356 l 1,49,-1
 430 525 l 1,50,51
 424 526 424 526 416 526 c 0,52,53
 384 526 384 526 384 550 c 0,54,55
 384 560 384 560 391 570 c 128,-1,56
 398 580 398 580 407 580 c 2,57,-1
 531 580 l 2,58,59
 553 580 553 580 553 554 c 0,60,61
 553 536 553 536 536 531 c 0,62,63
 515 527 515 527 509 521 c 0,16,17
EndSplineSet
EndChar

StartChar: germandbls
Encoding: 223 223 141
Width: 600
Flags: W
LayerCount: 2
Fore
SplineSet
343 -18 m 0,0,1
 311 -18 311 -18 274 -8 c 0,2,3
 223 4 223 4 223 25 c 0,4,5
 223 52 223 52 248 59 c 1,6,7
 259 57 259 57 295 44 c 0,8,9
 322 34 322 34 343 34 c 0,10,11
 371 34 371 34 391 49 c 0,12,13
 413 65 413 65 413 93 c 0,14,15
 413 142 413 142 360 177 c 0,16,17
 320 203 320 203 264 215 c 0,18,19
 249 218 249 218 249 235 c 0,20,21
 249 250 249 250 271 259 c 0,22,23
 291 265 291 265 312 271 c 128,-1,24
 333 277 333 277 354 284 c 0,25,26
 399 303 399 303 399 352 c 0,27,28
 399 403 399 403 330 403 c 0,29,30
 293 403 293 403 264 378 c 0,31,32
 234 353 234 353 229 317 c 2,33,-1
 182 -115 l 2,34,35
 180 -129 180 -129 158 -129 c 0,36,37
 149 -129 149 -129 145 -125 c 2,38,-1
 135 -115 l 1,39,-1
 179 323 l 2,40,41
 185 377 185 377 233 414 c 0,42,43
 279 449 279 449 334 449 c 0,44,45
 380 449 380 449 413 419 c 0,46,47
 447 388 447 388 447 343 c 0,48,49
 447 266 447 266 356 235 c 1,50,51
 401 220 401 220 433 178 c 0,52,53
 465 135 465 135 465 91 c 0,54,55
 465 -18 465 -18 343 -18 c 0,0,1
EndSplineSet
EndChar

StartChar: agrave
Encoding: 224 224 142
Width: 600
Flags: W
LayerCount: 2
Fore
SplineSet
420 495 m 0,0,1
 405 495 405 495 344 556 c 0,2,3
 284 617 284 617 284 631 c 0,4,5
 284 656 284 656 312 656 c 0,6,7
 327 656 327 656 384 596 c 0,8,9
 441 537 441 537 441 521 c 0,10,11
 441 495 441 495 420 495 c 0,0,1
464 -2 m 0,12,13
 443 -2 443 -2 385 22 c 1,14,15
 302 -4 302 -4 251 -4 c 0,16,17
 183 -4 183 -4 141 20 c 0,18,19
 89 50 89 50 89 112 c 0,20,21
 89 188 89 188 166 235 c 0,22,23
 232 274 232 274 316 274 c 0,24,25
 361 274 361 274 420 259 c 1,26,27
 440 305 440 305 440 335 c 0,28,29
 440 388 440 388 354 388 c 0,30,31
 283 388 283 388 196 362 c 1,32,-1
 189 365 l 1,33,34
 179 374 179 374 179 386 c 0,35,36
 179 414 179 414 256 431 c 0,37,38
 283 436 283 436 308.5 439 c 128,-1,39
 334 442 334 442 359 442 c 0,40,41
 415 442 415 442 452 420 c 0,42,43
 498 395 498 395 498 343 c 0,44,45
 498 296 498 296 461 213 c 0,46,47
 424 132 424 132 424 83 c 0,48,49
 424 56 424 56 451 49 c 0,50,51
 462 46 462 46 474 43 c 128,-1,52
 486 40 486 40 498 37 c 0,53,54
 510 31 510 31 510 19 c 0,55,56
 510 -2 510 -2 464 -2 c 0,12,13
310 222 m 0,57,58
 253 222 253 222 202 197 c 0,59,60
 138 167 138 167 138 115 c 0,61,62
 138 45 138 45 260 45 c 0,63,64
 297 45 297 45 369 70 c 1,65,66
 366 82 366 82 366 91 c 0,67,68
 366 134 366 134 397 209 c 1,69,70
 346 222 346 222 310 222 c 0,57,58
EndSplineSet
EndChar

StartChar: aacute
Encoding: 225 225 143
Width: 600
Flags: W
LayerCount: 2
Fore
SplineSet
304 495 m 4,0,1
 283 495 283 495 283 522 c 4,2,3
 283 536 283 536 292 544 c 4,4,5
 306 560 306 560 320.5 576 c 132,-1,6
 335 592 335 592 350 608 c 4,7,8
 395 656 395 656 414 656 c 4,9,10
 424 656 424 656 431.5 648.5 c 132,-1,11
 439 641 439 641 439 631 c 260,12,13
 439 621 439 621 377 557 c 4,14,15
 315 495 315 495 304 495 c 4,0,1
464 -2 m 0,16,17
 443 -2 443 -2 385 22 c 1,18,19
 302 -4 302 -4 251 -4 c 0,20,21
 183 -4 183 -4 141 20 c 0,22,23
 89 50 89 50 89 112 c 0,24,25
 89 188 89 188 166 235 c 0,26,27
 232 274 232 274 316 274 c 0,28,29
 361 274 361 274 420 259 c 1,30,31
 440 305 440 305 440 335 c 0,32,33
 440 388 440 388 354 388 c 0,34,35
 283 388 283 388 196 362 c 1,36,-1
 189 365 l 1,37,38
 179 374 179 374 179 386 c 0,39,40
 179 414 179 414 256 431 c 0,41,42
 283 436 283 436 308.5 439 c 128,-1,43
 334 442 334 442 359 442 c 0,44,45
 415 442 415 442 452 420 c 0,46,47
 498 395 498 395 498 343 c 0,48,49
 498 296 498 296 461 213 c 0,50,51
 424 132 424 132 424 83 c 0,52,53
 424 56 424 56 451 49 c 0,54,55
 462 46 462 46 474 43 c 128,-1,56
 486 40 486 40 498 37 c 0,57,58
 510 31 510 31 510 19 c 0,59,60
 510 -2 510 -2 464 -2 c 0,16,17
310 222 m 0,61,62
 253 222 253 222 202 197 c 0,63,64
 138 167 138 167 138 115 c 0,65,66
 138 45 138 45 260 45 c 0,67,68
 297 45 297 45 369 70 c 1,69,70
 366 82 366 82 366 91 c 0,71,72
 366 134 366 134 397 209 c 1,73,74
 346 222 346 222 310 222 c 0,61,62
EndSplineSet
EndChar

StartChar: acircumflex
Encoding: 226 226 144
Width: 600
Flags: W
LayerCount: 2
Fore
SplineSet
490 526 m 5,0,1
 472 528 472 528 432 565 c 6,2,-1
 378 619 l 5,3,4
 260 525 260 525 243 525 c 4,5,6
 221 525 221 525 221 549 c 4,7,8
 221 563 221 563 279 609 c 4,9,10
 296 621 296 621 314.5 635 c 132,-1,11
 333 649 333 649 355 666 c 4,12,13
 366 674 366 674 383 674 c 4,14,15
 401 674 401 674 458 620 c 4,16,17
 516 566 516 566 516 550 c 4,18,19
 516 537 516 537 490 526 c 5,0,1
482 -2 m 0,20,21
 471 -5 471 -5 447 -5 c 0,22,23
 433 -5 433 -5 412 3 c 0,24,25
 404 7 404 7 396 11 c 128,-1,26
 388 15 388 15 380 20 c 1,27,28
 297 -7 297 -7 244 -7 c 0,29,30
 175 -7 175 -7 134 18 c 0,31,32
 83 48 83 48 83 111 c 0,33,34
 83 188 83 188 161 232 c 0,35,36
 225 271 225 271 310 271 c 0,37,38
 356 271 356 271 415 256 c 1,39,40
 436 302 436 302 436 329 c 0,41,42
 436 385 436 385 350 385 c 0,43,44
 322 385 322 385 271 372 c 0,45,46
 218 360 218 360 192 360 c 0,47,48
 174 360 174 360 174 381 c 0,49,50
 174 412 174 412 249 429 c 0,51,52
 299 439 299 439 355 439 c 256,53,54
 411 439 411 439 448 417 c 0,55,56
 493 391 493 391 493 340 c 0,57,58
 493 293 493 293 456 212 c 0,59,60
 419 132 419 132 419 85 c 0,61,62
 419 48 419 48 464 41 c 0,63,64
 473 40 473 40 492 35 c 0,65,66
 504 29 504 29 504 15 c 256,67,68
 504 1 504 1 482 -2 c 0,20,21
305 219 m 0,69,70
 248 219 248 219 197 194 c 0,71,72
 134 164 134 164 134 112 c 0,73,74
 134 42 134 42 256 42 c 0,75,76
 292 42 292 42 363 67 c 1,77,78
 362 72 362 72 362 77 c 256,79,80
 362 82 362 82 362 86 c 0,81,82
 362 123 362 123 392 206 c 1,83,84
 341 219 341 219 305 219 c 0,69,70
EndSplineSet
EndChar

StartChar: atilde
Encoding: 227 227 145
Width: 600
Flags: W
LayerCount: 2
Fore
SplineSet
419 495 m 0,0,1
 392 495 392 495 340 513 c 0,2,3
 287 531 287 531 260 531 c 0,4,5
 245 531 245 531 231 514 c 2,6,-1
 227 508 l 2,7,8
 219 499 219 499 213 499 c 0,9,10
 190 499 190 499 190 520 c 0,11,12
 190 543 190 543 215 561 c 0,13,14
 237 577 237 577 264 577 c 0,15,16
 295 577 295 577 358 557 c 128,-1,17
 421 537 421 537 454 537 c 0,18,19
 470 537 470 537 483 556 c 0,20,21
 498 579 498 579 508 580 c 0,22,23
 530 576 530 576 530 560 c 0,24,25
 530 495 530 495 419 495 c 0,0,1
434 -4 m 0,26,27
 416 -4 416 -4 367 21 c 1,28,29
 284 -6 284 -6 230 -6 c 0,30,31
 164 -6 164 -6 121 19 c 0,32,33
 70 50 70 50 70 112 c 0,34,35
 70 188 70 188 150 233 c 0,36,37
 218 271 218 271 301 271 c 0,38,39
 324 271 324 271 348.5 267.5 c 128,-1,40
 373 264 373 264 401 257 c 1,41,42
 422 306 422 306 422 333 c 0,43,44
 422 386 422 386 337 386 c 0,45,46
 285 386 285 386 178 361 c 1,47,-1
 170 363 l 1,48,49
 161 372 161 372 161 383 c 0,50,51
 161 413 161 413 237 429 c 0,52,53
 292 440 292 440 342 440 c 0,54,55
 398 440 398 440 436 417 c 0,56,57
 480 391 480 391 480 337 c 0,58,59
 480 290 480 290 443 209 c 128,-1,60
 406 128 406 128 406 81 c 0,61,62
 406 58 406 58 427 49 c 0,63,64
 428 48 428 48 467 39 c 0,65,66
 493 33 493 33 493 16 c 0,67,68
 493 5 493 5 480 1 c 0,69,70
 465 -4 465 -4 434 -4 c 0,26,27
293 219 m 0,71,72
 236 219 236 219 185 195 c 0,73,74
 121 165 121 165 121 112 c 0,75,76
 121 44 121 44 239 44 c 0,77,78
 279 44 279 44 351 69 c 1,79,80
 350 75 350 75 349.5 80 c 128,-1,81
 349 85 349 85 349 89 c 0,82,83
 349 124 349 124 378 208 c 1,84,85
 329 219 329 219 293 219 c 0,71,72
EndSplineSet
EndChar

StartChar: adieresis
Encoding: 228 228 146
Width: 600
Flags: W
LayerCount: 2
Fore
SplineSet
484 557 m 2,0,1
 484 556 484 556 483.5 553.5 c 128,-1,2
 483 551 483 551 482 546 c 0,3,4
 478 536 478 536 460 525 c 1,5,-1
 442 525 l 1,6,-1
 429 526 l 1,7,8
 403 543 403 543 403 562 c 0,9,10
 403 576 403 576 416 591 c 128,-1,11
 429 606 429 606 444 606 c 256,12,13
 459 606 459 606 471.5 594.5 c 128,-1,14
 484 583 484 583 484 567 c 2,15,-1
 484 557 l 2,0,1
315 546 m 1,16,17
 307 535 307 535 293 525 c 0,18,19
 286 524 286 524 282 524 c 0,20,21
 279 524 279 524 277 524 c 0,22,23
 238 524 238 524 238 562 c 0,24,25
 238 597 238 597 280 603 c 1,26,27
 317 594 317 594 317 562 c 0,28,29
 317 556 317 556 315 546 c 1,16,17
503 1 m 0,30,31
 497 0 497 0 488 -0.5 c 128,-1,32
 479 -1 479 -1 468 -3 c 0,33,34
 451 0 451 0 434 2 c 128,-1,35
 417 4 417 4 402 13 c 1,36,-1
 401 13 l 1,37,-1
 386 22 l 1,38,39
 313 -4 313 -4 247 -4 c 0,40,41
 90 -4 90 -4 90 114 c 0,42,43
 90 182 90 182 158 229 c 0,44,45
 219 272 219 272 292 272 c 0,46,47
 368 272 368 272 421 259 c 1,48,49
 440 297 440 297 440 333 c 0,50,51
 440 354 440 354 423.5 370.5 c 128,-1,52
 407 387 407 387 387 387 c 2,53,-1
 324 387 l 2,54,55
 319 385 319 385 311.5 383 c 128,-1,56
 304 381 304 381 293 377 c 1,57,58
 241 377 241 377 203 361 c 1,59,-1
 194 361 l 1,60,-1
 184 367 l 1,61,-1
 179 376 l 1,62,63
 180 398 180 398 188 406 c 0,64,65
 199 416 199 416 262 428 c 0,66,67
 323 439 323 439 343 439 c 0,68,69
 497 439 497 439 497 344 c 0,70,71
 497 280 497 280 474 252 c 0,72,73
 472 244 472 244 465 223 c 128,-1,74
 458 202 458 202 445 170 c 0,75,76
 426 122 426 122 426 86 c 0,77,78
 426 49 426 49 469 42 c 0,79,80
 482 40 482 40 497 36 c 0,81,82
 509 30 509 30 509 16 c 0,83,84
 509 8 509 8 503 1 c 0,30,31
295 218 m 0,85,86
 250 218 250 218 214 204 c 0,87,88
 197 196 197 196 171 170 c 0,89,90
 140 142 140 142 140 126 c 0,91,92
 140 74 140 74 171 58 c 0,93,94
 193 46 193 46 248 46 c 0,95,96
 287 46 287 46 368 70 c 1,97,-1
 367 91 l 2,98,99
 366 114 366 114 377 148 c 0,100,101
 381 158 381 158 385.5 172.5 c 128,-1,102
 390 187 390 187 397 207 c 1,103,104
 342 218 342 218 295 218 c 0,85,86
EndSplineSet
EndChar

StartChar: aring
Encoding: 229 229 147
Width: 600
Flags: W
LayerCount: 2
Fore
SplineSet
376 477 m 0,0,1
 339 477 339 477 316.5 502 c 128,-1,2
 294 527 294 527 294 564 c 0,3,4
 294 600 294 600 317.5 623.5 c 128,-1,5
 341 647 341 647 377 647 c 0,6,7
 416 647 416 647 439.5 624 c 128,-1,8
 463 601 463 601 463 562 c 256,9,10
 463 523 463 523 439 500 c 128,-1,11
 415 477 415 477 376 477 c 0,0,1
462 -1 m 0,12,13
 438 -1 438 -1 422 5 c 2,14,-1
 386 23 l 1,15,16
 303 -4 303 -4 250 -4 c 0,17,18
 90 -4 90 -4 90 127 c 0,19,20
 90 152 90 152 120 193 c 0,21,22
 178 275 178 275 312 275 c 0,23,24
 361 275 361 275 420 260 c 1,25,26
 441 309 441 309 441 337 c 0,27,28
 441 389 441 389 356 389 c 0,29,30
 326 389 326 389 275 376 c 0,31,32
 222 364 222 364 196 364 c 0,33,34
 194 364 194 364 193 365 c 2,35,-1
 190 366 l 1,36,37
 179 374 179 374 179 386 c 0,38,39
 179 415 179 415 256 432 c 0,40,41
 283 437 283 437 309 440 c 128,-1,42
 335 443 335 443 360 443 c 0,43,44
 415 443 415 443 453 422 c 0,45,46
 498 396 498 396 498 345 c 0,47,48
 498 298 498 298 461 215 c 0,49,50
 425 131 425 131 425 84 c 0,51,52
 425 61 425 61 446 52 c 0,53,54
 447 51 447 51 485 42 c 0,55,56
 510 38 510 38 510 19 c 0,57,58
 510 -1 510 -1 462 -1 c 0,12,13
378 603 m 0,59,60
 362 603 362 603 348 591 c 128,-1,61
 334 579 334 579 334 563 c 0,62,63
 334 546 334 546 347.5 532.5 c 128,-1,64
 361 519 361 519 378 519 c 0,65,66
 422 519 422 519 422 563 c 0,67,68
 422 603 422 603 378 603 c 0,59,60
311 223 m 0,69,70
 254 223 254 223 203 198 c 0,71,72
 139 167 139 167 139 117 c 0,73,74
 139 46 139 46 261 46 c 0,75,76
 295 46 295 46 369 71 c 1,77,78
 368 77 368 77 367.5 82 c 128,-1,79
 367 87 367 87 367 91 c 0,80,81
 367 130 367 130 397 210 c 1,82,83
 346 223 346 223 311 223 c 0,69,70
EndSplineSet
EndChar

StartChar: ae
Encoding: 230 230 148
Width: 600
Flags: W
LayerCount: 2
Fore
SplineSet
535 252 m 2,0,1
 535 190 535 190 503 190 c 2,2,-1
 330 189 l 1,3,-1
 329 173 l 2,4,5
 327 131 327 131 339 98 c 0,6,7
 355 49 355 49 390 49 c 0,8,9
 426 49 426 49 449 62 c 0,10,11
 459 67 459 67 470 77.5 c 128,-1,12
 481 88 481 88 495 102 c 1,13,-1
 502 104 l 1,14,15
 526 98 526 98 526 69 c 0,16,17
 526 62 526 62 508 40 c 0,18,19
 475 -1 475 -1 386 -1 c 0,20,21
 344 -1 344 -1 317 27 c 1,22,23
 255 0 255 0 177 0 c 0,24,25
 65 0 65 0 65 124 c 0,26,27
 65 173 65 173 108 222 c 0,28,29
 152 272 152 272 200 272 c 0,30,31
 241 272 241 272 277 261 c 1,32,33
 281 274 281 274 292 303 c 0,34,35
 300 329 300 329 300 345 c 0,36,37
 300 387 300 387 226 387 c 0,38,39
 202 387 202 387 153 362 c 0,40,41
 145 358 145 358 139 358 c 0,42,43
 118 358 118 358 118 385 c 0,44,45
 118 407 118 407 168 424 c 0,46,47
 208 439 208 439 238 439 c 0,48,49
 321 439 321 439 341 392 c 1,50,51
 388 439 388 439 445 439 c 0,52,53
 490 439 490 439 516 380 c 0,54,55
 535 335 535 335 535 279 c 2,56,-1
 535 266 l 1,57,-1
 535 252 l 2,0,1
433 383 m 0,58,59
 393 383 393 383 362 332 c 0,60,61
 351 312 351 312 343 290 c 128,-1,62
 335 268 335 268 330 243 c 1,63,64
 479 243 l 1,65,66
 482 270 482 270 482 289 c 0,67,68
 482 383 482 383 433 383 c 0,58,59
275 207 m 1,69,70
 233 224 233 224 213 224 c 0,71,72
 175 224 175 224 143 192 c 0,73,74
 112 161 112 161 112 121 c 0,75,76
 112 47 112 47 191 47 c 0,77,78
 248 47 248 47 291 73 c 1,79,80
 280 109 280 109 275 207 c 1,69,70
EndSplineSet
EndChar

StartChar: ccedilla
Encoding: 231 231 149
Width: 600
Flags: W
LayerCount: 2
Fore
SplineSet
462 364 m 0,0,1
 462 356 462 356 468 341 c 128,-1,2
 474 326 474 326 474 318 c 0,3,4
 474 293 474 293 450 293 c 0,5,6
 432 293 432 293 425 312 c 0,7,8
 423 325 423 325 416 347 c 0,9,10
 405 369 405 369 370 379 c 0,11,12
 343 388 343 388 315 388 c 0,13,14
 232 388 232 388 189 324 c 0,15,16
 153 271 153 271 153 185 c 0,17,18
 153 129 153 129 185 88 c 0,19,20
 219 43 219 43 274 43 c 0,21,22
 309 43 309 43 343 63 c 0,23,24
 362 73 362 73 400 105 c 0,25,26
 414 116 414 116 418 116 c 0,27,28
 426 116 426 116 433.5 107 c 128,-1,29
 441 98 441 98 441 88 c 0,30,31
 441 64 441 64 397 32 c 0,32,33
 355 4 355 4 326 0 c 0,34,35
 309 -4 309 -4 266 -4 c 1,36,-1
 259 -32 l 1,37,38
 286 -49 286 -49 286 -83 c 0,39,40
 286 -120 286 -120 263.5 -144 c 128,-1,41
 241 -168 241 -168 205 -168 c 0,42,43
 183 -168 183 -168 153 -154 c 0,44,45
 120 -138 120 -138 120 -119 c 256,46,47
 120 -100 120 -100 144 -95 c 0,48,49
 148 -96 148 -96 154.5 -99.5 c 128,-1,50
 161 -103 161 -103 171 -108 c 0,51,52
 187 -118 187 -118 199 -118 c 0,53,54
 230 -118 230 -118 230 -87 c 0,55,56
 230 -64 230 -64 201 -56 c 1,57,-1
 214 2 l 1,58,59
 155 21 155 21 127 80 c 0,60,61
 102 129 102 129 102 195 c 0,62,63
 102 294 102 294 157 365 c 0,64,65
 217 442 217 442 313 442 c 0,66,67
 368 442 368 442 429 410 c 1,68,69
 447 427 447 427 448 427 c 0,70,71
 460 437 460 437 469 439 c 0,72,73
 476 437 476 437 487 430 c 0,74,75
 497 424 497 424 497 411 c 0,76,77
 497 409 497 409 479 391 c 0,78,79
 462 374 462 374 462 364 c 0,0,1
EndSplineSet
EndChar

StartChar: egrave
Encoding: 232 232 150
Width: 600
Flags: W
LayerCount: 2
Fore
SplineSet
439 511 m 1,0,1
 434 508 l 2,2,3
 433 507 433 507 431 505.5 c 128,-1,4
 429 504 429 504 427 501 c 2,5,-1
 416 498 l 1,6,-1
 407 500 l 1,7,8
 366 546 366 546 350 566 c 0,9,10
 311 614 311 614 306 635 c 0,11,12
 308 638 308 638 310.5 642 c 128,-1,13
 313 646 313 646 317 651 c 2,14,-1
 333 659 l 1,15,16
 349 651 349 651 396 593 c 0,17,18
 444 534 444 534 444 523 c 0,19,20
 444 519 444 519 439 511 c 1,0,1
491 205 m 1,21,22
 483 202 483 202 460 202 c 2,23,-1
 141 202 l 1,24,25
 142 137 142 137 177 93 c 0,26,27
 214 47 214 47 278 47 c 2,28,-1
 334 47 l 2,29,30
 340 47 340 47 351 50 c 0,31,32
 364 53 364 53 369 53 c 0,33,34
 403 68 403 68 425 85 c 1,35,36
 435 83 435 83 446 85 c 1,37,38
 462 76 462 76 462 55 c 2,39,-1
 462 52 l 1,40,-1
 460 46 l 1,41,42
 405 -3 405 -3 271 -3 c 0,43,44
 182 -3 182 -3 134 62 c 0,45,46
 91 120 91 120 91 214 c 0,47,48
 91 320 91 320 177 386 c 0,49,50
 256 446 256 446 366 446 c 0,51,52
 427 446 427 446 468 401 c 0,53,54
 508 357 508 357 508 294 c 0,55,56
 508 236 508 236 491 205 c 1,21,22
382 388 m 0,57,58
 366 388 366 388 359 392 c 1,59,60
 275 391 275 391 225 362 c 0,61,62
 166 327 166 327 145 251 c 1,63,64
 450 251 l 1,65,66
 457 278 457 278 457 297 c 0,67,68
 457 330 457 330 437 358 c 0,69,70
 414 388 414 388 382 388 c 0,57,58
EndSplineSet
EndChar

StartChar: eacute
Encoding: 233 233 151
Width: 600
Flags: W
LayerCount: 2
Fore
SplineSet
320 495 m 0,0,1
 299 495 299 495 299 522 c 0,2,3
 299 542 299 542 356 599 c 0,4,5
 413 657 413 657 429 657 c 0,6,7
 439 657 439 657 447 649 c 128,-1,8
 455 641 455 641 455 630 c 0,9,10
 455 618 455 618 394 557 c 0,11,12
 332 495 332 495 320 495 c 0,0,1
500 214 m 1,13,14
 487 198 487 198 472 199 c 0,15,16
 467 200 467 200 463 200 c 0,17,18
 460 200 460 200 458 200 c 2,19,-1
 142 200 l 1,20,21
 145 44 145 44 310 44 c 0,22,23
 381 44 381 44 425 83 c 1,24,-1
 447 83 l 1,25,-1
 455 79 l 1,26,27
 456 70 456 70 462 62 c 1,28,-1
 458 42 l 1,29,30
 396 -5 396 -5 270 -5 c 0,31,32
 184 -5 184 -5 136 58 c 0,33,34
 92 116 92 116 92 203 c 0,35,36
 92 314 92 314 174 381 c 0,37,38
 250 444 250 444 364 444 c 0,39,40
 429 444 429 444 470 397 c 0,41,42
 508 351 508 351 508 285 c 0,43,44
 508 266 508 266 506 248.5 c 128,-1,45
 504 231 504 231 500 214 c 1,13,14
366 386 m 1,46,47
 358 389 l 1,48,49
 183 389 183 389 146 248 c 1,50,-1
 450 248 l 1,51,52
 456 279 456 279 456 294 c 0,53,54
 456 336 456 336 431 361 c 128,-1,55
 406 386 406 386 366 386 c 1,46,47
EndSplineSet
EndChar

StartChar: ecircumflex
Encoding: 234 234 152
Width: 600
Flags: W
LayerCount: 2
Fore
SplineSet
486 523 m 0,0,1
 471 523 471 523 429 559 c 0,2,3
 415 571 415 571 402 583 c 128,-1,4
 389 595 389 595 375 608 c 1,5,6
 259 518 259 518 244 518 c 0,7,8
 235 518 235 518 228 527 c 128,-1,9
 221 536 221 536 221 545 c 0,10,11
 221 556 221 556 294 614 c 128,-1,12
 367 672 367 672 382 672 c 0,13,14
 399 672 399 672 407 657 c 1,15,16
 423 643 423 643 438 630 c 128,-1,17
 453 617 453 617 468 604 c 0,18,19
 515 562 515 562 515 545 c 0,20,21
 515 538 515 538 504.5 530.5 c 128,-1,22
 494 523 494 523 486 523 c 0,0,1
454 203 m 2,23,24
 136 203 l 1,25,-1
 135 184 l 2,26,27
 132 126 132 126 182 85 c 0,28,29
 228 49 228 49 289 49 c 0,30,31
 342 49 342 49 414 84 c 0,32,33
 426 90 426 90 432 90 c 0,34,35
 458 90 458 90 458 57 c 0,36,37
 458 49 458 49 445 42 c 0,38,39
 382 0 382 0 265 0 c 0,40,41
 183 0 183 0 132 60 c 0,42,43
 85 116 85 116 85 200 c 0,44,45
 85 316 85 316 165 384 c 0,46,47
 241 448 241 448 359 448 c 0,48,49
 425 448 425 448 464 404 c 0,50,51
 502 361 502 361 502 295 c 0,52,53
 502 248 502 248 498 235 c 0,54,55
 487 203 487 203 454 203 c 2,23,24
354 392 m 0,56,57
 176 392 176 392 141 255 c 1,58,-1
 446 255 l 1,59,60
 453 280 453 280 453 302 c 0,61,62
 453 343 453 343 423 369 c 0,63,64
 395 392 395 392 354 392 c 0,56,57
EndSplineSet
EndChar

StartChar: edieresis
Encoding: 235 235 153
Width: 600
Flags: W
LayerCount: 2
Fore
SplineSet
453 525 m 2,0,1
 444 525 l 1,2,-1
 441 525 l 0,3,4
 439 525 439 525 434 526 c 0,5,6
 407 541 407 541 407 563 c 0,7,8
 407 571 407 571 421 594 c 1,9,10
 440 607 440 607 448 607 c 0,11,12
 466 607 466 607 477 594 c 128,-1,13
 488 581 488 581 488 563 c 0,14,15
 488 525 488 525 453 525 c 2,0,1
288 525 m 2,16,17
 279 525 l 2,18,19
 264 525 264 525 253.5 536 c 128,-1,20
 243 547 243 547 243 563 c 0,21,22
 243 603 243 603 284 603 c 0,23,24
 321 603 321 603 321 563 c 0,25,26
 321 525 321 525 288 525 c 2,16,17
481 200 m 1,27,-1
 142 200 l 1,28,29
 145 47 145 47 313 47 c 0,30,31
 323 47 323 47 341.5 50.5 c 128,-1,32
 360 54 360 54 369 54 c 0,33,34
 388 63 388 63 426 87 c 1,35,-1
 438 85 l 1,36,-1
 447 87 l 1,37,-1
 455 81 l 1,38,-1
 458 72 l 1,39,-1
 464 65 l 1,40,-1
 464 56 l 2,41,42
 464 54 464 54 463.5 51.5 c 128,-1,43
 463 49 463 49 462 44 c 1,44,-1
 450 41 l 1,45,46
 400 -1 400 -1 306 -1 c 2,47,-1
 255 -1 l 2,48,49
 200 -1 200 -1 152 44 c 0,50,51
 107 88 107 88 96 144 c 0,52,53
 94 154 94 154 93 169.5 c 128,-1,54
 92 185 92 185 92 206 c 0,55,56
 92 319 92 319 173 384 c 0,57,58
 248 444 248 444 364 444 c 0,59,60
 431 444 431 444 470 401 c 0,61,62
 508 360 508 360 508 292 c 0,63,64
 508 212 508 212 481 200 c 1,27,-1
358 389 m 0,65,66
 274 389 274 389 225 361 c 0,67,68
 167 330 167 330 146 252 c 1,69,-1
 450 252 l 1,70,71
 458 289 458 289 458 297 c 0,72,73
 458 340 458 340 430.5 364.5 c 128,-1,74
 403 389 403 389 358 389 c 0,65,66
EndSplineSet
EndChar

StartChar: igrave
Encoding: 236 236 154
Width: 600
Flags: W
LayerCount: 2
Fore
SplineSet
417 506 m 1,0,1
 404 499 l 2,2,3
 396 497 396 497 387 497 c 1,4,5
 378 502 378 502 337 553 c 0,6,7
 326 567 326 567 313.5 583.5 c 128,-1,8
 301 600 301 600 286 620 c 1,9,-1
 287 623 l 1,10,-1
 286 630 l 1,11,-1
 289 639 l 1,12,-1
 297 647 l 2,13,14
 304 651 304 651 314 654 c 1,15,16
 330 650 330 650 375 593 c 128,-1,17
 420 536 420 536 420 519 c 0,18,19
 420 513 420 513 417 506 c 1,0,1
436 2 m 2,20,-1
 159 2 l 2,21,22
 140 2 140 2 140 26 c 0,23,24
 140 35 140 35 146.5 44 c 128,-1,25
 153 53 153 53 161 53 c 2,26,-1
 276 53 l 1,27,-1
 349 391 l 1,28,29
 344 391 344 391 335.5 390.5 c 128,-1,30
 327 390 327 390 314 389 c 0,31,32
 303 388 303 388 295 387.5 c 128,-1,33
 287 387 287 387 282 388 c 0,34,35
 251 389 251 389 251 417 c 0,36,37
 251 442 251 442 270 442 c 2,38,-1
 380 442 l 2,39,40
 406 442 406 442 406 426 c 0,41,42
 406 418 406 418 401 393 c 2,43,-1
 326 53 l 1,44,-1
 432 53 l 2,45,46
 460 53 460 53 460 26 c 0,47,48
 460 2 460 2 436 2 c 2,20,-1
EndSplineSet
EndChar

StartChar: iacute
Encoding: 237 237 155
Width: 600
Flags: W
LayerCount: 2
Fore
SplineSet
314 500 m 0,0,1
 293 500 293 500 293 528 c 0,2,3
 293 545 293 545 348 603 c 0,4,5
 404 662 404 662 418 662 c 0,6,7
 447 662 447 662 447 636 c 0,8,9
 447 624 447 624 386 562 c 0,10,11
 326 500 326 500 314 500 c 0,0,1
458 18 m 1,12,-1
 445 4 l 1,13,14
 435 2 435 2 432 2 c 2,15,-1
 161 2 l 2,16,17
 158 2 158 2 156 3 c 2,18,-1
 152 4 l 1,19,20
 149 11 149 11 140 25 c 1,21,22
 140 54 140 54 160 54 c 2,23,-1
 276 54 l 1,24,-1
 350 392 l 1,25,26
 345 392 345 392 338 392 c 0,27,28
 332 392 332 392 322 391 c 0,29,30
 314 390 314 390 307 390 c 0,31,32
 301 390 301 390 296 390 c 0,33,34
 276 390 276 390 261 393 c 0,35,36
 255 397 255 397 254 399 c 0,37,38
 253 404 253 404 252.5 409.5 c 128,-1,39
 252 415 252 415 250 421 c 1,40,41
 254 425 254 425 256 437 c 1,42,43
 263 444 263 444 272 444 c 2,44,-1
 380 444 l 2,45,46
 389 444 389 444 401 439 c 1,47,-1
 406 429 l 1,48,-1
 406 426 l 2,49,50
 406 421 406 421 400 394 c 2,51,-1
 327 54 l 1,52,53
 333 55 333 55 342 55 c 256,54,55
 351 55 351 55 363 56 c 0,56,57
 374 57 374 57 382 57.5 c 128,-1,58
 390 58 390 58 396 58 c 0,59,60
 431 58 431 58 452 48 c 1,61,62
 459 38 459 38 460 26 c 2,63,-1
 458 18 l 1,12,-1
EndSplineSet
EndChar

StartChar: icircumflex
Encoding: 238 238 156
Width: 600
Flags: W
LayerCount: 2
Fore
SplineSet
468 523 m 0,0,1
 452 523 452 523 410 562 c 0,2,3
 397 576 397 576 384 589 c 128,-1,4
 371 602 371 602 357 616 c 1,5,6
 340 602 340 602 323.5 589 c 128,-1,7
 307 576 307 576 290 563 c 0,8,9
 237 522 237 522 222 522 c 0,10,11
 201 522 201 522 201 546 c 0,12,13
 201 562 201 562 257 606 c 0,14,15
 262 610 262 610 281 624.5 c 128,-1,16
 300 639 300 639 335 664 c 0,17,18
 344 670 344 670 359 670 c 0,19,20
 373 670 373 670 384 661 c 0,21,22
 400 647 400 647 415.5 633.5 c 128,-1,23
 431 620 431 620 447 606 c 0,24,25
 494 564 494 564 494 546 c 0,26,27
 494 539 494 539 485 531 c 128,-1,28
 476 523 476 523 468 523 c 0,0,1
398 1 m 2,29,30
 126 1 l 2,31,32
 105 1 105 1 105 28 c 0,33,34
 105 52 105 52 126 52 c 2,35,-1
 241 52 l 1,36,-1
 314 390 l 1,37,38
 309 390 309 390 300.5 389.5 c 128,-1,39
 292 389 292 389 280 388 c 0,40,41
 269 387 269 387 261 386.5 c 128,-1,42
 253 386 253 386 247 387 c 0,43,44
 215 389 215 389 215 417 c 0,45,46
 215 442 215 442 235 442 c 2,47,-1
 344 442 l 2,48,49
 370 442 370 442 370 425 c 0,50,51
 370 412 370 412 366 392 c 2,52,-1
 291 52 l 1,53,-1
 398 52 l 2,54,55
 424 52 424 52 424 26 c 0,56,57
 424 1 424 1 398 1 c 2,29,30
EndSplineSet
EndChar

StartChar: idieresis
Encoding: 239 239 157
Width: 600
Flags: W
LayerCount: 2
Fore
SplineSet
434 518 m 0,0,1
 419 518 419 518 406.5 529.5 c 128,-1,2
 394 541 394 541 394 555 c 256,3,4
 394 569 394 569 407 584 c 128,-1,5
 420 599 420 599 434 599 c 0,6,7
 452 599 452 599 463.5 586 c 128,-1,8
 475 573 475 573 475 555 c 0,9,10
 475 518 475 518 434 518 c 0,0,1
270 518 m 0,11,12
 230 518 230 518 230 555 c 0,13,14
 230 590 230 590 270 596 c 1,15,16
 307 586 307 586 307 555 c 0,17,18
 307 518 307 518 270 518 c 0,11,12
430 1 m 1,19,20
 137 1 l 1,21,22
 125 22 125 22 125 24 c 0,23,24
 125 52 125 52 145 52 c 2,25,-1
 262 52 l 1,26,-1
 336 390 l 1,27,28
 315 389 315 389 303 388.5 c 128,-1,29
 291 388 291 388 288 388 c 0,30,31
 246 388 246 388 239 398 c 1,32,33
 237 396 237 396 236 418 c 1,34,-1
 242 436 l 1,35,36
 249 442 249 442 257 442 c 2,37,-1
 365 442 l 2,38,39
 374 442 374 442 386 437 c 1,40,-1
 391 426 l 1,41,-1
 391 424 l 2,42,43
 391 419 391 419 385 392 c 2,44,-1
 313 52 l 1,45,46
 318 53 318 53 327 53 c 256,47,48
 336 53 336 53 348 54 c 0,49,50
 359 55 359 55 367.5 55.5 c 128,-1,51
 376 56 376 56 382 56 c 0,52,53
 417 56 417 56 438 46 c 0,54,55
 440 41 440 41 442 35.5 c 128,-1,56
 444 30 444 30 446 25 c 0,57,58
 440 9 440 9 430 1 c 1,19,20
EndSplineSet
EndChar

StartChar: ntilde
Encoding: 241 241 158
Width: 600
Flags: W
LayerCount: 2
Fore
SplineSet
429 528 m 0,0,1
 405 528 405 528 352 545 c 0,2,3
 302 563 302 563 275 563 c 0,4,5
 251 563 251 563 241 547 c 2,6,-1
 236 541 l 2,7,8
 230 532 230 532 222 532 c 0,9,10
 200 532 200 532 200 553 c 0,11,12
 200 576 200 576 224 593 c 0,13,14
 247 610 247 610 271 610 c 0,15,16
 304 610 304 610 367 589 c 0,17,18
 432 569 432 569 464 569 c 0,19,20
 482 569 482 569 501 600 c 0,21,22
 510 613 510 613 518 613 c 0,23,24
 540 613 540 613 540 594 c 0,25,26
 540 528 540 528 429 528 c 0,0,1
499 295 m 2,27,28
 447 52 l 1,29,-1
 469 53 l 2,30,31
 498 55 498 55 498 25 c 0,32,33
 498 1 498 1 474 1 c 2,34,-1
 354 2 l 2,35,36
 334 2 334 2 334 26 c 0,37,38
 334 53 334 53 370 53 c 0,39,40
 372 53 372 53 377 53 c 256,41,42
 382 53 382 53 391 52 c 1,43,44
 396 75 396 75 405.5 111.5 c 128,-1,45
 415 148 415 148 428 199 c 0,46,47
 454 311 454 311 454 337 c 0,48,49
 454 389 454 389 373 389 c 0,50,51
 338 389 338 389 296 375 c 0,52,53
 243 358 243 358 236 330 c 2,54,-1
 166 52 l 1,55,56
 177 53 177 53 184.5 53.5 c 128,-1,57
 192 54 192 54 194 54 c 0,58,59
 233 54 233 54 233 26 c 0,60,61
 233 2 233 2 210 2 c 2,62,-1
 76 2 l 2,63,64
 60 2 60 2 60 26 c 0,65,66
 60 53 60 53 96 53 c 0,67,68
 98 53 98 53 103 53 c 256,69,70
 108 53 108 53 116 52 c 1,71,-1
 184 353 l 1,72,73
 171 381 171 381 140 394 c 0,74,75
 117 403 117 403 117 420 c 0,76,77
 117 443 117 443 136 443 c 0,78,79
 181 443 181 443 219 398 c 1,80,81
 281 442 281 442 368 442 c 0,82,83
 504 442 504 442 504 339 c 0,84,85
 504 318 504 318 499 295 c 2,27,28
EndSplineSet
EndChar

StartChar: ograve
Encoding: 242 242 159
Width: 600
Flags: W
LayerCount: 2
Fore
SplineSet
425 507 m 1,0,1
 418 503 l 1,2,-1
 413 498 l 1,3,4
 403 496 403 496 404 496 c 1,5,6
 392 496 392 496 348 549 c 0,7,8
 337 563 337 563 323.5 581 c 128,-1,9
 310 599 310 599 294 619 c 1,10,-1
 294 623 l 2,11,12
 294 653 294 653 321 653 c 0,13,14
 322 653 322 653 324 653 c 0,15,16
 327 653 327 653 331 652 c 0,17,18
 339 644 339 644 353 627.5 c 128,-1,19
 367 611 367 611 387 585 c 0,20,21
 429 529 429 529 429 519 c 0,22,23
 429 514 429 514 425 507 c 1,0,1
261 1 m 0,24,25
 181 1 181 1 134 51 c 0,26,27
 89 99 89 99 89 181 c 0,28,29
 89 287 89 287 165 367 c 0,30,31
 241 451 241 451 346 451 c 0,32,33
 424 451 424 451 467 402 c 0,34,35
 510 356 510 356 510 276 c 0,36,37
 510 160 510 160 445 83 c 0,38,39
 376 1 376 1 261 1 c 0,24,25
336 395 m 0,40,41
 260 395 260 395 199 328 c 0,42,43
 139 262 139 262 139 185 c 0,44,45
 139 156 139 156 149 131.5 c 128,-1,46
 159 107 159 107 177 89 c 128,-1,47
 195 71 195 71 219 61 c 128,-1,48
 243 51 243 51 272 51 c 0,49,50
 355 51 355 51 411 123 c 0,51,52
 460 188 460 188 460 274 c 0,53,54
 460 328 460 328 425.5 361.5 c 128,-1,55
 391 395 391 395 336 395 c 0,40,41
EndSplineSet
EndChar

StartChar: oacute
Encoding: 243 243 160
Width: 600
Flags: W
LayerCount: 2
Fore
SplineSet
316 500 m 0,0,1
 295 500 295 500 295 527 c 0,2,3
 295 542 295 542 302 549 c 0,4,5
 317 565 317 565 332 581 c 128,-1,6
 347 597 347 597 362 613 c 0,7,8
 408 661 408 661 426 661 c 0,9,10
 435 661 435 661 442.5 653.5 c 128,-1,11
 450 646 450 646 450 637 c 0,12,13
 450 623 450 623 389 562 c 0,14,15
 329 500 329 500 316 500 c 0,0,1
261 0 m 0,16,17
 180 0 180 0 134 48 c 0,18,19
 90 97 90 97 90 178 c 0,20,21
 90 283 90 283 165 364 c 0,22,23
 242 447 242 447 347 447 c 0,24,25
 425 447 425 447 469 397 c 0,26,27
 510 350 510 350 510 270 c 0,28,29
 510 153 510 153 444 78 c 0,30,31
 376 0 376 0 261 0 c 0,16,17
337 392 m 0,32,33
 261 392 261 392 199 324 c 0,34,35
 140 257 140 257 140 181 c 0,36,37
 140 121 140 121 177 84.5 c 128,-1,38
 214 48 214 48 274 48 c 0,39,40
 356 48 356 48 411 121 c 0,41,42
 462 187 462 187 462 271 c 0,43,44
 462 326 462 326 426.5 359 c 128,-1,45
 391 392 391 392 337 392 c 0,32,33
EndSplineSet
EndChar

StartChar: ocircumflex
Encoding: 244 244 161
Width: 600
Flags: W
LayerCount: 2
Fore
SplineSet
488 521 m 0,0,1
 472 521 472 521 430 560 c 0,2,3
 403 586 403 586 377 613 c 1,4,5
 259 519 259 519 242 519 c 0,6,7
 220 519 220 519 220 543 c 0,8,9
 220 559 220 559 289 613 c 0,10,11
 357 668 357 668 380 668 c 0,12,13
 398 668 398 668 457 615 c 0,14,15
 515 563 515 563 515 545 c 0,16,17
 515 538 515 538 505.5 529.5 c 128,-1,18
 496 521 496 521 488 521 c 0,0,1
257 -3 m 0,19,20
 173 -3 173 -3 129 45 c 128,-1,21
 85 93 85 93 85 175 c 0,22,23
 85 280 85 280 160 361 c 0,24,25
 237 444 237 444 341 444 c 0,26,27
 422 444 422 444 465 395 c 0,28,29
 505 349 505 349 505 267 c 0,30,31
 505 152 505 152 440 75 c 0,32,33
 371 -3 371 -3 257 -3 c 0,19,20
332 389 m 0,34,35
 257 389 257 389 195 321 c 0,36,37
 135 255 135 255 135 179 c 0,38,39
 135 149 135 149 144.5 124.5 c 128,-1,40
 154 100 154 100 172 82.5 c 128,-1,41
 190 65 190 65 214.5 55 c 128,-1,42
 239 45 239 45 269 45 c 0,43,44
 351 45 351 45 406 118 c 0,45,46
 457 185 457 185 457 269 c 0,47,48
 457 323 457 323 421.5 356 c 128,-1,49
 386 389 386 389 332 389 c 0,34,35
EndSplineSet
EndChar

StartChar: otilde
Encoding: 245 245 162
Width: 600
Flags: W
LayerCount: 2
Fore
SplineSet
416 503 m 0,0,1
 388 503 388 503 333 521 c 0,2,3
 279 539 279 539 249 539 c 0,4,5
 237 539 237 539 229 529.5 c 128,-1,6
 221 520 221 520 213 511 c 0,7,8
 209 507 209 507 203 507 c 2,9,10
 203 507 203 507 200 507.5 c 128,-1,11
 197 508 197 508 192 509 c 0,12,13
 181 517 181 517 181 529 c 0,14,15
 181 552 181 552 207 569 c 0,16,17
 229 585 229 585 255 585 c 0,18,19
 288 585 288 585 350 564 c 0,20,21
 413 544 413 544 445 544 c 0,22,23
 460 544 460 544 474 564 c 0,24,25
 489 585 489 585 499 588 c 1,26,27
 521 584 521 584 521 567 c 0,28,29
 521 503 521 503 416 503 c 0,0,1
251 1 m 0,30,31
 171 1 171 1 124 51 c 0,32,33
 79 99 79 99 79 181 c 0,34,35
 79 285 79 285 156 368 c 0,36,37
 232 450 232 450 336 450 c 0,38,39
 414 450 414 450 458 400 c 0,40,41
 499 353 499 353 499 274 c 0,42,43
 499 158 499 158 434 81 c 0,44,45
 366 1 366 1 251 1 c 0,30,31
323 395 m 0,46,47
 247 395 247 395 186 328 c 128,-1,48
 125 261 125 261 125 185 c 0,49,50
 125 156 125 156 135.5 131.5 c 128,-1,51
 146 107 146 107 164 89 c 128,-1,52
 182 71 182 71 206.5 61 c 128,-1,53
 231 51 231 51 260 51 c 0,54,55
 342 51 342 51 396 124 c 0,56,57
 447 190 447 190 447 274 c 0,58,59
 447 328 447 328 412 361.5 c 128,-1,60
 377 395 377 395 323 395 c 0,46,47
EndSplineSet
EndChar

StartChar: odieresis
Encoding: 246 246 163
Width: 600
Flags: W
LayerCount: 2
Fore
SplineSet
456 521 m 2,0,1
 447 521 l 2,2,3
 433 521 433 521 421.5 533 c 128,-1,4
 410 545 410 545 410 559 c 0,5,6
 410 565 410 565 414 573 c 128,-1,7
 418 581 418 581 424 587.5 c 128,-1,8
 430 594 430 594 437 598.5 c 128,-1,9
 444 603 444 603 450 603 c 0,10,11
 468 603 468 603 479.5 590 c 128,-1,12
 491 577 491 577 491 559 c 0,13,14
 491 521 491 521 456 521 c 2,0,1
282 521 m 0,15,16
 267 521 267 521 255 532.5 c 128,-1,17
 243 544 243 544 243 559 c 0,18,19
 243 576 243 576 256 587.5 c 128,-1,20
 269 599 269 599 286 599 c 0,21,22
 323 599 323 599 323 563 c 2,23,-1
 323 554 l 2,24,25
 323 521 323 521 282 521 c 0,15,16
262 -5 m 0,26,27
 181 -5 181 -5 135 43 c 128,-1,28
 89 91 89 91 89 172 c 0,29,30
 89 278 89 278 165 358 c 0,31,32
 241 442 241 442 346 442 c 0,33,34
 425 442 425 442 469 394 c 0,35,36
 511 347 511 347 511 267 c 0,37,38
 511 151 511 151 446 74 c 0,39,40
 376 -5 376 -5 262 -5 c 0,26,27
338 387 m 0,41,42
 262 387 262 387 200 319 c 0,43,44
 140 254 140 254 140 178 c 0,45,46
 140 118 140 118 177 81 c 128,-1,47
 214 44 214 44 274 44 c 0,48,49
 356 44 356 44 412 116 c 0,50,51
 462 181 462 181 462 267 c 0,52,53
 462 321 462 321 427 354 c 128,-1,54
 392 387 392 387 338 387 c 0,41,42
EndSplineSet
EndChar

StartChar: divide
Encoding: 247 247 164
Width: 600
Flags: W
LayerCount: 2
Fore
SplineSet
293 349 m 0,0,1
 260 349 260 349 240 370 c 128,-1,2
 220 391 220 391 220 424 c 0,3,4
 220 452 220 452 242 475 c 0,5,6
 264 500 264 500 292 500 c 0,7,8
 307 500 307 500 320.5 493.5 c 128,-1,9
 334 487 334 487 344.5 476.5 c 128,-1,10
 355 466 355 466 361 452.5 c 128,-1,11
 367 439 367 439 367 424 c 0,12,13
 367 392 367 392 346 370.5 c 128,-1,14
 325 349 325 349 293 349 c 0,0,1
507 232 m 1,15,16
 499 226 499 226 489 226 c 2,17,-1
 108 226 l 2,18,19
 86 226 86 226 86 251 c 0,20,21
 86 260 86 260 95 270 c 128,-1,22
 104 280 104 280 112 280 c 2,23,-1
 486 281 l 2,24,25
 514 281 514 281 514 252 c 0,26,27
 514 245 514 245 507 232 c 1,15,16
294 0 m 0,28,29
 223 0 223 0 223 73 c 0,30,31
 223 87 223 87 229 100.5 c 128,-1,32
 235 114 235 114 245 125 c 128,-1,33
 255 136 255 136 267.5 142.5 c 128,-1,34
 280 149 280 149 294 149 c 0,35,36
 309 149 309 149 322 142.5 c 128,-1,37
 335 136 335 136 345.5 125.5 c 128,-1,38
 356 115 356 115 362 101.5 c 128,-1,39
 368 88 368 88 368 73 c 0,40,41
 368 40 368 40 348 20 c 128,-1,42
 328 0 328 0 294 0 c 0,28,29
EndSplineSet
EndChar

StartChar: oslash
Encoding: 248 248 165
Width: 600
Flags: W
LayerCount: 2
Fore
SplineSet
227 0 m 1,0,1
 222 -11 222 -11 214.5 -29.5 c 128,-1,2
 207 -48 207 -48 196 -74 c 0,3,4
 170 -127 170 -127 154 -127 c 0,5,6
 143 -127 143 -127 135.5 -118 c 128,-1,7
 128 -109 128 -109 128 -99 c 0,8,9
 128 -88 128 -88 178 15 c 1,10,11
 90 58 90 58 90 177 c 0,12,13
 90 257 90 257 137 328 c 128,-1,14
 184 399 184 399 259 429 c 0,15,16
 284 439 284 439 375 445 c 1,17,18
 379 457 379 457 387 476.5 c 128,-1,19
 395 496 395 496 406 522 c 0,20,21
 430 574 430 574 451 574 c 0,22,23
 468 574 468 574 475 561 c 2,24,-1
 476 557 l 1,25,-1
 476 554 l 2,26,27
 476 545 476 545 426 431 c 1,28,29
 510 386 510 386 510 270 c 0,30,31
 510 156 510 156 444 78 c 0,32,33
 375 -2 375 -2 266 -2 c 0,34,35
 256 -2 256 -2 246.5 -1.5 c 128,-1,36
 237 -1 237 -1 227 0 c 1,0,1
402 378 m 1,37,38
 252 50 l 1,39,40
 262 47 262 47 274 47 c 0,41,42
 355 47 355 47 411 118 c 0,43,44
 462 184 462 184 462 268 c 0,45,46
 462 343 462 343 402 378 c 1,37,38
338 392 m 0,47,48
 262 392 262 392 200 324 c 0,49,50
 140 258 140 258 140 182 c 256,51,52
 140 106 140 106 203 67 c 1,53,-1
 348 389 l 1,54,55
 340 392 340 392 338 392 c 0,47,48
EndSplineSet
EndChar

StartChar: ugrave
Encoding: 249 249 166
Width: 600
Flags: W
LayerCount: 2
Fore
SplineSet
448 510 m 1,0,1
 442 506 l 1,2,-1
 441 506 l 1,3,-1
 435 500 l 2,4,5
 430 496 430 496 423 496 c 0,6,7
 422 496 422 496 420 496.5 c 128,-1,8
 418 497 418 497 413 498 c 0,9,10
 399 515 399 515 385.5 531 c 128,-1,11
 372 547 372 547 358 564 c 0,12,13
 319 610 319 610 314 633 c 0,14,15
 314 634 314 634 324 650 c 1,16,-1
 341 657 l 1,17,18
 358 652 358 652 399 601 c 0,19,20
 436 555 436 555 449 530 c 0,21,22
 450 526 450 526 450 524 c 256,23,24
 450 522 450 522 450 522 c 2,25,26
 450 520 450 520 448 510 c 1,0,1
420 73 m 0,27,28
 420 56 420 56 446 50 c 0,29,30
 460 48 460 48 481 38 c 1,31,-1
 481 37 l 1,32,-1
 487 29 l 2,33,34
 488 25 488 25 488 23 c 256,35,36
 488 21 488 21 488 21 c 2,37,38
 488 3 488 3 472 0 c 0,39,40
 468 -1 468 -1 461 -1.5 c 128,-1,41
 454 -2 454 -2 443 -2 c 0,42,43
 404 -2 404 -2 387 24 c 1,44,45
 359 -2 359 -2 298 -2 c 0,46,47
 205 -2 205 -2 162 22 c 0,48,49
 104 55 104 55 104 141 c 0,50,51
 104 162 104 162 108.5 192.5 c 128,-1,52
 113 223 113 223 123 263 c 0,53,54
 133 306 133 306 153 389 c 1,55,56
 142 388 142 388 136 388 c 0,57,58
 131 388 131 388 131 388 c 2,59,60
 111 388 111 388 100 402 c 1,61,-1
 98 414 l 2,62,63
 100 416 100 416 102 420.5 c 128,-1,64
 104 425 104 425 108 431 c 0,65,66
 120 440 120 440 128 440 c 2,67,-1
 217 440 l 1,68,69
 208 403 208 403 199 366.5 c 128,-1,70
 190 330 190 330 180 293 c 0,71,72
 167 241 167 241 161 206 c 128,-1,73
 155 171 155 171 155 153 c 0,74,75
 155 94 155 94 187 68 c 0,76,77
 215 44 215 44 277 44 c 0,78,79
 363 44 363 44 373 93 c 2,80,-1
 438 389 l 1,81,-1
 409 388 l 2,82,83
 390 387 390 387 379 396 c 0,84,85
 374 405 374 405 373 414 c 2,86,-1
 379 431 l 1,87,88
 389 440 389 440 400 440 c 2,89,-1
 502 440 l 1,90,91
 490 393 490 393 478 347 c 128,-1,92
 466 301 466 301 453 253 c 0,93,94
 420 121 420 121 420 73 c 0,27,28
EndSplineSet
EndChar

StartChar: uacute
Encoding: 250 250 167
Width: 600
Flags: W
LayerCount: 2
Fore
SplineSet
304 495 m 0,0,1
 283 495 283 495 283 521 c 0,2,3
 283 535 283 535 291 543 c 0,4,5
 305 559 305 559 320 575 c 128,-1,6
 335 591 335 591 350 608 c 0,7,8
 396 656 396 656 414 656 c 0,9,10
 423 656 423 656 431 648.5 c 128,-1,11
 439 641 439 641 439 631 c 0,12,13
 439 617 439 617 378 556 c 128,-1,14
 317 495 317 495 304 495 c 0,0,1
421 74 m 0,15,16
 421 54 421 54 456 48 c 0,17,18
 486 42 486 42 486 21 c 0,19,20
 486 -3 486 -3 444 -3 c 0,21,22
 403 -3 403 -3 386 26 c 1,23,24
 354 -3 354 -3 302 -3 c 0,25,26
 210 -3 210 -3 164 20 c 0,27,28
 102 53 102 53 102 138 c 0,29,30
 102 182 102 182 121 262 c 0,31,32
 126 284 126 284 133.5 315.5 c 128,-1,33
 141 347 141 347 151 389 c 1,34,-1
 129 388 l 2,35,36
 98 387 98 387 98 415 c 0,37,38
 98 424 98 424 108.5 432.5 c 128,-1,39
 119 441 119 441 129 441 c 2,40,-1
 215 441 l 1,41,42
 205 403 205 403 196 366 c 128,-1,43
 187 329 187 329 177 291 c 0,44,45
 153 193 153 193 153 141 c 0,46,47
 153 46 153 46 275 46 c 0,48,49
 362 46 362 46 373 94 c 2,50,-1
 437 388 l 1,51,-1
 413 387 l 2,52,53
 372 385 372 385 372 415 c 0,54,55
 372 444 372 444 428 444 c 0,56,57
 435 444 435 444 444 443.5 c 128,-1,58
 453 443 453 443 464 442 c 0,59,60
 478 441 478 441 487 441 c 256,61,62
 496 441 496 441 501 440 c 1,63,64
 478 347 478 347 453 254 c 0,65,66
 421 123 421 123 421 74 c 0,15,16
EndSplineSet
EndChar

StartChar: ucircumflex
Encoding: 251 251 168
Width: 600
Flags: W
LayerCount: 2
Fore
SplineSet
483 525 m 0,0,1
 469 525 469 525 426 563 c 0,2,3
 413 577 413 577 400.5 590 c 128,-1,4
 388 603 388 603 374 616 c 1,5,6
 357 602 357 602 341 589 c 128,-1,7
 325 576 325 576 308 563 c 0,8,9
 255 524 255 524 240 524 c 0,10,11
 220 524 220 524 220 549 c 0,12,13
 220 563 220 563 276 607 c 0,14,15
 292 618 292 618 310 632 c 128,-1,16
 328 646 328 646 350 663 c 0,17,18
 358 670 358 670 376 670 c 0,19,20
 390 670 390 670 401 662 c 0,21,22
 417 648 417 648 432.5 634.5 c 128,-1,23
 448 621 448 621 464 607 c 0,24,25
 511 563 511 563 511 547 c 0,26,27
 511 539 511 539 501.5 532 c 128,-1,28
 492 525 492 525 483 525 c 0,0,1
448 250 m 0,29,30
 443 228 443 228 437 207 c 128,-1,31
 431 186 431 186 426 164 c 0,32,33
 412 106 412 106 412 77 c 0,34,35
 412 56 412 56 446 50 c 0,36,37
 476 44 476 44 476 21 c 0,38,39
 476 -1 476 -1 436 -1 c 0,40,41
 394 -1 394 -1 378 27 c 1,42,43
 347 -1 347 -1 293 -1 c 0,44,45
 201 -1 201 -1 155 22 c 0,46,47
 93 57 93 57 93 140 c 0,48,49
 93 184 93 184 112 263 c 0,50,51
 117 286 117 286 125 317 c 128,-1,52
 133 348 133 348 143 390 c 1,53,-1
 120 389 l 2,54,55
 89 388 89 388 89 417 c 0,56,57
 89 427 89 427 99 434.5 c 128,-1,58
 109 442 109 442 120 442 c 2,59,-1
 206 442 l 1,60,61
 196 404 196 404 187 367 c 128,-1,62
 178 330 178 330 168 292 c 0,63,64
 144 194 144 194 144 144 c 0,65,66
 144 48 144 48 266 48 c 0,67,68
 354 48 354 48 364 97 c 2,69,-1
 428 389 l 1,70,-1
 405 389 l 2,71,72
 363 387 363 387 363 417 c 0,73,74
 363 443 363 443 390 442 c 2,75,-1
 493 441 l 1,76,77
 485 409 485 409 474 361.5 c 128,-1,78
 463 314 463 314 448 250 c 0,29,30
EndSplineSet
EndChar

StartChar: udieresis
Encoding: 252 252 169
Width: 600
Flags: W
LayerCount: 2
Fore
SplineSet
456 522 m 5,0,1
 438 522 l 5,2,-1
 425 523 l 5,3,4
 398 539 398 539 398 559 c 4,5,6
 398 573 398 573 411.5 588 c 132,-1,7
 425 603 425 603 439 603 c 4,8,9
 479 603 479 603 479 559 c 4,10,11
 479 536 479 536 456 522 c 5,0,1
275 521 m 4,12,13
 258 521 258 521 244.5 532 c 132,-1,14
 231 543 231 543 231 559 c 4,15,16
 231 594 231 594 275 600 c 5,17,18
 313 592 313 592 313 559 c 4,19,20
 313 521 313 521 275 521 c 4,12,13
421 74 m 0,21,22
 421 55 421 55 461 48 c 0,23,24
 466 47 466 47 470 46 c 128,-1,25
 474 45 474 45 476 44 c 2,26,-1
 481 37 l 1,27,-1
 481 36 l 1,28,-1
 486 27 l 1,29,30
 484 19 484 19 484 8 c 1,31,32
 479 3 479 3 467 -2 c 0,33,34
 463 -3 463 -3 457 -3 c 0,35,36
 452 -3 452 -3 445 -3 c 0,37,38
 403 -3 403 -3 387 25 c 1,39,40
 356 -3 356 -3 291 -3 c 0,41,42
 200 -3 200 -3 157 24 c 0,43,44
 104 59 104 59 104 144 c 0,45,46
 104 186 104 186 122 264 c 0,47,48
 127 286 127 286 134 316.5 c 128,-1,49
 141 347 141 347 151 388 c 1,50,-1
 128 387 l 2,51,52
 104 385 104 385 98 414 c 1,53,54
 110 440 110 440 129 440 c 2,55,-1
 217 440 l 1,56,57
 207 403 207 403 198 366 c 128,-1,58
 189 329 189 329 179 292 c 0,59,60
 154 195 154 195 154 146 c 0,61,62
 154 88 154 88 189 65 c 0,63,64
 217 47 217 47 277 47 c 0,65,66
 363 47 363 47 373 93 c 2,67,-1
 438 388 l 1,68,-1
 414 387 l 2,69,70
 392 386 392 386 379 395 c 0,71,72
 376 401 376 401 373 414 c 1,73,-1
 379 431 l 2,74,75
 382 432 382 432 400 440 c 1,76,-1
 501 440 l 1,77,78
 489 393 489 393 477 347 c 128,-1,79
 465 301 465 301 453 253 c 0,80,81
 421 120 421 120 421 74 c 0,21,22
EndSplineSet
EndChar

StartChar: yacute
Encoding: 253 253 170
Width: 600
Flags: W
LayerCount: 2
Fore
SplineSet
304 495 m 4,0,1
 283 495 283 495 283 522 c 4,2,3
 283 536 283 536 292 544 c 4,4,5
 306 560 306 560 320.5 576 c 132,-1,6
 335 592 335 592 350 608 c 4,7,8
 395 656 395 656 414 656 c 4,9,10
 424 656 424 656 431.5 648.5 c 132,-1,11
 439 641 439 641 439 631 c 260,12,13
 439 621 439 621 377 557 c 4,14,15
 315 495 315 495 304 495 c 4,0,1
487 387 m 0,16,17
 483 388 483 388 478 388 c 256,18,19
 473 388 473 388 465 389 c 1,20,-1
 209 -160 l 1,21,22
 220 -159 220 -159 226 -158.5 c 128,-1,23
 232 -158 232 -158 234 -158 c 0,24,25
 265 -158 265 -158 265 -184 c 256,26,27
 265 -210 265 -210 242 -210 c 2,28,-1
 88 -210 l 1,29,30
 74 -202 74 -202 74 -184 c 0,31,32
 74 -160 74 -160 100 -157 c 0,33,34
 102 -157 102 -157 149 -160 c 1,35,-1
 246 56 l 1,36,-1
 148 389 l 1,37,-1
 115 388 l 2,38,39
 97 386 97 386 97 413 c 0,40,41
 97 421 97 421 102.5 430.5 c 128,-1,42
 108 440 108 440 114 440 c 2,43,-1
 215 440 l 2,44,45
 227 440 227 440 231 430 c 0,46,47
 233 425 233 425 234 420 c 128,-1,48
 235 415 235 415 237 410 c 0,49,50
 234 387 234 387 202 389 c 1,51,-1
 283 121 l 1,52,-1
 403 388 l 1,53,54
 371 385 371 385 370 385 c 0,55,56
 338 385 338 385 338 413 c 0,57,58
 338 440 338 440 355 440 c 2,59,-1
 503 440 l 2,60,61
 525 440 525 440 525 414 c 0,62,63
 525 385 525 385 487 387 c 0,16,17
EndSplineSet
EndChar

StartChar: ydieresis
Encoding: 255 255 171
Width: 600
Flags: W
LayerCount: 2
Fore
SplineSet
456 522 m 5,0,1
 438 522 l 5,2,-1
 425 523 l 5,3,4
 398 539 398 539 398 559 c 4,5,6
 398 573 398 573 411.5 588 c 132,-1,7
 425 603 425 603 439 603 c 4,8,9
 479 603 479 603 479 559 c 4,10,11
 479 536 479 536 456 522 c 5,0,1
275 521 m 4,12,13
 258 521 258 521 244.5 532 c 132,-1,14
 231 543 231 543 231 559 c 4,15,16
 231 594 231 594 275 600 c 5,17,18
 313 592 313 592 313 559 c 4,19,20
 313 521 313 521 275 521 c 4,12,13
487 387 m 0,21,22
 483 388 483 388 478 388 c 256,23,24
 473 388 473 388 465 389 c 1,25,-1
 209 -160 l 1,26,27
 220 -159 220 -159 226 -158.5 c 128,-1,28
 232 -158 232 -158 234 -158 c 0,29,30
 265 -158 265 -158 265 -184 c 256,31,32
 265 -210 265 -210 242 -210 c 2,33,-1
 88 -210 l 1,34,35
 74 -202 74 -202 74 -184 c 0,36,37
 74 -160 74 -160 100 -157 c 0,38,39
 102 -157 102 -157 149 -160 c 1,40,-1
 246 56 l 1,41,-1
 148 389 l 1,42,-1
 115 388 l 2,43,44
 97 386 97 386 97 413 c 0,45,46
 97 421 97 421 102.5 430.5 c 128,-1,47
 108 440 108 440 114 440 c 2,48,-1
 215 440 l 2,49,50
 227 440 227 440 231 430 c 0,51,52
 233 425 233 425 234 420 c 128,-1,53
 235 415 235 415 237 410 c 0,54,55
 234 387 234 387 202 389 c 1,56,-1
 283 121 l 1,57,-1
 403 388 l 1,58,59
 371 385 371 385 370 385 c 0,60,61
 338 385 338 385 338 413 c 0,62,63
 338 440 338 440 355 440 c 2,64,-1
 503 440 l 2,65,66
 525 440 525 440 525 414 c 0,67,68
 525 385 525 385 487 387 c 0,21,22
EndSplineSet
EndChar

StartChar: Euro
Encoding: 8364 8364 172
Width: 600
Flags: W
LayerCount: 2
Fore
SplineSet
528 65 m 0,0,1
 479 -8 479 -8 365 -8 c 0,2,3
 190 -8 190 -8 146 132 c 0,4,5
 142 132 142 132 136 131.5 c 128,-1,6
 130 131 130 131 122 130 c 0,7,8
 115 129 115 129 109 129 c 0,9,10
 104 129 104 129 100 129 c 0,11,12
 65 129 65 129 65 150 c 0,13,14
 65 183 65 183 107 185 c 0,15,16
 109 185 109 185 115 185 c 256,17,18
 121 185 121 185 131 184 c 1,19,-1
 131 204 l 2,20,21
 131 205 131 205 130.5 210.5 c 128,-1,22
 130 216 130 216 129 226 c 1,23,24
 115 225 115 225 108 224.5 c 128,-1,25
 101 224 101 224 102 224 c 1,26,27
 73 224 73 224 73 245 c 0,28,29
 73 277 73 277 113 278 c 2,30,-1
 136 278 l 1,31,32
 145 314 145 314 164 343.5 c 128,-1,33
 183 373 183 373 209 394 c 128,-1,34
 235 415 235 415 268 426.5 c 128,-1,35
 301 438 301 438 338 438 c 0,36,37
 386 438 386 438 449 420 c 0,38,39
 528 399 528 399 528 368 c 0,40,41
 528 340 528 340 503 337 c 0,42,43
 498 338 498 338 490 343 c 0,44,45
 422 384 422 384 341 384 c 0,46,47
 230 384 230 384 193 278 c 1,48,-1
 445 278 l 2,49,50
 466 278 466 278 466 250 c 0,51,52
 466 227 466 227 435 227 c 2,53,-1
 183 227 l 1,54,-1
 183 221 l 2,55,56
 183 217 183 217 184 208 c 128,-1,57
 185 199 185 199 187 185 c 1,58,-1
 415 184 l 2,59,60
 441 184 441 184 441 158 c 256,61,62
 441 132 441 132 406 132 c 2,63,-1
 203 132 l 1,64,65
 231 42 231 42 363 42 c 0,66,67
 422 42 422 42 492 95 c 0,68,69
 504 104 504 104 509 104 c 0,70,71
 518 104 518 104 526.5 97 c 128,-1,72
 535 90 535 90 535 82 c 0,73,74
 535 75 535 75 528 65 c 0,0,1
EndSplineSet
EndChar

StartChar: uni22A3
Encoding: 8867 8867 173
Width: 600
Flags: W
LayerCount: 2
Fore
SplineSet
485 90 m 0,0,1
 476 90 476 90 467 96.5 c 128,-1,2
 458 103 458 103 458 111 c 2,3,-1
 458 227 l 1,4,-1
 117 227 l 2,5,6
 90 227 90 227 90 254 c 0,7,8
 90 277 90 277 116 277 c 2,9,-1
 458 277 l 1,10,-1
 458 391 l 2,11,12
 458 400 458 400 466.5 406.5 c 128,-1,13
 475 413 475 413 485 413 c 0,14,15
 509 413 509 413 509 393 c 2,16,-1
 509 110 l 2,17,18
 509 90 509 90 485 90 c 0,0,1
EndSplineSet
EndChar

StartChar: perpendicular
Encoding: 8869 8869 174
Width: 600
Flags: W
LayerCount: 2
Fore
SplineSet
467 1 m 6,0,1
 132 1 l 6,2,3
 110 1 110 1 110 25 c 4,4,5
 110 51 110 51 132 51 c 6,6,-1
 274 51 l 5,7,-1
 274 411 l 6,8,9
 274 438 274 438 299 438 c 4,10,11
 325 438 325 438 325 411 c 6,12,-1
 325 51 l 5,13,-1
 464 51 l 6,14,15
 489 51 489 51 489 25 c 4,16,17
 489 1 489 1 467 1 c 6,0,1
EndSplineSet
EndChar

StartChar: uni22A4
Encoding: 8868 8868 175
Width: 600
Flags: W
LayerCount: 2
Fore
SplineSet
465 387 m 2,0,1
 326 387 l 1,2,-1
 326 27 l 2,3,4
 326 -4 326 -4 300 -4 c 0,5,6
 275 -4 275 -4 275 27 c 2,7,-1
 275 387 l 1,8,-1
 133 387 l 2,9,10
 110 387 110 387 110 412 c 256,11,12
 110 437 110 437 133 437 c 2,13,-1
 468 437 l 2,14,15
 490 437 490 437 490 412 c 256,16,17
 490 387 490 387 465 387 c 2,0,1
EndSplineSet
EndChar

StartChar: arrowleft
Encoding: 8592 8592 176
Width: 600
Flags: W
LayerCount: 2
Fore
SplineSet
547 226 m 2,0,1
 216 226 l 1,2,3
 217 224 217 224 246 205 c 0,4,5
 291 173 291 173 302 140 c 1,6,7
 312 131 312 131 312 121 c 0,8,9
 312 96 312 96 290 96 c 0,10,11
 285 96 285 96 238 140 c 2,12,-1
 201 173 l 2,13,14
 192 181 192 181 186 187 c 128,-1,15
 180 193 180 193 176 195 c 0,16,17
 167 200 167 200 95 220 c 0,18,19
 34 235 34 235 30 247 c 1,20,-1
 30 249 l 2,21,22
 30 258 30 258 52 268 c 0,23,24
 57 270 57 270 65 272.5 c 128,-1,25
 73 275 73 275 84 278 c 0,26,27
 122 288 122 288 148.5 298 c 128,-1,28
 175 308 175 308 190 318 c 0,29,30
 217 337 217 337 270 400 c 1,31,32
 278 402 278 402 288 410 c 1,33,34
 293 404 293 404 301 403 c 1,35,36
 308 396 308 396 308 391 c 0,37,38
 308 337 308 337 220 277 c 1,39,-1
 545 277 l 2,40,41
 570 277 570 277 570 250 c 0,42,43
 570 226 570 226 547 226 c 2,0,1
EndSplineSet
EndChar

StartChar: arrowup
Encoding: 8593 8593 177
Width: 600
Flags: W
LayerCount: 2
Fore
SplineSet
440 248 m 0,0,1
 418 248 418 248 380 276 c 0,2,3
 344 301 344 301 323 325 c 1,4,-1
 323 9 l 2,5,6
 323 -13 323 -13 296 -13 c 0,7,8
 272 -13 272 -13 272 9 c 2,9,-1
 272 326 l 1,10,11
 246 291 246 291 222 274 c 0,12,13
 214 268 214 268 199 260.5 c 128,-1,14
 184 253 184 253 163 243 c 1,15,-1
 161 243 l 2,16,17
 137 243 137 243 137 268 c 0,18,19
 137 276 137 276 185 323 c 0,20,21
 211 347 211 347 247 388 c 1,22,23
 262 412 262 412 272 482 c 0,24,25
 279 533 279 533 298 533 c 0,26,27
 308 533 308 533 316 525 c 0,28,29
 316 522 316 522 329 466 c 0,30,31
 342 404 342 404 356 382 c 0,32,33
 370 359 370 359 408 328 c 0,34,35
 428 312 428 312 441 299 c 128,-1,36
 454 286 454 286 461 276 c 1,37,-1
 462 270 l 1,38,39
 458 248 458 248 440 248 c 0,0,1
EndSplineSet
EndChar

StartChar: arrowright
Encoding: 8594 8594 178
Width: 600
Flags: W
LayerCount: 2
Fore
SplineSet
506 220 m 0,0,1
 489 215 489 215 468 209 c 128,-1,2
 447 203 447 203 422 195 c 0,3,4
 415 190 415 190 361 141 c 0,5,6
 314 96 314 96 310 96 c 0,7,8
 288 96 288 96 288 121 c 0,9,10
 288 132 288 132 296 140 c 1,11,12
 306 165 306 165 330 186 c 0,13,14
 334 189 334 189 347 199 c 128,-1,15
 360 209 360 209 382 226 c 1,16,-1
 50 226 l 2,17,18
 29 226 29 226 29 250 c 0,19,20
 29 259 29 259 36.5 268 c 128,-1,21
 44 277 44 277 53 277 c 2,22,23
 380 277 l 1,24,25
 374 282 374 282 365.5 288.5 c 128,-1,26
 357 295 357 295 346 303 c 0,27,28
 290 350 290 350 290 391 c 0,29,30
 290 396 290 396 310 410 c 1,31,32
 314 406 314 406 328 400 c 1,33,34
 348 377 348 377 364 360 c 128,-1,35
 380 343 380 343 391 333 c 0,36,37
 430 300 430 300 470 290 c 0,38,39
 478 288 478 288 492.5 284 c 128,-1,40
 507 280 507 280 527 274 c 0,41,42
 570 261 570 261 570 249 c 0,43,44
 570 238 570 238 506 220 c 0,0,1
EndSplineSet
EndChar

StartChar: arrowdown
Encoding: 8595 8595 179
Width: 600
Flags: W
LayerCount: 2
Fore
SplineSet
462 247 m 1,0,-1
 461 244 l 2,1,2
 455 235 455 235 447 232 c 0,3,4
 352 150 352 150 334 84 c 0,5,6
 332 66 332 66 325 27 c 0,7,8
 318 -10 318 -10 300 -10 c 0,9,10
 277 -10 277 -10 273 24 c 0,11,12
 272 34 272 34 271 47.5 c 128,-1,13
 270 61 270 61 268 80 c 0,14,15
 257 128 257 128 218 170 c 0,16,17
 194 197 194 197 142 242 c 1,18,-1
 137 251 l 1,19,20
 142 278 142 278 163 279 c 1,21,22
 231 246 231 246 272 196 c 1,23,-1
 272 513 l 2,24,25
 272 535 272 535 298 535 c 0,26,27
 323 535 323 535 323 513 c 2,28,-1
 323 196 l 1,29,30
 334 208 334 208 349 220 c 128,-1,31
 364 232 364 232 381 245 c 0,32,33
 421 273 421 273 443 273 c 0,34,35
 462 273 462 273 462 250 c 2,36,-1
 462 247 l 1,0,-1
EndSplineSet
EndChar

StartChar: lessequal
Encoding: 8804 8804 180
Width: 600
Flags: W
LayerCount: 2
Fore
SplineSet
441 364 m 2,0,1
 233 253 l 1,2,-1
 443 133 l 2,3,4
 460 122 460 122 460 107 c 0,5,6
 460 97 460 97 452.5 87 c 128,-1,7
 445 77 445 77 435 77 c 0,8,9
 420 77 420 77 301 145 c 0,10,11
 255 171 255 171 219 192.5 c 128,-1,12
 183 214 183 214 157 230 c 0,13,14
 142 240 142 240 142 253 c 0,15,16
 142 267 142 267 157 276 c 0,17,18
 200 304 200 304 299 359 c 0,19,20
 415 424 415 424 432 424 c 0,21,22
 463 424 463 424 463 394 c 0,23,24
 463 376 463 376 441 364 c 2,0,1
432 0 m 2,25,-1
 161 0 l 2,26,27
 135 0 135 0 135 24 c 0,28,29
 135 33 135 33 144.5 42 c 128,-1,30
 154 51 154 51 163 51 c 2,31,-1
 433 51 l 2,32,33
 464 51 464 51 464 24 c 0,34,35
 464 0 464 0 432 0 c 2,25,-1
EndSplineSet
EndChar

StartChar: greaterequal
Encoding: 8805 8805 181
Width: 600
Flags: W
LayerCount: 2
Fore
SplineSet
440 230 m 0,0,1
 188 77 188 77 166 77 c 0,2,3
 155 77 155 77 147.5 86.5 c 128,-1,4
 140 96 140 96 140 106 c 0,5,6
 140 125 140 125 154 133 c 2,7,-1
 365 253 l 1,8,-1
 157 364 l 2,9,10
 137 375 137 375 137 395 c 0,11,12
 137 406 137 406 146 415 c 128,-1,13
 155 424 155 424 167 424 c 0,14,15
 198 424 198 424 440 276 c 0,16,17
 457 265 457 265 457 253 c 256,18,19
 457 241 457 241 440 230 c 0,0,1
459 6 m 1,20,21
 448 0 448 0 437 0 c 2,22,-1
 165 0 l 2,23,24
 136 0 136 0 136 26 c 0,25,26
 136 51 136 51 165 51 c 2,27,-1
 434 51 l 2,28,29
 464 51 464 51 464 24 c 0,30,31
 464 18 464 18 459 6 c 1,20,21
EndSplineSet
EndChar

